<svg width="39" height="39" viewBox="0 0 39 39" fill="none" xmlns="http://www.w3.org/2000/svg">
<circle cx="19.5" cy="19.5" r="19.5" fill="#FEE6EA"/>
<path d="M30 24.7037V24.2963C29.9997 23.9723 29.8837 23.6616 29.6775 23.4325C29.4712 23.2033 29.1916 23.0744 28.9 23.0741H28.0991C28.1426 22.9436 28.1654 22.8058 28.1667 22.6667V14.9259C28.1663 14.6019 28.0504 14.2912 27.8441 14.0621C27.6379 13.8329 27.3583 13.7041 27.0667 13.7037H17.9C17.6084 13.7041 17.3288 13.8329 17.1225 14.0621C16.9163 14.2912 16.8003 14.6019 16.8 14.9259V22.6667C16.8012 22.8058 16.8241 22.9436 16.8676 23.0741C16.5896 23.0993 14.824 23.0051 14.6 23.1492V11.2593C14.5997 10.9352 14.4837 10.6245 14.2775 10.3954C14.0712 10.1663 13.7916 10.0374 13.5 10.037H12.7667V9.42593C12.7663 9.04789 12.6309 8.68546 12.3903 8.41815C12.1498 8.15084 11.8236 8.00046 11.4833 8H9.28333C8.94297 8 8.61655 8.15023 8.37588 8.41764C8.13521 8.68506 8 9.04775 8 9.42593C8 9.80411 8.13521 10.1668 8.37588 10.4342C8.61655 10.7016 8.94297 10.8519 9.28333 10.8519H13.5C13.5972 10.852 13.6904 10.8949 13.7592 10.9713C13.8279 11.0477 13.8666 11.1512 13.8667 11.2593V24.7037C13.8671 24.9399 13.9291 25.1709 14.0451 25.3688C14.1612 25.5667 14.3264 25.723 14.5207 25.8188C14.2145 26.1547 14.0037 26.5831 13.9145 27.0509C13.8253 27.5187 13.8616 28.0053 14.019 28.4504C14.1764 28.8955 14.4478 29.2794 14.7997 29.5547C15.1516 29.8299 15.5685 29.9844 15.9987 29.9989C16.4288 30.0134 16.8533 29.8873 17.2196 29.6362C17.5859 29.3851 17.8778 29.0202 18.0591 28.5865C18.2405 28.1528 18.3033 27.6696 18.2397 27.1966C18.1762 26.7237 17.9892 26.2819 17.7018 25.9259H26.1649C25.8775 26.2819 25.6904 26.7237 25.6269 27.1966C25.5634 27.6696 25.6262 28.1528 25.8075 28.5865C25.9889 29.0202 26.2808 29.3851 26.647 29.6362C27.0133 29.8873 27.4378 30.0134 27.868 29.9989C28.2982 29.9844 28.715 29.8299 29.0669 29.5547C29.4189 29.2794 29.6903 28.8955 29.8477 28.4504C30.005 28.0053 30.0414 27.5187 29.9522 27.0509C29.863 26.5831 29.6522 26.1547 29.3459 25.8188C29.5403 25.723 29.7055 25.5667 29.8215 25.3688C29.9376 25.1709 29.9996 24.9399 30 24.7037ZM8.73333 9.42593C8.73349 9.2639 8.79149 9.10857 8.8946 8.994C8.99771 8.87943 9.13751 8.81499 9.28333 8.81482H11.4833C11.6292 8.81499 11.769 8.87943 11.8721 8.994C11.9752 9.10857 12.0332 9.2639 12.0333 9.42593V10.037H9.28333C9.13751 10.0369 8.99771 9.97242 8.8946 9.85785C8.79149 9.74329 8.73349 9.58795 8.73333 9.42593ZM23.4 14.5185L23.4004 16.5556H21.5667V14.5185H23.4ZM17.5333 22.6667V14.9259C17.5334 14.8179 17.5721 14.7144 17.6408 14.638C17.7096 14.5616 17.8028 14.5186 17.9 14.5185H20.8333V16.5556C20.8336 16.7716 20.9109 16.9787 21.0484 17.1315C21.1858 17.2842 21.3722 17.3701 21.5667 17.3704H23.4C23.5944 17.3701 23.7808 17.2842 23.9183 17.1315C24.0558 16.9787 24.1331 16.7716 24.1333 16.5556V14.5185H27.0667C27.1639 14.5186 27.2571 14.5616 27.3258 14.638C27.3946 14.7144 27.4332 14.8179 27.4333 14.9259V22.6667C27.4332 22.7747 27.3946 22.8783 27.3258 22.9546C27.2571 23.031 27.1639 23.074 27.0667 23.0741H17.9C17.8028 23.074 17.7096 23.031 17.6408 22.9546C17.5721 22.8783 17.5334 22.7747 17.5333 22.6667ZM17.5333 27.5556C17.5299 27.9853 17.3738 28.396 17.0991 28.6985C16.8245 29.001 16.4534 29.1707 16.0667 29.1707C15.6799 29.1707 15.3088 29.001 15.0342 28.6985C14.7595 28.396 14.6035 27.9852 14.6 27.5555C14.6035 27.1259 14.7595 26.7151 15.0342 26.4126C15.3089 26.1101 15.68 25.9404 16.0667 25.9404C16.4534 25.9404 16.8245 26.1101 17.0992 26.4126C17.3738 26.7151 17.5299 27.1259 17.5333 27.5556ZM27.8 29.1852C27.4133 29.1814 27.0436 29.008 26.7714 28.7028C26.4991 28.3976 26.3464 27.9853 26.3464 27.5556C26.3464 27.1259 26.4992 26.7135 26.7714 26.4084C27.0436 26.1032 27.4133 25.9298 27.8 25.9259C28.1867 25.9298 28.5564 26.1032 28.8287 26.4084C29.1009 26.7136 29.2536 27.1259 29.2536 27.5556C29.2536 27.9853 29.1009 28.3976 28.8286 28.7028C28.5564 29.008 28.1867 29.1814 27.8 29.1852ZM14.9667 25.1111C14.8695 25.111 14.7762 25.0681 14.7075 24.9917C14.6388 24.9153 14.6001 24.8117 14.6 24.7037V24.2963C14.6001 24.1883 14.6388 24.0847 14.7075 24.0083C14.7762 23.932 14.8695 23.889 14.9667 23.8889H28.9C28.9972 23.889 29.0904 23.932 29.1592 24.0083C29.2279 24.0847 29.2666 24.1883 29.2667 24.2963V24.7037C29.2666 24.8117 29.2279 24.9153 29.1592 24.9917C29.0904 25.0681 28.9972 25.111 28.9 25.1111H14.9667Z" fill="#F72B50"/>
</svg>
