<svg width="10" height="12" viewBox="0 0 10 12" fill="none" xmlns="http://www.w3.org/2000/svg">
<path d="M10.0001 1.77155C10.0001 1.75862 9.98736 1.74569 9.98736 1.71983V1.7069C9.97467 1.69397 9.97467 1.68103 9.96198 1.6681L8.32493 0.0387931C8.31223 0.0258621 8.29955 0.012931 8.28685 0.012931H8.27416C8.26147 -1.25247e-08 8.24878 0 8.2234 0C8.21071 0 8.19802 0 8.18533 0H1.57366C1.47213 0 1.3833 0.0905172 1.3833 0.193965V1.30603C1.3833 1.40948 1.47213 1.5 1.57366 1.5C1.67518 1.5 1.76401 1.40948 1.76401 1.30603V0.362069H8.00767V1.81034C8.00767 1.91379 8.0965 2.00431 8.19802 2.00431H9.61934V11.5991H1.76401V10.7069C1.76401 10.6034 1.67518 10.5129 1.57366 10.5129C1.47213 10.5129 1.3833 10.6034 1.3833 10.7069V11.806C1.3833 11.9095 1.47213 12 1.57366 12H9.8097C9.91122 12 10.0001 11.9095 10.0001 11.806V1.81034C10.0001 1.79741 10.0001 1.78448 10.0001 1.77155ZM8.38838 1.61638V0.646552L9.35285 1.62931H8.38838V1.61638Z" fill="#857C7C"/>
<path d="M6.48485 8.58619C6.48485 8.59912 6.48485 8.59912 6.48485 8.58619L7.18282 9.65947C7.22089 9.71119 7.27165 9.74998 7.3351 9.74998C7.39855 9.74998 7.46201 9.72412 7.48739 9.65947L8.18536 8.58619C8.19805 8.57326 8.19805 8.56033 8.21074 8.53447V8.52153C8.21074 8.5086 8.22343 8.48274 8.22343 8.46981V3.12929C8.22343 2.62498 7.83003 2.22412 7.3351 2.22412C6.84018 2.22412 6.44678 2.62498 6.44678 3.12929V8.48274C6.44678 8.49567 6.44678 8.52153 6.45947 8.53447V8.5474C6.47216 8.56033 6.47216 8.57326 6.48485 8.58619ZM7.85541 3.50429V3.65947H6.84018V3.51722H7.85541V3.50429ZM6.84018 8.28878V4.0474H7.85541V8.30171H6.84018V8.28878ZM7.3351 9.20688L6.99246 8.67671H7.67774L7.3351 9.20688ZM7.34779 2.61205C7.62698 2.61205 7.85541 2.84481 7.85541 3.11636H6.84018C6.84018 2.84481 7.0686 2.61205 7.34779 2.61205Z" fill="#857C7C"/>
<path d="M5.74873 9.55602V2.41809C5.74873 2.31464 5.6599 2.22412 5.55838 2.22412H0.190355C0.0888325 2.22412 0 2.31464 0 2.41809V9.55602C0 9.65947 0.0888325 9.74998 0.190355 9.74998H5.55838C5.6599 9.74998 5.74873 9.65947 5.74873 9.55602ZM5.36802 9.36205H0.380711V2.61205H5.36802V9.36205Z" fill="#857C7C"/>
<path d="M1.00286 8.78019H1.85311C1.95463 8.78019 2.04346 8.68967 2.04346 8.58622V7.71984C2.04346 7.6164 1.95463 7.52588 1.85311 7.52588H1.00286C0.901332 7.52588 0.8125 7.6164 0.8125 7.71984V8.58622C0.8125 8.68967 0.901332 8.78019 1.00286 8.78019ZM1.19321 7.90088H1.66275V8.37933H1.19321V7.90088Z" fill="#857C7C"/>
<path d="M1.00286 7.30607H1.85311C1.95463 7.30607 2.04346 7.21555 2.04346 7.1121V6.24572C2.04346 6.14228 1.95463 6.05176 1.85311 6.05176H1.00286C0.901332 6.05176 0.8125 6.14228 0.8125 6.24572V7.1121C0.8125 7.21555 0.901332 7.30607 1.00286 7.30607ZM1.19321 6.42676H1.66275V6.90521H1.19321V6.42676Z" fill="#857C7C"/>
<path d="M1.00286 5.83195H1.85311C1.95463 5.83195 2.04346 5.74143 2.04346 5.63798V4.7716C2.04346 4.66815 1.95463 4.57764 1.85311 4.57764H1.00286C0.901332 4.57764 0.8125 4.66815 0.8125 4.7716V5.63798C0.8125 5.74143 0.901332 5.83195 1.00286 5.83195ZM1.19321 4.95264H1.66275V5.43109H1.19321V4.95264Z" fill="#857C7C"/>
<path d="M4.74618 7.51294H3.89592C3.7944 7.51294 3.70557 7.60346 3.70557 7.7069V8.57328C3.70557 8.67673 3.7944 8.76725 3.89592 8.76725H4.74618C4.8477 8.76725 4.93653 8.67673 4.93653 8.57328V7.7069C4.93653 7.60346 4.86039 7.51294 4.74618 7.51294ZM4.55582 8.39225H4.08628V7.9138H4.55582V8.39225Z" fill="#857C7C"/>
<path d="M4.74618 6.03857H3.89592C3.7944 6.03857 3.70557 6.12909 3.70557 6.23254V7.09892C3.70557 7.20237 3.7944 7.29288 3.89592 7.29288H4.74618C4.8477 7.29288 4.93653 7.20237 4.93653 7.09892V6.23254C4.93653 6.12909 4.86039 6.03857 4.74618 6.03857ZM4.55582 6.91788H4.08628V6.43944H4.55582V6.91788Z" fill="#857C7C"/>
<path d="M4.74618 4.5647H3.89592C3.7944 4.5647 3.70557 4.65521 3.70557 4.75866V5.62504C3.70557 5.72849 3.7944 5.81901 3.89592 5.81901H4.74618C4.8477 5.81901 4.93653 5.72849 4.93653 5.62504V4.75866C4.93653 4.65521 4.86039 4.5647 4.74618 4.5647ZM4.55582 5.44401H4.08628V4.95263H4.55582V5.44401Z" fill="#857C7C"/>
<path d="M3.2994 7.51294H2.44914C2.34762 7.51294 2.25879 7.60346 2.25879 7.7069V8.57328C2.25879 8.67673 2.34762 8.76725 2.44914 8.76725H3.2994C3.40092 8.76725 3.48975 8.67673 3.48975 8.57328V7.7069C3.48975 7.60346 3.41361 7.51294 3.2994 7.51294ZM3.10904 8.39225H2.6395V7.9138H3.10904V8.39225Z" fill="#857C7C"/>
<path d="M3.2994 6.03857H2.44914C2.34762 6.03857 2.25879 6.12909 2.25879 6.23254V7.09892C2.25879 7.20237 2.34762 7.29288 2.44914 7.29288H3.2994C3.40092 7.29288 3.48975 7.20237 3.48975 7.09892V6.23254C3.48975 6.12909 3.41361 6.03857 3.2994 6.03857ZM3.10904 6.91788H2.6395V6.43944H3.10904V6.91788Z" fill="#857C7C"/>
<path d="M1.00286 4.33195H4.74651C4.84803 4.33195 4.93687 4.24143 4.93687 4.13798V3.2716C4.93687 3.16815 4.84803 3.07764 4.74651 3.07764H1.00286C0.901332 3.07764 0.8125 3.16815 0.8125 3.2716V4.13798C0.8125 4.24143 0.901332 4.33195 1.00286 4.33195ZM1.19321 3.45264H4.56884V3.93108H1.19321V3.45264Z" fill="#857C7C"/>
<path d="M3.2994 4.5647H2.44914C2.34762 4.5647 2.25879 4.65521 2.25879 4.75866V5.62504C2.25879 5.72849 2.34762 5.81901 2.44914 5.81901H3.2994C3.40092 5.81901 3.48975 5.72849 3.48975 5.62504V4.75866C3.48975 4.65521 3.41361 4.5647 3.2994 4.5647ZM3.10904 5.44401H2.6395V4.95263H3.10904V5.44401Z" fill="#857C7C"/>
</svg>
