<svg width="20" height="17" viewBox="0 0 20 17" fill="none" xmlns="http://www.w3.org/2000/svg">
<path d="M19.7522 14.3932L11.5748 0.868938C11.2448 0.324305 10.6573 0 9.99984 0C9.34235 0 8.75236 0.324305 8.42487 0.868938L0.247496 14.3932C-0.0824987 14.9378 -0.0824987 15.5864 0.247496 16.1311C0.577491 16.6757 1.16498 17 1.82247 17H18.1797C18.8372 17 19.4247 16.6757 19.7547 16.1311C20.0822 15.5864 20.0822 14.9353 19.7522 14.3932ZM9.99984 13.799C9.56235 13.799 9.20486 13.4475 9.20486 13.0118C9.20486 12.5761 9.55985 12.2246 9.99984 12.2246C10.4398 12.2246 10.7948 12.5761 10.7948 13.0118C10.7948 13.4475 10.4373 13.799 9.99984 13.799ZM10.3698 11.118C10.3573 11.3111 10.1948 11.4596 9.99984 11.4596C9.80485 11.4596 9.64235 11.3111 9.62985 11.118L9.20736 5.05024C9.20736 4.61701 9.56235 4.263 10.0023 4.263C10.4423 4.263 10.7973 4.61453 10.7973 5.05024L10.3698 11.118Z" fill="white"/>
</svg>
