<svg width="7" height="3" viewBox="0 0 7 3" fill="none" xmlns="http://www.w3.org/2000/svg">
<mask id="path-1-inside-1_632_1012" fill="white">
<path fill-rule="evenodd" clip-rule="evenodd" d="M3.50472 3L7 0.116883L6.86775 0L3.50472 2.77403L0.1417 0L0 0.116883L3.50472 3Z"/>
</mask>
<path fill-rule="evenodd" clip-rule="evenodd" d="M3.50472 3L7 0.116883L6.86775 0L3.50472 2.77403L0.1417 0L0 0.116883L3.50472 3Z" fill="#2E2727"/>
<path d="M3.50472 3L2.23413 4.54454L3.50644 5.59119L4.77736 4.54285L3.50472 3ZM7 0.116883L8.27264 1.65974L10.0795 0.169337L8.32444 -1.38173L7 0.116883ZM6.86775 0L8.19219 -1.49861L6.91254 -2.62955L5.59511 -1.54285L6.86775 0ZM3.50472 2.77403L2.23209 4.31688L3.50472 5.36663L4.77736 4.31688L3.50472 2.77403ZM0.1417 0L1.41434 -1.54285L0.1417 -2.5926L-1.13094 -1.54285L0.1417 0ZM0 0.116883L-1.27264 -1.42597L-3.1456 0.118966L-1.27059 1.66142L0 0.116883ZM4.77736 4.54285L8.27264 1.65974L5.72736 -1.42597L2.23209 1.45715L4.77736 4.54285ZM8.32444 -1.38173L8.19219 -1.49861L5.5433 1.49861L5.67556 1.6155L8.32444 -1.38173ZM5.59511 -1.54285L2.23209 1.23117L4.77736 4.31688L8.14038 1.54285L5.59511 -1.54285ZM4.77736 1.23117L1.41434 -1.54285L-1.13094 1.54285L2.23209 4.31688L4.77736 1.23117ZM-1.13094 -1.54285L-1.27264 -1.42597L1.27264 1.65974L1.41434 1.54285L-1.13094 -1.54285ZM-1.27059 1.66142L2.23413 4.54454L4.77532 1.45546L1.27059 -1.42765L-1.27059 1.66142Z" fill="black" mask="url(#path-1-inside-1_632_1012)"/>
</svg>
