<svg width="15" height="12" viewBox="0 0 15 12" fill="none" xmlns="http://www.w3.org/2000/svg">
<path d="M11.5881 5.55651C11.7269 5.55651 11.86 5.62117 11.9581 5.73625C12.0562 5.85133 12.1114 6.00742 12.1114 6.17017H12.6347C12.6347 5.84467 12.5244 5.5325 12.3281 5.30233C12.1318 5.07216 11.8656 4.94286 11.5881 4.94286H11.5122V4.19727H10.9889V4.94286H10.913C10.6355 4.94286 10.3693 5.07216 10.173 5.30233C9.97672 5.5325 9.86646 5.84467 9.86646 6.17017C9.86646 6.49567 9.97672 6.80785 10.173 7.03801C10.3693 7.26818 10.6355 7.39748 10.913 7.39748H10.9889V8.6248H10.913C10.7742 8.6248 10.6411 8.56014 10.543 8.44506C10.4449 8.32998 10.3897 8.17389 10.3897 8.01114H9.86646C9.86646 8.33664 9.97672 8.64881 10.173 8.87898C10.3693 9.10915 10.6355 9.23845 10.913 9.23845H10.9889V9.98404H11.5122V9.23845H11.5881C11.8656 9.23845 12.1318 9.10915 12.3281 8.87898C12.5244 8.64881 12.6347 8.33664 12.6347 8.01114C12.6347 7.68564 12.5244 7.37346 12.3281 7.1433C12.1318 6.91313 11.8656 6.78383 11.5881 6.78383H11.5122V5.55651H11.5881ZM11.5881 7.39748C11.7269 7.39748 11.86 7.46214 11.9581 7.57722C12.0562 7.6923 12.1114 7.84839 12.1114 8.01114C12.1114 8.17389 12.0562 8.32998 11.9581 8.44506C11.86 8.56014 11.7269 8.6248 11.5881 8.6248H11.5122V7.39748H11.5881ZM10.9889 6.78383H10.913C10.7742 6.78383 10.6411 6.71917 10.543 6.60409C10.4449 6.48901 10.3897 6.33292 10.3897 6.17017C10.3897 6.00742 10.4449 5.85133 10.543 5.73625C10.6411 5.62117 10.7742 5.55651 10.913 5.55651H10.9889V6.78383Z" fill="#857C7C"/>
<path d="M14.3617 4.89079C14.3076 4.42209 14.1568 3.97592 13.9225 3.59097C13.6881 3.20602 13.3773 2.89389 13.0168 2.68163L12.381 2.31037C12.5105 1.65411 12.7306 1.02708 13.0325 0.454058C13.0566 0.401983 13.0674 0.342836 13.0634 0.283763C13.0595 0.224691 13.041 0.168219 13.0103 0.121169C12.9796 0.0741193 12.9379 0.038505 12.8903 0.0186279C12.8427 -0.00124915 12.7913 -0.00453855 12.7421 0.00915718C12.1194 0.16564 11.9807 0.297576 11.7348 0.193254C11.4771 0.0487365 11.1838 0.017172 10.908 0.104274L10.6123 0.211664C10.3821 0.291439 10.2722 0.177913 9.61283 0.00915718C9.56067 -0.00613112 9.50576 -0.00220493 9.45557 0.0204018C9.40538 0.0430084 9.36235 0.083198 9.33233 0.135503C9.30231 0.187807 9.28675 0.249688 9.28779 0.312725C9.28882 0.375762 9.30639 0.436896 9.3381 0.487809C9.68609 1.04317 10.0236 1.68444 9.99744 2.29503C9.45322 2.62026 9.47416 2.58344 9.21251 2.7614L5.35587 0.377351C5.31801 0.353713 5.27578 0.34135 5.23289 0.34135C5.19001 0.34135 5.14778 0.353713 5.10992 0.377351L0.138672 3.44563C0.0968925 3.47172 0.0619306 3.51061 0.0375104 3.55816C0.0130901 3.60571 0.000126299 3.66013 0 3.71564V5.55661C0.000120193 5.60951 0.0119005 5.66147 0.0341972 5.70745C0.056494 5.75344 0.08855 5.79188 0.127253 5.81905C0.165957 5.84622 0.209993 5.8612 0.255087 5.86252C0.300181 5.86385 0.344802 5.85148 0.384618 5.82662L1.30822 5.24978V11.6932C1.30822 11.7745 1.33579 11.8526 1.38486 11.9101C1.43393 11.9677 1.50048 12 1.56987 12H13.807C13.9769 12 14.1449 11.9574 14.2997 11.8751C14.4544 11.7928 14.5924 11.6727 14.7044 11.5228C14.8163 11.3729 14.8997 11.1967 14.9489 11.0059C14.9981 10.8152 15.012 10.6143 14.9896 10.4168L14.3617 4.89079ZM10.2041 0.813047C10.4951 0.872282 10.7946 0.829592 11.065 0.690315C11.4182 0.564516 11.6223 0.969529 12.1769 0.80691L12.2973 0.770091C12.0943 1.21243 11.9496 1.68831 11.8682 2.1815H10.526C10.4998 1.68947 10.3675 1.21329 10.1413 0.797705L10.2041 0.813047ZM0.523289 3.89974L5.23289 0.994075L8.75202 3.16642C8.537 3.40273 8.35977 3.68226 8.22873 3.99179L5.35063 2.21832C5.31278 2.19468 5.27055 2.18232 5.22766 2.18232C5.18477 2.18232 5.14254 2.19468 5.10469 2.21832L0.523289 5.04727V3.89974ZM1.83151 4.94295L5.23289 2.83504L8.04558 4.57169C8.02238 4.67268 8.00404 4.77512 7.99063 4.87852L7.36268 10.4014C7.32283 10.7481 7.39569 11.0997 7.56677 11.3863H6.80276V6.78392C6.80276 6.70255 6.7752 6.6245 6.72613 6.56696C6.67706 6.50942 6.61051 6.47709 6.54112 6.47709H3.92467C3.85528 6.47709 3.78873 6.50942 3.73966 6.56696C3.69059 6.6245 3.66303 6.70255 3.66303 6.78392V11.3863H1.83151V4.94295ZM4.18632 11.3863V7.09075H6.27947V11.3863H4.18632ZM13.807 11.3863H8.63428C8.52481 11.3987 8.4144 11.381 8.31178 11.3346C8.20915 11.2883 8.11712 11.2146 8.04296 11.1194C7.9806 11.0364 7.93409 10.9387 7.90657 10.8328C7.87904 10.727 7.87113 10.6155 7.88336 10.5057L8.5113 4.98284C8.55167 4.61441 8.6681 4.26311 8.85048 3.9594C9.03286 3.6557 9.27569 3.40878 9.55788 3.24006L10.314 2.79516H12.0357L12.7787 3.23085C13.0609 3.39957 13.3037 3.6465 13.4861 3.9502C13.6685 4.2539 13.7849 4.60521 13.8253 4.97364L14.4559 10.4965C14.4684 10.6061 14.4611 10.7174 14.4344 10.8234C14.4078 10.9294 14.3623 11.0276 14.3011 11.1116C14.2398 11.1955 14.1642 11.2634 14.079 11.3108C13.9939 11.3581 13.9012 11.3839 13.807 11.3863Z" fill="#857C7C"/>
</svg>
