<svg width="50" height="50" viewBox="0 0 50 50" fill="none" xmlns="http://www.w3.org/2000/svg">
<circle cx="25" cy="25" r="25" fill="#2A11C0" fill-opacity="0.1"/>
<path d="M36.125 39.9998H13.625C13.2812 39.9998 13 39.7185 13 39.3748V14.3748C13 14.0298 13.2812 13.7498 13.625 13.7498H36.125C36.4688 13.7498 36.75 14.0298 36.75 14.3748V39.3748C36.75 39.7185 36.4688 39.9998 36.125 39.9998ZM14.25 38.7498H35.5V14.9998H14.25V38.7498Z" fill="#2A11C0"/>
<path d="M32.375 15H17.375C17.0312 15 16.75 14.72 16.75 14.375V10.625C16.75 10.28 17.0312 10 17.375 10H32.375C32.7188 10 33 10.28 33 10.625V14.375C33 14.72 32.7188 15 32.375 15ZM18 13.75H31.75V11.25H18V13.75Z" fill="#2A11C0"/>
<path d="M23.625 22.5H17.375C17.0312 22.5 16.75 22.22 16.75 21.875V16.875C16.75 16.53 17.0312 16.25 17.375 16.25H23.625C23.9688 16.25 24.25 16.53 24.25 16.875V21.875C24.25 22.22 23.9688 22.5 23.625 22.5ZM18 21.25H23V17.5H18V21.25Z" fill="#2A11C0"/>
<path d="M32.375 22.5H26.125C25.7812 22.5 25.5 22.22 25.5 21.875V16.875C25.5 16.53 25.7812 16.25 26.125 16.25H32.375C32.7188 16.25 33 16.53 33 16.875V21.875C33 22.22 32.7188 22.5 32.375 22.5ZM26.75 21.25H31.75V17.5H26.75V21.25Z" fill="#2A11C0"/>
<path d="M23.625 30H17.375C17.0312 30 16.75 29.7188 16.75 29.375V24.375C16.75 24.03 17.0312 23.75 17.375 23.75H23.625C23.9688 23.75 24.25 24.03 24.25 24.375V29.375C24.25 29.7188 23.9688 30 23.625 30ZM18 28.75H23V25H18V28.75Z" fill="#2A11C0"/>
<path d="M32.375 30H26.125C25.7812 30 25.5 29.7188 25.5 29.375V24.375C25.5 24.03 25.7812 23.75 26.125 23.75H32.375C32.7188 23.75 33 24.03 33 24.375V29.375C33 29.7188 32.7188 30 32.375 30ZM26.75 28.75H31.75V25H26.75V28.75Z" fill="#2A11C0"/>
<path d="M23.625 37.5H17.375C17.0312 37.5 16.75 37.2188 16.75 36.875V31.875C16.75 31.5312 17.0312 31.25 17.375 31.25H23.625C23.9688 31.25 24.25 31.5312 24.25 31.875V36.875C24.25 37.2188 23.9688 37.5 23.625 37.5ZM18 36.25H23V32.5H18V36.25Z" fill="#2A11C0"/>
<path d="M32.375 37.5H26.125C25.7812 37.5 25.5 37.2188 25.5 36.875V31.875C25.5 31.5312 25.7812 31.25 26.125 31.25H32.375C32.7188 31.25 33 31.5312 33 31.875V36.875C33 37.2188 32.7188 37.5 32.375 37.5ZM26.75 36.25H31.75V32.5H26.75V36.25Z" fill="#2A11C0"/>
</svg>
