<svg width="14" height="12" viewBox="0 0 14 12" fill="none" xmlns="http://www.w3.org/2000/svg">
<path d="M1.58369 0.00136841C1.51028 -0.00135034 1.43882 -0.000321159 1.36513 0.00721635C1.16861 0.0274926 0.96986 0.0862436 0.788373 0.182975C0.0539739 0.574404 -0.216182 1.47636 0.187332 2.18666C0.212047 2.22974 0.245314 2.26771 0.285234 2.29838C0.325154 2.32906 0.370944 2.35186 0.419991 2.36546C0.469038 2.37906 0.52038 2.3832 0.571087 2.37766C0.621794 2.37211 0.670872 2.35698 0.715519 2.33313C0.760167 2.30928 0.799508 2.27717 0.831299 2.23865C0.863089 2.20012 0.886705 2.15594 0.900799 2.10861C0.914893 2.06128 0.919188 2.01173 0.91344 1.9628C0.907692 1.91386 0.892012 1.8665 0.867297 1.82342C0.663877 1.46536 0.796196 1.03562 1.16478 0.839169C1.52483 0.647268 1.97799 0.761295 2.17866 1.11453C3.56283 3.55103 4.9912 6.58005 6.39808 9.07065C6.04844 9.37978 5.8274 9.82224 5.8274 10.3127C5.8274 11.2401 6.61482 12 7.57588 12C8.53694 12 9.32436 11.2401 9.32436 10.3127C9.32436 10.2567 9.3239 10.2033 9.31829 10.1486L13.8048 7.44193C13.8828 7.39875 13.9428 7.33084 13.9747 7.24976C14.0066 7.16867 14.0084 7.07943 13.9797 6.99722C13.9511 6.91501 13.8938 6.84492 13.8177 6.79888C13.7415 6.75285 13.6511 6.73372 13.562 6.74475C13.5014 6.75113 13.4431 6.77119 13.392 6.80332L9.05723 9.42217C8.74701 8.94654 8.19759 8.6254 7.57588 8.6254C7.40039 8.6254 7.23215 8.64862 7.07198 8.69569C5.68955 6.24586 4.26159 3.22673 2.85862 0.757137C2.59201 0.287833 2.09751 0.0204728 1.58369 0.00136841ZM10.0468 1.12624C9.99507 1.13416 9.94551 1.15209 9.90112 1.17897L6.0156 3.42871C5.92912 3.47878 5.86621 3.55936 5.84015 3.65338C5.81409 3.7474 5.82694 3.84751 5.87597 3.93256L6.65307 5.24491C6.67806 5.28822 6.71167 5.32633 6.75197 5.35707C6.79226 5.38781 6.83846 5.41057 6.88789 5.42403C6.93732 5.4375 6.98903 5.44142 7.04003 5.43556C7.09104 5.42969 7.14034 5.41415 7.18511 5.38985C7.22988 5.36555 7.26923 5.33295 7.30091 5.29394C7.3326 5.25492 7.35598 5.21025 7.36972 5.16249C7.38347 5.11473 7.3873 5.06482 7.38101 5.01563C7.37471 4.96643 7.35841 4.91891 7.33304 4.87581L6.74414 3.87983L9.96183 2.01677L11.9046 5.3035L8.68689 7.16657L8.11014 6.18817C8.05918 6.1016 7.97476 6.03805 7.87535 6.01141C7.77594 5.98477 7.66965 5.99721 7.57973 6.04602C7.48981 6.09483 7.42359 6.17603 7.39556 6.27185C7.36753 6.36766 7.37998 6.47028 7.43017 6.55726L8.20728 7.86962C8.233 7.91329 8.26755 7.95152 8.30888 7.98205C8.35022 8.01259 8.39748 8.03481 8.44788 8.04738C8.49828 8.05994 8.55078 8.06261 8.60227 8.05522C8.65376 8.04783 8.70318 8.03054 8.74761 8.00436L12.6331 5.75462C12.7196 5.70454 12.7825 5.62397 12.8086 5.52995C12.8346 5.43593 12.8218 5.33581 12.7728 5.25076L10.4414 1.31372C10.403 1.24766 10.3447 1.19438 10.2743 1.16091C10.2038 1.12744 10.1245 1.11536 10.0468 1.12624ZM9.65827 2.43859C9.60652 2.4465 9.55695 2.46444 9.51257 2.49132L8.54119 3.05375C8.49238 3.07642 8.44902 3.10869 8.41389 3.14849C8.37876 3.18828 8.35264 3.23471 8.33721 3.28482C8.32178 3.33493 8.31737 3.38759 8.32428 3.43944C8.33118 3.49129 8.34924 3.54118 8.37729 3.58589C8.40535 3.63061 8.44279 3.66917 8.4872 3.6991C8.53161 3.72903 8.58201 3.74967 8.63517 3.75969C8.68834 3.76972 8.74308 3.76891 8.7959 3.75731C8.84872 3.74572 8.89845 3.72359 8.94188 3.69236L9.57328 3.32911L10.15 4.30751C10.1751 4.35065 10.2088 4.3886 10.2491 4.41918C10.2893 4.44976 10.3355 4.47238 10.3848 4.48574C10.4342 4.4991 10.4858 4.50294 10.5367 4.49705C10.5876 4.49115 10.6368 4.47564 10.6815 4.45139C10.7261 4.42714 10.7654 4.39463 10.7971 4.35571C10.8287 4.3168 10.8521 4.27225 10.8659 4.22461C10.8797 4.17697 10.8836 4.12718 10.8775 4.07807C10.8713 4.02896 10.8552 3.9815 10.83 3.93842L10.0529 2.62606C10.0144 2.56 9.95616 2.50673 9.88572 2.47326C9.81527 2.43979 9.73598 2.4277 9.65827 2.43859ZM7.57588 9.37529C8.11696 9.37529 8.54726 9.79055 8.54726 10.3127C8.54726 10.8348 8.11695 11.2501 7.57588 11.2501C7.03481 11.2501 6.6045 10.8348 6.6045 10.3127C6.6045 9.79055 7.0348 9.37529 7.57588 9.37529Z" fill="#857C7C"/>
</svg>
