<svg width="39" height="39" viewBox="0 0 39 39" fill="none" xmlns="http://www.w3.org/2000/svg">
<circle cx="19.5" cy="19.5" r="19.5" fill="#8EEA8C"/>
<path d="M9.82802 10.0027C9.69694 9.9973 9.56933 9.99936 9.43773 10.0144C9.0868 10.055 8.73189 10.1725 8.40781 10.3659C7.09638 11.1488 6.61396 12.9527 7.33452 14.3733C7.37866 14.4595 7.43806 14.5354 7.50935 14.5968C7.58063 14.6581 7.6624 14.7037 7.74998 14.7309C7.83757 14.7581 7.92925 14.7664 8.0198 14.7553C8.11035 14.7442 8.19799 14.714 8.27771 14.6663C8.35744 14.6186 8.42769 14.5543 8.48446 14.4773C8.54123 14.4002 8.5834 14.3119 8.60857 14.2172C8.63374 14.1226 8.64141 14.0235 8.63114 13.9256C8.62088 13.8277 8.59288 13.733 8.54874 13.6468C8.18549 12.9307 8.42178 12.0712 9.07997 11.6783C9.72291 11.2945 10.5321 11.5226 10.8905 12.2291C13.3622 17.1021 15.9129 23.1601 18.4252 28.1413C17.8008 28.7596 17.4061 29.6445 17.4061 30.6254C17.4061 32.4802 18.8122 34 20.5284 34C22.2445 34 23.6506 32.4802 23.6506 30.6254C23.6506 30.5134 23.6498 30.4065 23.6398 30.2973L31.6515 24.8839C31.7907 24.7975 31.8979 24.6617 31.9548 24.4995C32.0118 24.3373 32.015 24.1589 31.9638 23.9944C31.9127 23.83 31.8104 23.6898 31.6744 23.5978C31.5384 23.5057 31.377 23.4674 31.2179 23.4895C31.1096 23.5023 31.0056 23.5424 30.9143 23.6066L23.1736 28.8443C22.6197 27.8931 21.6385 27.2508 20.5284 27.2508C20.215 27.2508 19.9146 27.2972 19.6285 27.3914C17.1599 22.4917 14.61 16.4535 12.1047 11.5143C11.6286 10.5757 10.7456 10.0409 9.82802 10.0027ZM24.9408 12.2525C24.8483 12.2683 24.7598 12.3042 24.6806 12.3579L17.7421 16.8574C17.5877 16.9576 17.4754 17.1187 17.4288 17.3068C17.3823 17.4948 17.4052 17.695 17.4928 17.8651L18.8805 20.4898C18.9251 20.5764 18.9851 20.6527 19.0571 20.7141C19.129 20.7756 19.2115 20.8211 19.2998 20.8481C19.3881 20.875 19.4804 20.8828 19.5715 20.8711C19.6626 20.8594 19.7506 20.8283 19.8306 20.7797C19.9105 20.7311 19.9808 20.6659 20.0373 20.5879C20.0939 20.5098 20.1357 20.4205 20.1602 20.325C20.1848 20.2295 20.1916 20.1296 20.1804 20.0313C20.1691 19.9329 20.14 19.8378 20.0947 19.7516L19.0431 17.7597L24.789 14.0335L28.2582 20.607L22.5123 24.3331L21.4824 22.3763C21.3914 22.2032 21.2406 22.0761 21.0631 22.0228C20.8856 21.9695 20.6958 21.9944 20.5352 22.092C20.3747 22.1897 20.2564 22.3521 20.2064 22.5437C20.1563 22.7353 20.1785 22.9406 20.2682 23.1145L21.6559 25.7392C21.7018 25.8266 21.7635 25.903 21.8373 25.9641C21.9111 26.0252 21.9955 26.0696 22.0855 26.0948C22.1755 26.1199 22.2693 26.1252 22.3612 26.1104C22.4531 26.0957 22.5414 26.0611 22.6207 26.0087L29.5591 21.5092C29.7136 21.4091 29.8259 21.2479 29.8725 21.0599C29.919 20.8719 29.896 20.6716 29.8085 20.5015L25.6454 12.6274C25.5768 12.4953 25.4727 12.3888 25.3469 12.3218C25.2211 12.2549 25.0795 12.2307 24.9408 12.2525ZM24.2469 14.8772C24.1545 14.893 24.066 14.9289 23.9867 14.9826L22.2521 16.1075C22.165 16.1528 22.0875 16.2174 22.0248 16.297C21.9621 16.3766 21.9154 16.4694 21.8879 16.5696C21.8603 16.6699 21.8525 16.7752 21.8648 16.8789C21.8771 16.9826 21.9094 17.0824 21.9595 17.1718C22.0096 17.2612 22.0764 17.3383 22.1557 17.3982C22.235 17.4581 22.325 17.4993 22.42 17.5194C22.5149 17.5394 22.6127 17.5378 22.707 17.5146C22.8013 17.4914 22.8901 17.4472 22.9676 17.3847L24.0951 16.6582L25.1251 18.615C25.1699 18.7013 25.2299 18.7772 25.3019 18.8384C25.3738 18.8995 25.4562 18.9448 25.5444 18.9715C25.6325 18.9982 25.7246 19.0059 25.8155 18.9941C25.9064 18.9823 25.9942 18.9513 26.074 18.9028C26.1538 18.8543 26.224 18.7893 26.2805 18.7114C26.337 18.6336 26.3787 18.5445 26.4034 18.4492C26.428 18.3539 26.435 18.2544 26.424 18.1561C26.413 18.0579 26.3842 17.963 26.3393 17.8768L24.9516 15.2521C24.8829 15.12 24.7789 15.0135 24.6531 14.9465C24.5273 14.8796 24.3857 14.8554 24.2469 14.8772ZM20.5284 28.7506C21.4946 28.7506 22.263 29.5811 22.263 30.6254C22.263 31.6697 21.4946 32.5001 20.5284 32.5001C19.5622 32.5001 18.7938 31.6697 18.7938 30.6254C18.7938 29.5811 19.5621 28.7506 20.5284 28.7506Z" fill="white"/>
</svg>
