<svg width="39" height="39" viewBox="0 0 39 39" fill="none" xmlns="http://www.w3.org/2000/svg">
<circle cx="19.5" cy="19.5" r="19.5" fill="#FFBD80"/>
<path d="M31.768 18.5636L28.568 14.9273C28.4953 14.8381 28.4075 14.7664 28.3099 14.7164C28.2124 14.6664 28.107 14.6392 28 14.6364H22.4V11.9091C22.4 11.668 22.3157 11.4368 22.1657 11.2663C22.0157 11.0958 21.8122 11 21.6 11H8.8C8.58783 11 8.38434 11.0958 8.23431 11.2663C8.08429 11.4368 8 11.668 8 11.9091C8 12.1502 8.08429 12.3814 8.23431 12.5519C8.38434 12.7224 8.58783 12.8182 8.8 12.8182H20.8V25.5455H15.568C15.512 25.4364 15.448 25.3364 15.384 25.2273L15.344 25.1636C15.2533 25.0231 15.1516 24.8923 15.04 24.7727L14.944 24.6727C14.865 24.5891 14.7822 24.5102 14.696 24.4364L14.56 24.3636L14.312 24.1909L14.152 24.1L13.888 23.9818L13.72 23.9182L13.416 23.8273H13.272C12.9596 23.7667 12.6404 23.7667 12.328 23.8273H12.176L11.88 23.9L11.704 23.9727L11.464 24.0818L11.272 24.1909L11.072 24.3273C11.0076 24.3705 10.9461 24.4191 10.888 24.4727L10.736 24.6364L10.536 24.8364V24.8818C10.3794 25.0682 10.24 25.2723 10.12 25.4909L10.032 25.5455H8.8C8.58783 25.5455 8.38434 25.6412 8.23431 25.8117C8.08429 25.9822 8 26.2134 8 26.4545C8 26.6957 8.08429 26.9269 8.23431 27.0974C8.38434 27.2679 8.58783 27.3636 8.8 27.3636H9.6C9.6 28.3281 9.93714 29.253 10.5373 29.9349C11.1374 30.6169 11.9513 31 12.8 31C13.6487 31 14.4626 30.6169 15.0627 29.9349C15.6629 29.253 16 28.3281 16 27.3636H23.2C23.2 28.3281 23.5371 29.253 24.1373 29.9349C24.7374 30.6169 25.5513 31 26.4 31C27.2487 31 28.0626 30.6169 28.6627 29.9349C29.2629 29.253 29.6 28.3281 29.6 27.3636H31.2C31.4122 27.3636 31.6157 27.2679 31.7657 27.0974C31.9157 26.9269 32 26.6957 32 26.4545V19.1818C31.9912 18.9506 31.9087 18.7309 31.768 18.5636ZM12.8 29.1818C12.3757 29.1818 11.9687 28.9903 11.6686 28.6493C11.3686 28.3083 11.2 27.8458 11.2 27.3636C11.1995 27.1519 11.2348 26.9421 11.304 26.7455C11.4153 26.3955 11.6185 26.0928 11.886 25.8782C12.1535 25.6636 12.4725 25.5475 12.8 25.5455C13.1341 25.5464 13.4595 25.6661 13.7307 25.8878C14.0018 26.1095 14.2051 26.4222 14.312 26.7818C14.371 26.9684 14.4008 27.1653 14.4 27.3636C14.4 27.8458 14.2314 28.3083 13.9314 28.6493C13.6313 28.9903 13.2243 29.1818 12.8 29.1818ZM26.4 29.1818C25.9757 29.1818 25.5687 28.9903 25.2686 28.6493C24.9686 28.3083 24.8 27.8458 24.8 27.3636C24.7995 27.1519 24.8348 26.9421 24.904 26.7455C25.0153 26.3955 25.2185 26.0928 25.486 25.8782C25.7535 25.6636 26.0725 25.5475 26.4 25.5455C26.7341 25.5464 27.0595 25.6661 27.3307 25.8878C27.6018 26.1095 27.8051 26.4222 27.912 26.7818C27.971 26.9684 28.0008 27.1653 28 27.3636C28 27.8458 27.8314 28.3083 27.5314 28.6493C27.2313 28.9903 26.8243 29.1818 26.4 29.1818ZM30.4 25.5455H29.168C29.112 25.4364 29.048 25.3364 28.984 25.2273L28.944 25.1636C28.8533 25.0231 28.7516 24.8923 28.64 24.7727L28.544 24.6727C28.465 24.5891 28.3822 24.5102 28.296 24.4364L28.16 24.3364L27.912 24.1636L27.752 24.0727L27.488 23.9545L27.32 23.8909L27.016 23.8H26.872C26.5596 23.7395 26.2404 23.7395 25.928 23.8H25.776L25.48 23.8727L25.304 23.9455L25.064 24.0545L24.872 24.1636L24.672 24.3C24.6076 24.3432 24.5461 24.3918 24.488 24.4455L24.336 24.5818L24.136 24.7818V24.8273C23.9794 25.0136 23.84 25.2177 23.72 25.4364L23.664 25.5364H22.4V16.4545H27.672L30.4 19.5818V25.5455ZM8 15.5455C8 15.3043 8.08429 15.0731 8.23431 14.9026C8.38434 14.7321 8.58783 14.6364 8.8 14.6364H16.8C17.0122 14.6364 17.2157 14.7321 17.3657 14.9026C17.5157 15.0731 17.6 15.3043 17.6 15.5455C17.6 15.7866 17.5157 16.0178 17.3657 16.1883C17.2157 16.3588 17.0122 16.4545 16.8 16.4545H8.8C8.58783 16.4545 8.38434 16.3588 8.23431 16.1883C8.08429 16.0178 8 15.7866 8 15.5455ZM8 19.1818C8 18.9407 8.08429 18.7095 8.23431 18.539C8.38434 18.3685 8.58783 18.2727 8.8 18.2727H14.4C14.6122 18.2727 14.8157 18.3685 14.9657 18.539C15.1157 18.7095 15.2 18.9407 15.2 19.1818C15.2 19.4229 15.1157 19.6542 14.9657 19.8246C14.8157 19.9951 14.6122 20.0909 14.4 20.0909H8.8C8.58783 20.0909 8.38434 19.9951 8.23431 19.8246C8.08429 19.6542 8 19.4229 8 19.1818ZM8 22.8182C8 22.5771 8.08429 22.3458 8.23431 22.1754C8.38434 22.0049 8.58783 21.9091 8.8 21.9091H10.4C10.6122 21.9091 10.8157 22.0049 10.9657 22.1754C11.1157 22.3458 11.2 22.5771 11.2 22.8182C11.2 23.0593 11.1157 23.2905 10.9657 23.461C10.8157 23.6315 10.6122 23.7273 10.4 23.7273H8.8C8.58783 23.7273 8.38434 23.6315 8.23431 23.461C8.08429 23.2905 8 23.0593 8 22.8182Z" fill="white"/>
</svg>
