<svg width="39" height="39" viewBox="0 0 39 39" fill="none" xmlns="http://www.w3.org/2000/svg">
<circle cx="19.5" cy="19.5" r="19.5" fill="#E7FBE6"/>
<path d="M32.768 17.5636L29.568 13.9273C29.4953 13.8381 29.4075 13.7664 29.3099 13.7164C29.2124 13.6664 29.107 13.6392 29 13.6364H23.4V10.9091C23.4 10.668 23.3157 10.4368 23.1657 10.2663C23.0157 10.0958 22.8122 10 22.6 10H9.8C9.58783 10 9.38434 10.0958 9.23431 10.2663C9.08429 10.4368 9 10.668 9 10.9091C9 11.1502 9.08429 11.3814 9.23431 11.5519C9.38434 11.7224 9.58783 11.8182 9.8 11.8182H21.8V24.5455H16.568C16.512 24.4364 16.448 24.3364 16.384 24.2273L16.344 24.1636C16.2533 24.0231 16.1516 23.8923 16.04 23.7727L15.944 23.6727C15.865 23.5891 15.7822 23.5102 15.696 23.4364L15.56 23.3636L15.312 23.1909L15.152 23.1L14.888 22.9818L14.72 22.9182L14.416 22.8273H14.272C13.9596 22.7667 13.6404 22.7667 13.328 22.8273H13.176L12.88 22.9L12.704 22.9727L12.464 23.0818L12.272 23.1909L12.072 23.3273C12.0076 23.3705 11.9461 23.4191 11.888 23.4727L11.736 23.6364L11.536 23.8364V23.8818C11.3794 24.0682 11.24 24.2723 11.12 24.4909L11.032 24.5455H9.8C9.58783 24.5455 9.38434 24.6412 9.23431 24.8117C9.08429 24.9822 9 25.2134 9 25.4545C9 25.6957 9.08429 25.9269 9.23431 26.0974C9.38434 26.2679 9.58783 26.3636 9.8 26.3636H10.6C10.6 27.3281 10.9371 28.253 11.5373 28.9349C12.1374 29.6169 12.9513 30 13.8 30C14.6487 30 15.4626 29.6169 16.0627 28.9349C16.6629 28.253 17 27.3281 17 26.3636H24.2C24.2 27.3281 24.5371 28.253 25.1373 28.9349C25.7374 29.6169 26.5513 30 27.4 30C28.2487 30 29.0626 29.6169 29.6627 28.9349C30.2629 28.253 30.6 27.3281 30.6 26.3636H32.2C32.4122 26.3636 32.6157 26.2679 32.7657 26.0974C32.9157 25.9269 33 25.6957 33 25.4545V18.1818C32.9912 17.9506 32.9087 17.7309 32.768 17.5636ZM13.8 28.1818C13.3757 28.1818 12.9687 27.9903 12.6686 27.6493C12.3686 27.3083 12.2 26.8458 12.2 26.3636C12.1995 26.1519 12.2348 25.9421 12.304 25.7455C12.4153 25.3955 12.6185 25.0928 12.886 24.8782C13.1535 24.6636 13.4725 24.5475 13.8 24.5455C14.1341 24.5464 14.4595 24.6661 14.7307 24.8878C15.0018 25.1095 15.2051 25.4222 15.312 25.7818C15.371 25.9684 15.4008 26.1653 15.4 26.3636C15.4 26.8458 15.2314 27.3083 14.9314 27.6493C14.6313 27.9903 14.2243 28.1818 13.8 28.1818ZM27.4 28.1818C26.9757 28.1818 26.5687 27.9903 26.2686 27.6493C25.9686 27.3083 25.8 26.8458 25.8 26.3636C25.7995 26.1519 25.8348 25.9421 25.904 25.7455C26.0153 25.3955 26.2185 25.0928 26.486 24.8782C26.7535 24.6636 27.0725 24.5475 27.4 24.5455C27.7341 24.5464 28.0595 24.6661 28.3307 24.8878C28.6018 25.1095 28.8051 25.4222 28.912 25.7818C28.971 25.9684 29.0008 26.1653 29 26.3636C29 26.8458 28.8314 27.3083 28.5314 27.6493C28.2313 27.9903 27.8243 28.1818 27.4 28.1818ZM31.4 24.5455H30.168C30.112 24.4364 30.048 24.3364 29.984 24.2273L29.944 24.1636C29.8533 24.0231 29.7516 23.8923 29.64 23.7727L29.544 23.6727C29.465 23.5891 29.3822 23.5102 29.296 23.4364L29.16 23.3364L28.912 23.1636L28.752 23.0727L28.488 22.9545L28.32 22.8909L28.016 22.8H27.872C27.5596 22.7395 27.2404 22.7395 26.928 22.8H26.776L26.48 22.8727L26.304 22.9455L26.064 23.0545L25.872 23.1636L25.672 23.3C25.6076 23.3432 25.5461 23.3918 25.488 23.4455L25.336 23.5818L25.136 23.7818V23.8273C24.9794 24.0136 24.84 24.2177 24.72 24.4364L24.664 24.5364H23.4V15.4545H28.672L31.4 18.5818V24.5455ZM9 14.5455C9 14.3043 9.08429 14.0731 9.23431 13.9026C9.38434 13.7321 9.58783 13.6364 9.8 13.6364H17.8C18.0122 13.6364 18.2157 13.7321 18.3657 13.9026C18.5157 14.0731 18.6 14.3043 18.6 14.5455C18.6 14.7866 18.5157 15.0178 18.3657 15.1883C18.2157 15.3588 18.0122 15.4545 17.8 15.4545H9.8C9.58783 15.4545 9.38434 15.3588 9.23431 15.1883C9.08429 15.0178 9 14.7866 9 14.5455ZM9 18.1818C9 17.9407 9.08429 17.7095 9.23431 17.539C9.38434 17.3685 9.58783 17.2727 9.8 17.2727H15.4C15.6122 17.2727 15.8157 17.3685 15.9657 17.539C16.1157 17.7095 16.2 17.9407 16.2 18.1818C16.2 18.4229 16.1157 18.6542 15.9657 18.8246C15.8157 18.9951 15.6122 19.0909 15.4 19.0909H9.8C9.58783 19.0909 9.38434 18.9951 9.23431 18.8246C9.08429 18.6542 9 18.4229 9 18.1818ZM9 21.8182C9 21.5771 9.08429 21.3458 9.23431 21.1754C9.38434 21.0049 9.58783 20.9091 9.8 20.9091H11.4C11.6122 20.9091 11.8157 21.0049 11.9657 21.1754C12.1157 21.3458 12.2 21.5771 12.2 21.8182C12.2 22.0593 12.1157 22.2905 11.9657 22.461C11.8157 22.6315 11.6122 22.7273 11.4 22.7273H9.8C9.58783 22.7273 9.38434 22.6315 9.23431 22.461C9.08429 22.2905 9 22.0593 9 21.8182Z" fill="#68E365"/>
</svg>
