<svg width="39" height="39" viewBox="0 0 39 39" fill="none" xmlns="http://www.w3.org/2000/svg">
<circle cx="19.5" cy="19.5" r="19.5" fill="#8D4CF6"/>
<path d="M31.768 17.5636L28.568 13.9273C28.4953 13.8381 28.4075 13.7664 28.3099 13.7164C28.2124 13.6664 28.107 13.6392 28 13.6364H22.4V10.9091C22.4 10.668 22.3157 10.4368 22.1657 10.2663C22.0157 10.0958 21.8122 10 21.6 10H8.8C8.58783 10 8.38434 10.0958 8.23431 10.2663C8.08429 10.4368 8 10.668 8 10.9091C8 11.1502 8.08429 11.3814 8.23431 11.5519C8.38434 11.7224 8.58783 11.8182 8.8 11.8182H20.8V24.5455H15.568C15.512 24.4364 15.448 24.3364 15.384 24.2273L15.344 24.1636C15.2533 24.0231 15.1516 23.8923 15.04 23.7727L14.944 23.6727C14.865 23.5891 14.7822 23.5102 14.696 23.4364L14.56 23.3636L14.312 23.1909L14.152 23.1L13.888 22.9818L13.72 22.9182L13.416 22.8273H13.272C12.9596 22.7667 12.6404 22.7667 12.328 22.8273H12.176L11.88 22.9L11.704 22.9727L11.464 23.0818L11.272 23.1909L11.072 23.3273C11.0076 23.3705 10.9461 23.4191 10.888 23.4727L10.736 23.6364L10.536 23.8364V23.8818C10.3794 24.0682 10.24 24.2723 10.12 24.4909L10.032 24.5455H8.8C8.58783 24.5455 8.38434 24.6412 8.23431 24.8117C8.08429 24.9822 8 25.2134 8 25.4545C8 25.6957 8.08429 25.9269 8.23431 26.0974C8.38434 26.2679 8.58783 26.3636 8.8 26.3636H9.6C9.6 27.3281 9.93714 28.253 10.5373 28.9349C11.1374 29.6169 11.9513 30 12.8 30C13.6487 30 14.4626 29.6169 15.0627 28.9349C15.6629 28.253 16 27.3281 16 26.3636H23.2C23.2 27.3281 23.5371 28.253 24.1373 28.9349C24.7374 29.6169 25.5513 30 26.4 30C27.2487 30 28.0626 29.6169 28.6627 28.9349C29.2629 28.253 29.6 27.3281 29.6 26.3636H31.2C31.4122 26.3636 31.6157 26.2679 31.7657 26.0974C31.9157 25.9269 32 25.6957 32 25.4545V18.1818C31.9912 17.9506 31.9087 17.7309 31.768 17.5636ZM12.8 28.1818C12.3757 28.1818 11.9687 27.9903 11.6686 27.6493C11.3686 27.3083 11.2 26.8458 11.2 26.3636C11.1995 26.1519 11.2348 25.9421 11.304 25.7455C11.4153 25.3955 11.6185 25.0928 11.886 24.8782C12.1535 24.6636 12.4725 24.5475 12.8 24.5455C13.1341 24.5464 13.4595 24.6661 13.7307 24.8878C14.0018 25.1095 14.2051 25.4222 14.312 25.7818C14.371 25.9684 14.4008 26.1653 14.4 26.3636C14.4 26.8458 14.2314 27.3083 13.9314 27.6493C13.6313 27.9903 13.2243 28.1818 12.8 28.1818ZM26.4 28.1818C25.9757 28.1818 25.5687 27.9903 25.2686 27.6493C24.9686 27.3083 24.8 26.8458 24.8 26.3636C24.7995 26.1519 24.8348 25.9421 24.904 25.7455C25.0153 25.3955 25.2185 25.0928 25.486 24.8782C25.7535 24.6636 26.0725 24.5475 26.4 24.5455C26.7341 24.5464 27.0595 24.6661 27.3307 24.8878C27.6018 25.1095 27.8051 25.4222 27.912 25.7818C27.971 25.9684 28.0008 26.1653 28 26.3636C28 26.8458 27.8314 27.3083 27.5314 27.6493C27.2313 27.9903 26.8243 28.1818 26.4 28.1818ZM30.4 24.5455H29.168C29.112 24.4364 29.048 24.3364 28.984 24.2273L28.944 24.1636C28.8533 24.0231 28.7516 23.8923 28.64 23.7727L28.544 23.6727C28.465 23.5891 28.3822 23.5102 28.296 23.4364L28.16 23.3364L27.912 23.1636L27.752 23.0727L27.488 22.9545L27.32 22.8909L27.016 22.8H26.872C26.5596 22.7395 26.2404 22.7395 25.928 22.8H25.776L25.48 22.8727L25.304 22.9455L25.064 23.0545L24.872 23.1636L24.672 23.3C24.6076 23.3432 24.5461 23.3918 24.488 23.4455L24.336 23.5818L24.136 23.7818V23.8273C23.9794 24.0136 23.84 24.2177 23.72 24.4364L23.664 24.5364H22.4V15.4545H27.672L30.4 18.5818V24.5455ZM8 14.5455C8 14.3043 8.08429 14.0731 8.23431 13.9026C8.38434 13.7321 8.58783 13.6364 8.8 13.6364H16.8C17.0122 13.6364 17.2157 13.7321 17.3657 13.9026C17.5157 14.0731 17.6 14.3043 17.6 14.5455C17.6 14.7866 17.5157 15.0178 17.3657 15.1883C17.2157 15.3588 17.0122 15.4545 16.8 15.4545H8.8C8.58783 15.4545 8.38434 15.3588 8.23431 15.1883C8.08429 15.0178 8 14.7866 8 14.5455ZM8 18.1818C8 17.9407 8.08429 17.7095 8.23431 17.539C8.38434 17.3685 8.58783 17.2727 8.8 17.2727H14.4C14.6122 17.2727 14.8157 17.3685 14.9657 17.539C15.1157 17.7095 15.2 17.9407 15.2 18.1818C15.2 18.4229 15.1157 18.6542 14.9657 18.8246C14.8157 18.9951 14.6122 19.0909 14.4 19.0909H8.8C8.58783 19.0909 8.38434 18.9951 8.23431 18.8246C8.08429 18.6542 8 18.4229 8 18.1818ZM8 21.8182C8 21.5771 8.08429 21.3458 8.23431 21.1754C8.38434 21.0049 8.58783 20.9091 8.8 20.9091H10.4C10.6122 20.9091 10.8157 21.0049 10.9657 21.1754C11.1157 21.3458 11.2 21.5771 11.2 21.8182C11.2 22.0593 11.1157 22.2905 10.9657 22.461C10.8157 22.6315 10.6122 22.7273 10.4 22.7273H8.8C8.58783 22.7273 8.38434 22.6315 8.23431 22.461C8.08429 22.2905 8 22.0593 8 21.8182Z" fill="white"/>
</svg>
