<svg width="10" height="10" viewBox="0 0 10 10" fill="none" xmlns="http://www.w3.org/2000/svg">
<path d="M9.43924 2.69223C9.42483 2.66444 9.40509 2.63976 9.38113 2.61961C9.35718 2.59946 9.32949 2.58423 9.29964 2.5748C9.2698 2.56536 9.23838 2.5619 9.2072 2.56462C9.17602 2.56734 9.14567 2.57618 9.11791 2.59063C9.09015 2.60509 9.06551 2.62488 9.0454 2.64887C9.02529 2.67286 9.01011 2.70058 9.00073 2.73044C8.99135 2.7603 8.98795 2.79172 8.99072 2.8229C8.99349 2.85408 9.00239 2.88441 9.01689 2.91214C9.46378 3.76519 9.62569 4.73894 9.47891 5.6907C9.33212 6.64246 8.88435 7.52218 8.20123 8.20095C6.43705 9.96475 3.56659 9.96513 1.80204 8.20095C1.76875 8.16762 1.72631 8.14491 1.68011 8.1357C1.6339 8.1265 1.58601 8.13121 1.54248 8.14923C1.49895 8.16726 1.46176 8.1978 1.43559 8.23698C1.40943 8.27616 1.39548 8.32222 1.39551 8.36933V9.57385C1.39551 9.63701 1.4206 9.69758 1.46526 9.74225C1.50992 9.78691 1.5705 9.812 1.63366 9.812C1.69682 9.812 1.75739 9.78691 1.80206 9.74225C1.84672 9.69758 1.87181 9.63701 1.87181 9.57385V8.90257C2.83349 9.67187 4.04486 10.0599 5.27454 9.99263C6.50422 9.92532 7.66601 9.40737 8.53799 8.53771C10.0897 6.98601 10.4519 4.63688 9.43924 2.69223Z" fill="#857C7C"/>
<path d="M1.80215 1.80165C2.22231 1.38143 2.72112 1.04809 3.27011 0.820669C3.8191 0.593245 4.40751 0.47619 5.00175 0.47619C5.59598 0.47619 6.18439 0.593245 6.73338 0.820669C7.28237 1.04809 7.78119 1.38143 8.20134 1.80165C8.23463 1.83498 8.27707 1.85769 8.32327 1.8669C8.36947 1.87611 8.41737 1.8714 8.4609 1.85337C8.50442 1.83534 8.54162 1.8048 8.56779 1.76562C8.59395 1.72644 8.6079 1.68038 8.60787 1.63327V0.428755C8.60787 0.365594 8.58278 0.305019 8.53812 0.260357C8.49346 0.215695 8.43288 0.190604 8.36972 0.190604C8.30656 0.190604 8.24598 0.215695 8.20132 0.260357C8.15666 0.305019 8.13157 0.365594 8.13157 0.428755V1.09966C7.23626 0.381771 6.12135 -0.00645732 4.97379 8.12616e-05C3.82623 0.00661985 2.71581 0.407528 1.82874 1.13558C0.941675 1.86362 0.331908 2.87454 0.101695 3.99879C-0.128518 5.12304 0.0348227 6.29226 0.564326 7.31038C0.593489 7.36638 0.643706 7.40851 0.703929 7.42749C0.764153 7.44647 0.82945 7.44075 0.885457 7.41159C0.941463 7.38243 0.983591 7.33221 1.00257 7.27199C1.02155 7.21176 1.01583 7.14647 0.98667 7.09046C0.539712 6.23745 0.37774 5.26369 0.524493 4.31192C0.671247 3.36015 1.11901 2.48041 1.80215 1.80165Z" fill="#857C7C"/>
<path d="M5.0018 1.33374C4.50226 1.33431 4.02334 1.533 3.67011 1.88623C3.31688 2.23946 3.11818 2.71838 3.11761 3.21792V4.16104H2.82998C2.6153 4.16126 2.40947 4.24664 2.25767 4.39844C2.10587 4.55024 2.02049 4.75607 2.02026 4.97075V7.28751C2.02049 7.50219 2.10587 7.70802 2.25767 7.85982C2.40947 8.01162 2.6153 8.097 2.82998 8.09722H7.17381C7.38849 8.097 7.59431 8.01162 7.74612 7.85982C7.89792 7.70802 7.9833 7.50219 7.98352 7.28751V4.97075C7.9833 4.75607 7.89792 4.55024 7.74612 4.39844C7.59431 4.24664 7.38849 4.16126 7.17381 4.16104H6.88617V3.21792C6.88559 2.71835 6.68687 2.23941 6.3336 1.88618C5.98033 1.53294 5.50137 1.33427 5.0018 1.33374ZM3.59392 3.21792C3.59392 2.84451 3.74226 2.48638 4.0063 2.22234C4.27035 1.95829 4.62847 1.80995 5.00189 1.80995C5.37531 1.80995 5.73343 1.95829 5.99748 2.22234C6.26152 2.48638 6.40986 2.84451 6.40986 3.21792V4.16104H3.59392V3.21792ZM7.50721 4.97075V7.28751C7.5071 7.37591 7.47194 7.46065 7.40944 7.52315C7.34694 7.58565 7.26219 7.62082 7.1738 7.62092H2.82998C2.74158 7.62082 2.65684 7.58565 2.59434 7.52315C2.53183 7.46065 2.49667 7.37591 2.49657 7.28751V4.97075C2.49667 4.88236 2.53183 4.79761 2.59434 4.73511C2.65684 4.67261 2.74158 4.63744 2.82998 4.63734H7.17381C7.2622 4.63744 7.34695 4.67261 7.40945 4.73511C7.47195 4.79761 7.5071 4.88236 7.50721 4.97075Z" fill="#857C7C"/>
<path d="M6.52586 6.60544C6.78892 6.60544 7.00216 6.39219 7.00216 6.12913C7.00216 5.86608 6.78892 5.65283 6.52586 5.65283C6.26281 5.65283 6.04956 5.86608 6.04956 6.12913C6.04956 6.39219 6.26281 6.60544 6.52586 6.60544Z" fill="#857C7C"/>
<path d="M5.00169 6.60544C5.26475 6.60544 5.47799 6.39219 5.47799 6.12913C5.47799 5.86608 5.26475 5.65283 5.00169 5.65283C4.73864 5.65283 4.52539 5.86608 4.52539 6.12913C4.52539 6.39219 4.73864 6.60544 5.00169 6.60544Z" fill="#857C7C"/>
<path d="M3.47752 6.60544C3.74058 6.60544 3.95382 6.39219 3.95382 6.12913C3.95382 5.86608 3.74058 5.65283 3.47752 5.65283C3.21447 5.65283 3.00122 5.86608 3.00122 6.12913C3.00122 6.39219 3.21447 6.60544 3.47752 6.60544Z" fill="#857C7C"/>
</svg>
