<svg width="50" height="50" viewBox="0 0 50 50" fill="none" xmlns="http://www.w3.org/2000/svg">
<circle cx="25" cy="25" r="25" fill="#2A11C0" fill-opacity="0.1"/>
<path d="M17.6733 30.3807C17.6733 30.5969 17.4976 30.7726 17.2813 30.7726C13.9904 30.7726 11.3144 28.0966 11.3144 24.8057C11.3144 24.5895 11.4901 24.4138 11.7064 24.4138C11.9226 24.4138 12.0983 24.5895 12.0983 24.8057C12.0983 27.6642 14.4229 29.9887 17.2813 29.9887C17.4976 29.9887 17.6733 30.1644 17.6733 30.3807ZM35.3138 33.7729L34.3643 33.3945C34.3576 33.3911 34.3508 33.3911 34.3474 33.3878L33.5737 33.1208C33.2493 33.0093 33.1311 32.6816 33.1311 32.4113C33.1311 31.8977 33.6379 31.4788 34.2596 31.4788C34.7461 31.4788 35.1888 31.7491 35.3374 32.1376C35.4151 32.3404 35.6415 32.4417 35.8409 32.364C36.0436 32.2863 36.1449 32.0599 36.0672 31.8606C35.8409 31.2659 35.28 30.8402 34.611 30.7253V29.7961C34.611 29.5799 34.4353 29.4042 34.2191 29.4042C34.0028 29.4042 33.8271 29.5799 33.8271 29.7961V30.7422C32.979 30.9179 32.3472 31.6004 32.3472 32.4147C32.3472 33.0938 32.729 33.6614 33.3169 33.8642L34.0839 34.1277L35.0232 34.5028C35.2867 34.6075 35.307 34.9893 35.307 35.1042C35.307 35.6177 34.8002 36.0367 34.1785 36.0367C33.692 36.0367 33.2493 35.7664 33.1007 35.3779C33.023 35.1751 32.7966 35.0738 32.5972 35.1515C32.3945 35.2292 32.2932 35.4556 32.3709 35.6549C32.5973 36.2496 33.1581 36.6753 33.8271 36.7902V37.7227C33.8271 37.939 34.0028 38.1147 34.2191 38.1147C34.4353 38.1147 34.611 37.939 34.611 37.7227V36.7767C35.4591 36.601 36.0909 35.9185 36.0909 35.1042C36.0909 34.4656 35.8003 33.9655 35.3138 33.7729ZM40.4596 33.7594C40.4596 37.199 37.662 40 34.2191 40C32.8676 40 31.614 39.5675 30.5903 38.8343C29.5631 39.0033 28.4076 39.0911 27.2352 39.0911C23.5692 39.0911 19.8593 38.2262 19.8593 36.5739V32.6715C19.0282 32.9452 18.1632 33.0837 17.278 33.0837C12.7133 33.0837 9 29.3704 9 24.8057C9 23.6096 9.25003 22.4575 9.73995 21.3797C10.7975 19.0585 12.5105 16.4264 14.1695 13.8856C14.9196 12.7334 15.6291 11.6455 16.2812 10.5845C16.511 10.2129 16.8894 10 17.3286 10C17.7645 10 18.1463 10.2129 18.3727 10.5845C18.9369 11.5002 19.5654 12.4665 20.231 13.4869C22.0082 16.2237 23.8429 19.0483 24.8396 21.4303C25.6134 21.3459 26.4243 21.3053 27.2318 21.3053C30.8977 21.3053 34.6076 22.1703 34.6076 23.8225V27.5324C37.8715 27.7351 40.4596 30.4482 40.4596 33.7594ZM28.884 30.5293C28.3468 30.5699 27.796 30.5868 27.2385 30.5868C24.5964 30.5868 21.9271 30.1374 20.6466 29.2657V32.3201C20.6466 33.0262 23.2144 34.0534 27.2385 34.0534C27.4886 34.0534 27.7386 34.05 27.9886 34.0399C27.9852 33.9453 27.9819 33.8507 27.9819 33.7561C27.9819 32.5769 28.3096 31.472 28.884 30.5293ZM33.8305 27.5324V25.0152C32.5499 25.8869 29.8841 26.3363 27.2385 26.3363C24.593 26.3363 21.9271 25.8869 20.6466 25.0152V28.0696C20.6466 28.7758 23.2144 29.8029 27.2385 29.8029C28.0123 29.8029 28.7725 29.7624 29.4956 29.688C30.5599 28.4514 32.1006 27.6405 33.8305 27.5324ZM27.2385 22.0858C23.2144 22.0858 20.6466 23.113 20.6466 23.8191C20.6466 24.5253 23.2144 25.5524 27.2385 25.5524C31.2626 25.5524 33.8305 24.5253 33.8305 23.8191C33.8305 23.113 31.2626 22.0858 27.2385 22.0858ZM17.2813 32.2998C18.17 32.2998 19.0383 32.1444 19.8627 31.8437V23.8191C19.8627 22.6602 21.6872 21.8899 24.0389 21.5317C23.0523 19.2544 21.2885 16.5413 19.5789 13.9126C18.9133 12.8855 18.2814 11.9158 17.7104 10.9934C17.626 10.8548 17.4942 10.7805 17.332 10.7805C17.1698 10.7805 17.0381 10.8548 16.9536 10.9934C16.2981 12.061 15.5852 13.1524 14.8317 14.3113C13.1897 16.8285 11.4901 19.4335 10.4596 21.704C10.0136 22.6805 9.79063 23.7245 9.79063 24.8057C9.78725 28.9379 13.1491 32.2998 17.2813 32.2998ZM27.2385 38.3039C28.1204 38.3039 28.9887 38.2532 29.7963 38.1518C28.911 37.2632 28.2927 36.1077 28.0731 34.8204C27.796 34.8305 27.5156 34.8373 27.2385 34.8373C24.5964 34.8373 21.9271 34.3879 20.6466 33.5162V36.5706C20.6466 37.2767 23.2144 38.3039 27.2385 38.3039ZM39.6758 33.7594C39.6758 30.7523 37.2295 28.3027 34.2191 28.3027C31.212 28.3027 28.7624 30.749 28.7624 33.7594C28.7624 36.7699 31.2086 39.2161 34.2191 39.2161C37.2295 39.2161 39.6758 36.7665 39.6758 33.7594ZM26.9074 12.73H32.9182V17.0582C32.9182 17.2745 33.0939 17.4502 33.3102 17.4502H33.6244L32.4722 19.0686L31.3201 17.4502H31.6343C31.8505 17.4502 32.0262 17.2745 32.0262 17.0582V14.0173C32.0262 13.8011 31.8505 13.6254 31.6343 13.6254H31.0227C30.8065 13.6254 30.6308 13.8011 30.6308 14.0173C30.6308 14.2336 30.8065 14.4093 31.0227 14.4093H31.2424V16.6697H30.5599C30.4146 16.6697 30.2794 16.7508 30.2118 16.8825C30.1443 17.0143 30.1544 17.1697 30.2423 17.288L32.1546 19.9741C32.229 20.0788 32.3472 20.1397 32.4722 20.1397C32.5973 20.1397 32.7189 20.0788 32.7898 19.9741L34.7022 17.288C34.7867 17.1697 34.8002 17.0109 34.7326 16.8825C34.665 16.7508 34.5299 16.6697 34.3846 16.6697H33.7021V12.3381C33.7021 12.1219 33.5264 11.9462 33.3102 11.9462H26.9074C26.6912 11.9462 26.5155 12.1219 26.5155 12.3381C26.5155 12.5543 26.6912 12.73 26.9074 12.73ZM26.9074 14.4093H27.0662C27.2825 14.4093 27.4582 14.2336 27.4582 14.0173C27.4582 13.8011 27.2825 13.6254 27.0662 13.6254H26.9074C26.6912 13.6254 26.5155 13.8011 26.5155 14.0173C26.5155 14.2336 26.6912 14.4093 26.9074 14.4093ZM28.286 13.6254C28.0697 13.6254 27.894 13.8011 27.894 14.0173C27.894 14.2336 28.0697 14.4093 28.286 14.4093H28.4448C28.661 14.4093 28.8367 14.2336 28.8367 14.0173C28.8367 13.8011 28.661 13.6254 28.4448 13.6254H28.286ZM29.8233 13.6254H29.6645C29.4482 13.6254 29.2726 13.8011 29.2726 14.0173C29.2726 14.2336 29.4482 14.4093 29.6645 14.4093H29.8233C30.0395 14.4093 30.2152 14.2336 30.2152 14.0173C30.2152 13.8011 30.0395 13.6254 29.8233 13.6254Z" fill="#2A11C0"/>
</svg>
