<svg width="39" height="39" viewBox="0 0 39 39" fill="none" xmlns="http://www.w3.org/2000/svg">
<circle cx="19.5" cy="19.5" r="19.5" fill="#F9607C"/>
<path d="M11.041 27.5861V25.85C11.041 25.6223 10.8682 25.436 10.657 25.436C10.4458 25.436 10.2729 25.6223 10.2729 25.85V27.5861C10.2729 27.8138 10.4458 28.0001 10.657 28.0001C10.8682 28.0001 11.041 27.8138 11.041 27.5861Z" fill="white"/>
<path d="M15.1958 27.5861V25.85C15.1958 25.6223 15.023 25.436 14.8118 25.436C14.6006 25.436 14.4277 25.6223 14.4277 25.85V27.5861C14.4277 27.8138 14.6006 28.0001 14.8118 28.0001C15.023 28.0001 15.1958 27.8138 15.1958 27.5861Z" fill="white"/>
<path d="M12.7357 21.2807C14.0126 21.2807 15.0543 20.1604 15.0543 18.7814C15.0543 17.9379 14.6631 17.1953 14.0678 16.7426C14.1902 16.6468 14.3174 16.5589 14.447 16.4812C15.6184 15.7801 17.1185 15.7801 18.2898 16.4812C18.4218 16.5615 18.549 16.6494 18.6715 16.7452C18.0762 17.1979 17.685 17.9405 17.685 18.784C17.685 20.1604 18.7243 21.2833 20.0036 21.2833C21.2805 21.2833 22.3222 20.163 22.3222 18.784C22.3222 17.9405 21.931 17.1979 21.3357 16.7452C21.4581 16.6494 21.5854 16.5615 21.715 16.4812C22.8863 15.7801 24.384 15.7775 25.5577 16.4812C25.6898 16.5589 25.8146 16.6494 25.937 16.7426C25.3417 17.1953 24.9505 17.9379 24.9505 18.7814C24.9505 20.1578 25.9898 21.2807 27.2691 21.2807C28.546 21.2807 29.5878 20.1604 29.5878 18.7814C29.5878 17.4049 28.5484 16.282 27.2691 16.282C27.0795 16.282 26.8971 16.3131 26.7219 16.3596C26.4746 16.1294 26.213 15.9224 25.9322 15.7542C24.5304 14.9159 22.7423 14.9159 21.3429 15.7542C21.0597 15.9224 20.8005 16.132 20.5532 16.3596C20.3756 16.3131 20.1956 16.282 20.0036 16.282C19.814 16.282 19.6316 16.3131 19.4539 16.3596C19.2091 16.132 18.9475 15.9224 18.6643 15.7542C17.2625 14.9159 15.4719 14.9159 14.075 15.7542C13.7918 15.9224 13.5301 16.132 13.2853 16.3596C13.1101 16.3131 12.9277 16.282 12.7381 16.282C11.4611 16.282 10.4194 17.4023 10.4194 18.7814C10.417 20.1604 11.4563 21.2807 12.7357 21.2807ZM28.8173 18.7814C28.8173 19.7025 28.1212 20.4502 27.2691 20.4502C26.4146 20.4502 25.721 19.7025 25.721 18.7814C25.721 17.8603 26.4146 17.1126 27.2691 17.1126C28.1212 17.1126 28.8173 17.8603 28.8173 18.7814ZM21.5493 18.7814C21.5493 19.7025 20.8533 20.4502 20.0012 20.4502C19.1467 20.4502 18.453 19.7025 18.453 18.7814C18.453 17.8603 19.1467 17.1126 20.0012 17.1126C20.8557 17.1126 21.5493 17.8603 21.5493 18.7814ZM12.7357 17.1126C13.5902 17.1126 14.2838 17.8629 14.2838 18.7814C14.2838 19.7025 13.5878 20.4502 12.7357 20.4502C11.8812 20.4502 11.1875 19.7025 11.1875 18.7814C11.1875 17.8603 11.8812 17.1126 12.7357 17.1126Z" fill="white"/>
<path d="M18.3091 27.5861V25.85C18.3091 25.6223 18.1363 25.436 17.9251 25.436C17.7138 25.436 17.541 25.6223 17.541 25.85V27.5861C17.541 27.8138 17.7138 28.0001 17.9251 28.0001C18.1363 28.0001 18.3091 27.8138 18.3091 27.5861Z" fill="white"/>
<path d="M22.4614 27.5861V25.85C22.4614 25.6223 22.2886 25.436 22.0774 25.436C21.8662 25.436 21.6934 25.6223 21.6934 25.85V27.5861C21.6934 27.8138 21.8662 28.0001 22.0774 28.0001C22.2886 28.0001 22.4614 27.8138 22.4614 27.5861Z" fill="white"/>
<path d="M16.3672 14.9987C17.6441 14.9987 18.6858 13.8784 18.6858 12.4994C18.6858 11.1229 17.6465 10 16.3672 10C15.0903 10 14.0486 11.1203 14.0486 12.4994C14.051 13.8784 15.0903 14.9987 16.3672 14.9987ZM16.3672 10.8305C17.2217 10.8305 17.9154 11.5783 17.9154 12.4994C17.9154 13.4204 17.2193 14.1682 16.3672 14.1682C15.5127 14.1682 14.8191 13.4204 14.8191 12.4994C14.8191 11.5809 15.5151 10.8305 16.3672 10.8305Z" fill="white"/>
<path d="M23.635 14.9987C24.912 14.9987 25.9537 13.8784 25.9537 12.4994C25.9537 11.1229 24.9144 10 23.635 10C22.3581 10 21.3164 11.1203 21.3164 12.4994C21.3164 13.8784 22.3557 14.9987 23.635 14.9987ZM23.635 10.8305C24.4895 10.8305 25.1832 11.5783 25.1832 12.4994C25.1832 13.4204 24.4871 14.1682 23.635 14.1682C22.7806 14.1682 22.0869 13.4204 22.0869 12.4994C22.0845 11.5809 22.7806 10.8305 23.635 10.8305Z" fill="white"/>
<path d="M29.5614 22.0362C28.1596 21.1979 26.369 21.1979 24.9721 22.0362C24.4512 22.3467 24.0048 22.7606 23.6376 23.2367C23.2631 22.7529 22.8095 22.3441 22.2958 22.0362C20.8941 21.1979 19.1059 21.1979 17.7066 22.0362C17.1977 22.3415 16.7417 22.7503 16.3672 23.2341C15.9928 22.7503 15.5392 22.3415 15.0279 22.0362C13.6262 21.1979 11.838 21.1979 10.4386 22.0362C8.93609 22.9392 8 24.6494 8 26.5019V27.586C8 27.8137 8.17282 28 8.38404 28C8.59526 28 8.76808 27.8137 8.76808 27.586V26.5019C8.76808 24.9495 9.55055 23.5161 10.8131 22.7606C11.9844 22.0595 13.4821 22.0595 14.6559 22.7606C15.1479 23.0556 15.5728 23.467 15.9112 23.956C15.4959 24.7296 15.2655 25.5989 15.2655 26.5019V27.586C15.2655 27.8137 15.4383 28 15.6496 28C15.8608 28 16.0336 27.8137 16.0336 27.586V26.5019C16.0336 25.6636 16.2592 24.8512 16.6865 24.1552C16.6865 24.1552 16.6865 24.1552 16.6865 24.1526C17.0393 23.5756 17.5194 23.097 18.0786 22.7632C19.2499 22.0621 20.7477 22.0621 21.9214 22.7632C22.411 23.0556 22.8359 23.467 23.1695 23.9482C22.7591 24.7115 22.5311 25.5886 22.5311 26.5019V27.586C22.5311 27.8137 22.7039 28 22.9151 28C23.1263 28 23.2991 27.8137 23.2991 27.586V26.5019C23.2991 24.9495 24.0816 23.5161 25.3441 22.7606C26.5154 22.0595 28.0156 22.0569 29.1869 22.7606C30.447 23.5161 31.2319 24.9495 31.2319 26.5019V27.586C31.2319 27.8137 31.4047 28 31.616 28C31.8272 28 32 27.8137 32 27.586V26.5019C32.0024 24.6494 31.0663 22.9392 29.5614 22.0362Z" fill="white"/>
<path d="M25.1904 25.436C24.9792 25.436 24.8064 25.6223 24.8064 25.85V27.5861C24.8064 27.8138 24.9792 28.0001 25.1904 28.0001C25.4017 28.0001 25.5745 27.8138 25.5745 27.5861V25.85C25.5745 25.6197 25.4017 25.436 25.1904 25.436Z" fill="white"/>
<path d="M29.3455 25.436C29.1342 25.436 28.9614 25.6223 28.9614 25.85V27.5861C28.9614 27.8138 29.1342 28.0001 29.3455 28.0001C29.5567 28.0001 29.7295 27.8138 29.7295 27.5861V25.85C29.7295 25.6197 29.5567 25.436 29.3455 25.436Z" fill="white"/>
</svg>
