<svg width="39" height="39" viewBox="0 0 39 39" fill="none" xmlns="http://www.w3.org/2000/svg">
<circle cx="19.5" cy="19.5" r="19.5" fill="white" fill-opacity="0.1"/>
<path d="M26.2501 17H15.8334C15.6034 17 15.4167 17.1788 15.4167 17.4C15.4167 17.6212 15.6034 17.8 15.8334 17.8H26.2501C26.4801 17.8 26.6667 17.6212 26.6667 17.4C26.6667 17.1788 26.4801 17 26.2501 17Z" fill="white"/>
<path d="M15.8334 14.6H20.0001C20.2301 14.6 20.4167 14.4212 20.4167 14.2C20.4167 13.9788 20.2301 13.8 20.0001 13.8H15.8334C15.6034 13.8 15.4167 13.9788 15.4167 14.2C15.4167 14.4212 15.6034 14.6 15.8334 14.6Z" fill="white"/>
<path d="M26.2501 20.2H15.8334C15.6034 20.2 15.4167 20.3788 15.4167 20.6C15.4167 20.8212 15.6034 21 15.8334 21H26.2501C26.4801 21 26.6667 20.8212 26.6667 20.6C26.6667 20.3788 26.4801 20.2 26.2501 20.2Z" fill="white"/>
<path d="M26.2501 23.3999H15.8334C15.6034 23.3999 15.4167 23.5787 15.4167 23.7999C15.4167 24.0211 15.6034 24.1999 15.8334 24.1999H26.2501C26.4801 24.1999 26.6667 24.0211 26.6667 23.7999C26.6667 23.5787 26.4801 23.3999 26.2501 23.3999Z" fill="white"/>
<path d="M26.2501 26.6001H15.8334C15.6034 26.6001 15.4167 26.7789 15.4167 27.0001C15.4167 27.2213 15.6034 27.4001 15.8334 27.4001H26.2501C26.4801 27.4001 26.6667 27.2213 26.6667 27.0001C26.6667 26.7789 26.4801 26.6001 26.2501 26.6001Z" fill="white"/>
<path d="M27.9167 12.8344V7H10V29H12.0833V31H30V14.8344L27.9167 12.8344ZM24.1667 10.3656L27.9167 13.9656L28.5775 14.6H24.1667V10.3656ZM10.8333 28.2V7.8H27.0833V12.0344L23.9225 9H12.0833V28.2H10.8333ZM12.9167 30.2V29V9.8H23.3333V15.4H29.1667V30.2H12.9167Z" fill="white"/>
</svg>
