<svg width="39" height="39" viewBox="0 0 39 39" fill="none" xmlns="http://www.w3.org/2000/svg">
<circle cx="19.5" cy="19.5" r="19.5" fill="#FEE6EA"/>
<path d="M17.5012 32V28.2041C15.4489 27.9898 13.6247 27.102 12 25.5714L13.6247 23.4898C14.8789 24.6531 16.1615 25.3571 17.5012 25.5714V20.9184C15.8195 20.4898 14.5653 19.9082 13.7957 19.2041C13.0261 18.5 12.6271 17.4592 12.6271 16.051C12.6271 14.6735 13.0831 13.5408 13.9952 12.6531C14.9074 11.7653 16.076 11.2755 17.5297 11.2143V8H18.9549V11.2755C20.6081 11.398 22.1473 12.0102 23.6009 13.0816L22.1473 15.2857C21.1496 14.5204 20.095 14.0612 18.9549 13.8776V18.4082H19.0119C20.7221 18.8367 21.9762 19.4184 22.8029 20.1531C23.601 20.8878 24 21.9592 24 23.3673C24 24.7755 23.5439 25.9082 22.6033 26.7959C21.6912 27.6837 20.4656 28.1735 18.9264 28.2347V32H17.5012ZM15.905 14.4592C15.5344 14.8265 15.3349 15.2551 15.3349 15.8061C15.3349 16.3571 15.4774 16.7551 15.791 17.0918C16.076 17.398 16.6461 17.7041 17.5012 17.9796V13.8163C16.8171 13.8776 16.304 14.0918 15.905 14.4592ZM20.6366 24.9898C21.0641 24.6225 21.2637 24.1633 21.2637 23.5816C21.2637 23.0306 21.0926 22.5714 20.7791 22.2347C20.4371 21.898 19.8385 21.5918 18.9549 21.3163V25.6327C19.639 25.5714 20.209 25.3571 20.6366 24.9898Z" fill="#F72B50"/>
</svg>
