<svg width="39" height="39" viewBox="0 0 39 39" fill="none" xmlns="http://www.w3.org/2000/svg">
<circle cx="19.5" cy="19.5" r="19.5" fill="#4F817C"/>
<path d="M18.5012 32V28.2041C16.4489 27.9898 14.6247 27.102 13 25.5714L14.6247 23.4898C15.8789 24.6531 17.1615 25.3571 18.5012 25.5714V20.9184C16.8195 20.4898 15.5653 19.9082 14.7957 19.2041C14.0261 18.5 13.6271 17.4592 13.6271 16.051C13.6271 14.6735 14.0831 13.5408 14.9952 12.6531C15.9074 11.7653 17.076 11.2755 18.5297 11.2143V8H19.9549V11.2755C21.6081 11.398 23.1473 12.0102 24.6009 13.0816L23.1473 15.2857C22.1496 14.5204 21.095 14.0612 19.9549 13.8776V18.4082H20.0119C21.7221 18.8367 22.9762 19.4184 23.8029 20.1531C24.601 20.8878 25 21.9592 25 23.3673C25 24.7755 24.5439 25.9082 23.6033 26.7959C22.6912 27.6837 21.4656 28.1735 19.9264 28.2347V32H18.5012ZM16.905 14.4592C16.5344 14.8265 16.3349 15.2551 16.3349 15.8061C16.3349 16.3571 16.4774 16.7551 16.791 17.0918C17.076 17.398 17.6461 17.7041 18.5012 17.9796V13.8163C17.8171 13.8776 17.304 14.0918 16.905 14.4592ZM21.6366 24.9898C22.0641 24.6225 22.2637 24.1633 22.2637 23.5816C22.2637 23.0306 22.0926 22.5714 21.7791 22.2347C21.4371 21.898 20.8385 21.5918 19.9549 21.3163V25.6327C20.639 25.5714 21.209 25.3571 21.6366 24.9898Z" fill="white"/>
</svg>
