<svg width="6" height="12" viewBox="0 0 6 12" fill="none" xmlns="http://www.w3.org/2000/svg">
<path d="M2.75059 12V10.102C1.72447 9.9949 0.812352 9.55102 0 8.78572L0.812352 7.7449C1.43943 8.32653 2.08076 8.67857 2.75059 8.78572V6.45918C1.90974 6.2449 1.28266 5.95408 0.897862 5.60204C0.513064 5.25 0.313539 4.72959 0.313539 4.02551C0.313539 3.33674 0.541568 2.77041 0.997625 2.32653C1.45368 1.88265 2.03801 1.63776 2.76485 1.60714V0H3.47744V1.63776C4.30404 1.69898 5.07363 2.0051 5.80047 2.54082L5.07363 3.64286C4.57482 3.2602 4.04751 3.03061 3.47744 2.93878V5.20408H3.50594C4.36104 5.41837 4.98812 5.70918 5.40143 6.07653C5.80048 6.44388 6 6.97959 6 7.68367C6 8.38776 5.77197 8.95408 5.30166 9.39796C4.84561 9.84184 4.23278 10.0867 3.46318 10.1173V12H2.75059ZM1.95249 3.22959C1.76722 3.41327 1.66746 3.62755 1.66746 3.90306C1.66746 4.17857 1.73872 4.37755 1.89549 4.54592C2.038 4.69898 2.32304 4.85204 2.75059 4.9898V2.90816C2.40855 2.93878 2.15202 3.04592 1.95249 3.22959ZM4.31829 8.4949C4.53207 8.31123 4.63183 8.08163 4.63183 7.79082C4.63183 7.51531 4.54632 7.28572 4.38955 7.11735C4.21853 6.94898 3.91924 6.79592 3.47744 6.65816V8.81633C3.81948 8.78572 4.10451 8.67857 4.31829 8.4949Z" fill="#857C7C"/>
</svg>
