<svg width="50" height="50" viewBox="0 0 50 50" fill="none" xmlns="http://www.w3.org/2000/svg">
<circle cx="25" cy="25" r="25" fill="#2A11C0" fill-opacity="0.1"/>
<path d="M41 12H8.6C8.52119 12 8.44315 12.0129 8.37034 12.038C8.29752 12.0631 8.23136 12.0999 8.17563 12.1464C8.11991 12.1928 8.07572 12.2479 8.04558 12.3086C8.01544 12.3693 7.99995 12.4343 8 12.5V36.5C7.99995 36.5657 8.01544 36.6307 8.04558 36.6914C8.07572 36.7521 8.11991 36.8072 8.17563 36.8536C8.23136 36.9001 8.29752 36.9369 8.37034 36.962C8.44315 36.9871 8.52119 37 8.6 37H41C41.0788 37 41.1568 36.9871 41.2297 36.962C41.3025 36.9369 41.3686 36.9001 41.4244 36.8536C41.4801 36.8072 41.5243 36.7521 41.5544 36.6914C41.5846 36.6307 41.6 36.5657 41.6 36.5V12.5C41.6 12.4343 41.5846 12.3693 41.5544 12.3086C41.5243 12.2479 41.4801 12.1928 41.4244 12.1464C41.3686 12.0999 41.3025 12.0631 41.2297 12.038C41.1568 12.0129 41.0788 12 41 12ZM40.4 13V16H9.2V13H40.4ZM9.2 36V17H40.4V36H9.2ZM10.4 14.5C10.4 14.4343 10.4154 14.3693 10.4456 14.3086C10.4757 14.2479 10.5199 14.1928 10.5756 14.1464C10.6314 14.0999 10.6975 14.0631 10.7703 14.038C10.8432 14.0129 10.9212 14 11 14H18.2C18.3591 14 18.5117 14.0527 18.6243 14.1464C18.7368 14.2402 18.8 14.3674 18.8 14.5C18.8 14.6326 18.7368 14.7598 18.6243 14.8536C18.5117 14.9473 18.3591 15 18.2 15H11C10.9212 15 10.8432 14.9871 10.7703 14.962C10.6975 14.9369 10.6314 14.9001 10.5756 14.8536C10.5199 14.8072 10.4757 14.7521 10.4456 14.6914C10.4154 14.6307 10.4 14.5657 10.4 14.5ZM38 14.5C38 14.4011 38.0352 14.3044 38.1011 14.2222C38.167 14.14 38.2608 14.0759 38.3704 14.0381C38.48 14.0002 38.6007 13.9903 38.7171 14.0096C38.8334 14.0289 38.9404 14.0765 39.0243 14.1464C39.1082 14.2164 39.1653 14.3055 39.1885 14.4025C39.2116 14.4994 39.1997 14.6 39.1543 14.6913C39.1089 14.7827 39.032 14.8608 38.9333 14.9157C38.8347 14.9707 38.7187 15 38.6 15C38.4409 15 38.2883 14.9473 38.1757 14.8536C38.0632 14.7598 38 14.6326 38 14.5ZM28.4 31.5V28.5C28.4 28.3674 28.4632 28.2402 28.5757 28.1464C28.6883 28.0527 28.8409 28 29 28C29.1591 28 29.3117 28.0527 29.4243 28.1464C29.5368 28.2402 29.6 28.3674 29.6 28.5V31.5C29.6 31.6326 29.5368 31.7598 29.4243 31.8536C29.3117 31.9473 29.1591 32 29 32C28.8409 32 28.6883 31.9473 28.5757 31.8536C28.4632 31.7598 28.4 31.6326 28.4 31.5ZM32 26H17.6C17.5212 26 17.4432 26.0129 17.3703 26.038C17.2975 26.0631 17.2314 26.0999 17.1756 26.1464C17.1199 26.1928 17.0757 26.2479 17.0456 26.3086C17.0154 26.3693 17 26.4343 17 26.5V33.5C17 33.5657 17.0154 33.6307 17.0456 33.6914C17.0757 33.7521 17.1199 33.8072 17.1756 33.8536C17.2314 33.9001 17.2975 33.9369 17.3703 33.962C17.4432 33.9871 17.5212 34 17.6 34H32C32.0788 34 32.1568 33.9871 32.2297 33.962C32.3025 33.9369 32.3686 33.9001 32.4244 33.8536C32.4801 33.8072 32.5243 33.7521 32.5544 33.6914C32.5846 33.6307 32.6 33.5657 32.6 33.5V26.5C32.6 26.4343 32.5846 26.3693 32.5544 26.3086C32.5243 26.2479 32.4801 26.1928 32.4244 26.1464C32.3686 26.0999 32.3025 26.0631 32.2297 26.038C32.1568 26.0129 32.0788 26 32 26ZM31.4 33H18.2V27H31.4V33ZM20.6 32C20.6788 32 20.7568 31.9871 20.8297 31.962C20.9025 31.9369 20.9686 31.9001 21.0244 31.8536C21.0801 31.8072 21.1243 31.7521 21.1544 31.6914C21.1846 31.6307 21.2 31.5657 21.2 31.5V30.5H22.4V31.5C22.4 31.6326 22.4632 31.7598 22.5757 31.8536C22.6883 31.9473 22.8409 32 23 32C23.1591 32 23.3117 31.9473 23.4243 31.8536C23.5368 31.7598 23.6 31.6326 23.6 31.5V28.5C23.6 28.4343 23.5846 28.3693 23.5544 28.3086C23.5243 28.2479 23.4801 28.1928 23.4244 28.1464C23.3686 28.0999 23.3025 28.0631 23.2297 28.038C23.1568 28.0129 23.0788 28 23 28H20.6C20.5212 28 20.4432 28.0129 20.3703 28.038C20.2975 28.0631 20.2314 28.0999 20.1756 28.1464C20.1199 28.1928 20.0757 28.2479 20.0456 28.3086C20.0154 28.3693 20 28.4343 20 28.5V31.5C20 31.5657 20.0154 31.6307 20.0456 31.6914C20.0757 31.7521 20.1199 31.8072 20.1756 31.8536C20.2314 31.9001 20.2975 31.9369 20.3703 31.962C20.4432 31.9871 20.5212 32 20.6 32ZM22.4 29V29.5H21.2V29H22.4ZM24.8 32C24.8788 32 24.9568 31.9871 25.0297 31.962C25.1025 31.9369 25.1686 31.9001 25.2244 31.8536C25.2801 31.8072 25.3243 31.7521 25.3544 31.6914C25.3846 31.6307 25.4 31.5657 25.4 31.5V30.5H27.2C27.2788 30.5 27.3568 30.4871 27.4297 30.462C27.5025 30.4369 27.5686 30.4001 27.6244 30.3536C27.6801 30.3072 27.7243 30.2521 27.7544 30.1914C27.7846 30.1307 27.8 30.0657 27.8 30V28.5C27.8 28.4343 27.7846 28.3693 27.7544 28.3086C27.7243 28.2479 27.6801 28.1928 27.6244 28.1464C27.5686 28.0999 27.5025 28.0631 27.4297 28.038C27.3568 28.0129 27.2788 28 27.2 28H24.8C24.7212 28 24.6432 28.0129 24.5703 28.038C24.4975 28.0631 24.4314 28.0999 24.3756 28.1464C24.3199 28.1928 24.2757 28.2479 24.2456 28.3086C24.2154 28.3693 24.2 28.4343 24.2 28.5V31.5C24.2 31.5657 24.2154 31.6307 24.2456 31.6914C24.2757 31.7521 24.3199 31.8072 24.3756 31.8536C24.4314 31.9001 24.4975 31.9369 24.5703 31.962C24.6432 31.9871 24.7212 32 24.8 32ZM25.4 29H26.6V29.5H25.4V29ZM19.5758 21.8535C19.5201 21.8071 19.4759 21.752 19.4457 21.6913C19.4155 21.6307 19.4 21.5656 19.4 21.5C19.4 21.4343 19.4155 21.3693 19.4457 21.3087C19.4759 21.248 19.5201 21.1929 19.5758 21.1465L21.9758 19.1465C22.0886 19.0537 22.2408 19.0018 22.3992 19.0023C22.5577 19.0027 22.7095 19.0553 22.8216 19.1487C22.9336 19.2421 22.9968 19.3686 22.9973 19.5006C22.9978 19.6327 22.9355 19.7595 22.8242 19.8535L20.8484 21.5L22.8242 23.1465C22.8806 23.1926 22.9253 23.2477 22.9558 23.3084C22.9864 23.369 23.0021 23.4342 23.0021 23.5C23.0021 23.5658 22.9864 23.631 22.9558 23.6917C22.9253 23.7524 22.8806 23.8074 22.8242 23.8535C22.7113 23.9467 22.5589 23.9989 22.4 23.9989C22.2411 23.9989 22.0887 23.9467 21.9758 23.8535L19.5758 21.8535ZM23.6179 23.3786L24.8179 19.3786C24.8565 19.25 24.9549 19.1394 25.0914 19.0712C25.2278 19.0029 25.3912 18.9827 25.5456 19.0149C25.7 19.0471 25.8327 19.129 25.9146 19.2428C25.9965 19.3565 26.0208 19.4927 25.9821 19.6213L24.7821 23.6213C24.763 23.685 24.729 23.745 24.6821 23.7977C24.6352 23.8505 24.5763 23.895 24.5087 23.9288C24.3722 23.997 24.2088 24.0173 24.0544 23.9851C23.9 23.9529 23.7673 23.8709 23.6854 23.7572C23.6036 23.6435 23.5793 23.5073 23.6179 23.3786ZM26.7779 23.1465L28.7536 21.5L26.7778 19.8535C26.6661 19.7596 26.6036 19.6327 26.6039 19.5004C26.6043 19.3682 26.6675 19.2415 26.7797 19.148C26.8919 19.0545 27.0439 19.0019 27.2026 19.0016C27.3613 19.0013 27.5136 19.0534 27.6263 19.1465L30.0263 21.1465C30.082 21.1929 30.1262 21.248 30.1564 21.3087C30.1865 21.3693 30.202 21.4344 30.202 21.5C30.202 21.5657 30.1865 21.6307 30.1564 21.6913C30.1262 21.752 30.082 21.8071 30.0263 21.8535L27.6263 23.8535C27.5134 23.9467 27.3609 23.9989 27.2021 23.9989C27.0432 23.9989 26.8907 23.9467 26.7778 23.8535C26.7215 23.8074 26.6768 23.7524 26.6463 23.6917C26.6157 23.631 26.6 23.5658 26.6 23.5C26.6 23.4342 26.6157 23.3691 26.6463 23.3084C26.6768 23.2477 26.7215 23.1926 26.7779 23.1465Z" fill="#2A11C0"/>
</svg>
