<svg width="44" height="44" viewBox="0 0 44 44" fill="none" xmlns="http://www.w3.org/2000/svg">
<rect width="44" height="44" rx="22" fill="#FFE9F3"/>
<g clip-path="url(#clip0_632_1303)">
<path d="M34 22C34 27.9897 29.6116 32.9542 23.875 33.8542V25.4688H26.6711L27.2031 22H23.875V19.7491C23.875 18.7998 24.34 17.875 25.8306 17.875H27.3438V14.9219C27.3438 14.9219 25.9703 14.6875 24.6573 14.6875C21.9166 14.6875 20.125 16.3488 20.125 19.3563V22H17.0781V25.4688H20.125V33.8542C14.3884 32.9542 10 27.9897 10 22C10 15.3728 15.3728 10 22 10C28.6272 10 34 15.3728 34 22Z" fill="#1877F2"/>
<path d="M26.6711 25.4688L27.2031 22H23.875V19.749C23.875 18.8 24.3399 17.875 25.8306 17.875H27.3438V14.9219C27.3438 14.9219 25.9705 14.6875 24.6576 14.6875C21.9165 14.6875 20.125 16.3488 20.125 19.3563V22H17.0781V25.4688H20.125V33.8542C20.736 33.95 21.3621 34 22 34C22.6379 34 23.264 33.95 23.875 33.8542V25.4688H26.6711Z" fill="white"/>
</g>
<defs>
<clipPath id="clip0_632_1303">
<rect width="24" height="24" fill="white" transform="translate(10 10)"/>
</clipPath>
</defs>
</svg>
