<svg width="44" height="44" viewBox="0 0 44 44" fill="none" xmlns="http://www.w3.org/2000/svg">
<rect width="44" height="44" rx="22" fill="#FFE9F3"/>
<g clip-path="url(#clip0_632_1313)">
<path d="M21.9997 15.8376C18.5969 15.8376 15.8378 18.5972 15.8378 21.9999C15.8378 25.4034 18.5969 28.1618 21.9997 28.1618C25.4031 28.1618 28.1627 25.4034 28.1627 21.9999C28.1627 18.5972 25.4031 15.8376 21.9997 15.8376ZM21.9997 26C19.7909 26 17.9995 24.2092 17.9995 21.9999C17.9995 19.7907 19.7909 17.9998 21.9997 17.9998C24.2089 17.9998 26.0003 19.7907 26.0003 21.9999C26.0003 24.2092 24.2089 26 21.9997 26ZM29.8457 15.5944C29.8457 16.3891 29.2008 17.0339 28.4057 17.0339C27.6106 17.0339 26.9657 16.3891 26.9657 15.5944C26.9657 14.7995 27.6105 14.1544 28.4057 14.1544C29.2008 14.1544 29.8457 14.7995 29.8457 15.5944ZM33.37 14.1397C33.0632 13.3502 32.653 12.6813 31.9862 12.0141C30.6412 10.6681 28.801 10.1564 26.9479 10.0725C25.6678 10.0133 25.2591 10.0002 21.9997 10.0002C18.7413 10.0002 18.3327 10.0133 17.0525 10.0725C15.195 10.1566 13.3569 10.6714 12.0144 12.014C10.6666 13.3618 10.1573 15.1964 10.072 17.0528C10.0137 18.3329 10 18.7411 10 21.9999C10 25.2588 10.0137 25.6676 10.072 26.9482C10.1576 28.8111 10.666 30.6387 12.0143 31.9859C13.3623 33.3329 15.1963 33.843 17.0525 33.928C18.3327 33.9865 18.7413 33.9997 21.9997 33.9997C25.2592 33.9997 25.6678 33.9865 26.948 33.928C28.8085 33.8428 30.6408 33.3323 31.9862 31.9859C33.3306 30.6405 33.8436 28.8005 33.9278 26.9482C33.9863 25.6676 34 25.2587 34 21.9999C34 18.741 33.9863 18.3329 33.9278 17.0527C33.8698 15.7751 33.6669 14.9032 33.37 14.1397ZM31.7677 26.849C31.7085 28.1524 31.4057 29.5081 30.4573 30.4576C29.4965 31.4196 28.1609 31.7083 26.8494 31.7681C25.5837 31.8254 25.2047 31.838 21.9997 31.838C18.7959 31.838 18.4168 31.8254 17.151 31.7681C15.8362 31.7081 14.5027 31.4147 13.5427 30.4577C12.5854 29.5035 12.2908 28.1515 12.2321 26.8489C12.1748 25.5839 12.1623 25.2044 12.1623 21.9999C12.1623 18.7961 12.1749 18.4166 12.2321 17.1507C12.2906 15.8534 12.5993 14.4877 13.5425 13.5429C14.4988 12.585 15.8462 12.2919 17.1511 12.2323C18.4168 12.1745 18.7959 12.1624 21.9997 12.1624C25.2042 12.1624 25.5837 12.1745 26.8495 12.2323C28.1635 12.2923 29.4992 12.5844 30.4572 13.5427C31.4156 14.5015 31.7083 15.8438 31.7677 17.1508C31.8257 18.4166 31.8383 18.7961 31.8383 21.9999C31.8383 25.2044 31.8257 25.5839 31.7677 26.849Z" fill="url(#paint0_linear_632_1313)"/>
</g>
<defs>
<linearGradient id="paint0_linear_632_1313" x1="12.0143" y1="31.986" x2="31.9862" y2="12.0141" gradientUnits="userSpaceOnUse">
<stop stop-color="#FDD91D"/>
<stop offset="0.05" stop-color="#FDD91D"/>
<stop offset="0.4972" stop-color="#EC1C24"/>
<stop offset="0.95" stop-color="#A43A94"/>
<stop offset="1" stop-color="#A43A94"/>
</linearGradient>
<clipPath id="clip0_632_1313">
<rect width="24" height="24" fill="white" transform="translate(10 10)"/>
</clipPath>
</defs>
</svg>
