<svg width="10" height="12" viewBox="0 0 10 12" fill="none" xmlns="http://www.w3.org/2000/svg">
<path d="M2.5641 10.3467C2.5641 10.36 2.5641 10.3867 2.5641 10.4C2.5641 10.44 2.55128 10.4667 2.53846 10.5067C2.52564 10.5333 2.51282 10.5733 2.48718 10.5867C2.4359 10.64 2.37179 10.6667 2.30769 10.6667C2.24359 10.6667 2.17949 10.64 2.12821 10.5867C2.10256 10.56 2.08974 10.5333 2.07692 10.5067C2.05128 10.4667 2.05128 10.44 2.05128 10.4C2.05128 10.3867 2.05128 10.36 2.05128 10.3467C2.05128 10.3333 2.0641 10.3067 2.0641 10.2933C2.0641 10.28 2.07692 10.2667 2.08974 10.2533C2.10256 10.24 2.10256 10.2267 2.11538 10.2133C2.20513 10.1067 2.38462 10.1067 2.47436 10.2133C2.48718 10.2267 2.5 10.24 2.5 10.2533C2.51282 10.2667 2.51282 10.28 2.52564 10.2933C2.55128 10.3067 2.55128 10.3333 2.5641 10.3467ZM10 10.4C10 10.5467 9.88462 10.6667 9.74359 10.6667H8.97436H3.82051C3.69231 11.4267 3.0641 12 2.30769 12C1.46154 12 0.769231 11.28 0.769231 10.4C0.769231 9.61333 1.32051 8.94667 2.05128 8.82667V0.533333H0.25641C0.115385 0.533333 0 0.413333 0 0.266667C0 0.12 0.115385 0 0.25641 0H2.30769C2.44872 0 2.5641 0.12 2.5641 0.266667V8.82667C2.85897 8.88 3.11538 9.01333 3.33333 9.21333V5.33333C3.33333 5.18667 3.44872 5.06667 3.58974 5.06667H3.84615V1.6C3.84615 1.45333 3.96154 1.33333 4.10256 1.33333H8.46154C8.60256 1.33333 8.71795 1.45333 8.71795 1.6V5.06667H8.97436C9.11539 5.06667 9.23077 5.18667 9.23077 5.33333V10.1333H9.74359C9.88462 10.1333 10 10.2533 10 10.4ZM4.35897 5.06667H8.20513V1.86667H6.53846V2.93333C6.53846 3.08 6.42308 3.2 6.28205 3.2C6.14103 3.2 6.02564 3.08 6.02564 2.93333V1.86667H4.35897V5.06667ZM3.33333 10.4C3.33333 9.81333 2.87179 9.33333 2.30769 9.33333C1.74359 9.33333 1.28205 9.81333 1.28205 10.4C1.28205 10.9867 1.74359 11.4667 2.30769 11.4667C2.87179 11.4667 3.33333 10.9867 3.33333 10.4ZM8.71795 10.1333V5.6H8.46154H4.10256H3.84615V10.1333H8.71795ZM6.46154 6.48C6.44872 6.46667 6.4359 6.45333 6.42308 6.44L6.41026 6.42667C6.39744 6.42667 6.39744 6.41333 6.38462 6.41333C6.3718 6.41333 6.3718 6.41333 6.35897 6.4C6.34615 6.4 6.34615 6.4 6.33333 6.38667C6.29487 6.37333 6.26923 6.37333 6.23077 6.38667C6.21795 6.38667 6.21795 6.38667 6.20513 6.4C6.19231 6.4 6.19231 6.4 6.17949 6.41333C6.16667 6.41333 6.16667 6.42667 6.15385 6.42667C6.15385 6.42667 6.14103 6.42667 6.14103 6.44C6.12821 6.45333 6.11538 6.46667 6.10256 6.48L4.69231 7.94667C4.58974 8.05333 4.58974 8.21333 4.69231 8.32C4.74359 8.37333 4.80769 8.4 4.8718 8.4C4.9359 8.4 5 8.37333 5.05128 8.32L6.02564 7.30667V9.06667C6.02564 9.21333 6.14103 9.33333 6.28205 9.33333C6.42308 9.33333 6.53846 9.21333 6.53846 9.06667V7.30667L7.51282 8.32C7.5641 8.37333 7.62821 8.4 7.69231 8.4C7.75641 8.4 7.82051 8.37333 7.8718 8.32C7.97436 8.21333 7.97436 8.05333 7.8718 7.94667L6.46154 6.48Z" fill="#857C7C"/>
</svg>
