<svg width="50" height="50" viewBox="0 0 50 50" fill="none" xmlns="http://www.w3.org/2000/svg">
<circle cx="25" cy="25" r="25" fill="#2A11C0" fill-opacity="0.1"/>
<path d="M31.1832 12.2739C31.1832 12.9734 30.6336 13.5229 29.9342 13.5229H14.7469C14.0475 13.5229 13.4979 14.0724 13.4979 14.7719V37.2531C13.4979 37.9525 14.0475 38.5021 14.7469 38.5021H32.1324C32.8318 38.5021 33.3814 37.9525 33.3814 37.2531V21.5162C33.3814 20.8168 33.9309 20.2673 34.6303 20.2673C35.3297 20.2673 35.8793 20.8168 35.8793 21.5162V37.2531C35.8793 39.3014 34.1807 41 32.1324 41H14.7469C12.6986 41 11 39.3014 11 37.2531V14.7719C11 12.7236 12.6986 11.025 14.7469 11.025H29.9342C30.6336 11.025 31.1832 11.5745 31.1832 12.2739ZM16.1957 19.7677H22.6403C23.3397 19.7677 23.8893 19.2182 23.8893 18.5187C23.8893 17.8193 23.3397 17.2698 22.6403 17.2698H16.1957C15.4963 17.2698 14.9467 17.8193 14.9467 18.5187C14.9467 19.2182 15.4963 19.7677 16.1957 19.7677ZM16.1957 25.1632H22.6403C23.3397 25.1632 23.8893 24.6137 23.8893 23.9142C23.8893 23.2148 23.3397 22.6653 22.6403 22.6653H16.1957C15.4963 22.6653 14.9467 23.2148 14.9467 23.9142C14.9467 24.6137 15.4963 25.1632 16.1957 25.1632ZM30.8834 27.7111H15.9958C15.2964 27.7111 14.7469 28.2606 14.7469 28.96C14.7469 29.6595 15.2964 30.209 15.9958 30.209H30.8834C31.5828 30.209 32.1324 29.6595 32.1324 28.96C32.1324 28.2606 31.5828 27.7111 30.8834 27.7111ZM30.8834 32.657H15.9958C15.2964 32.657 14.7469 33.2065 14.7469 33.9059C14.7469 34.6053 15.2964 35.1549 15.9958 35.1549H30.8834C31.5828 35.1549 32.1324 34.6053 32.1324 33.9059C32.1324 33.2065 31.5828 32.657 30.8834 32.657ZM38.0275 11.3747C37.5279 10.8751 36.7286 10.8751 36.2789 11.3747L27.3364 20.2673C26.8368 20.7669 26.8368 21.5662 27.3364 22.0158C27.5862 22.2656 27.8859 22.3655 28.2356 22.3655C28.5354 22.3655 28.8851 22.2656 29.1349 22.0158L38.0275 13.1732C38.5271 12.6736 38.5271 11.8743 38.0275 11.3747Z" fill="#2A11C0"/>
</svg>
