<svg width="10" height="12" viewBox="0 0 10 12" fill="none" xmlns="http://www.w3.org/2000/svg">
<path d="M5.00046 11.1957C3.94964 11.1957 2.95769 11.065 2.20796 10.8265C1.13303 10.4858 0.907471 10.0454 0.907471 9.73638C0.907471 8.84778 2.68071 8.36984 4.44189 8.29012C4.4925 8.28775 4.54279 8.2988 4.5868 8.32196C4.6308 8.34512 4.66667 8.37943 4.69014 8.4208L5.00046 8.9618L5.31078 8.41982C5.33422 8.37842 5.37008 8.3441 5.41409 8.32093C5.4581 8.29776 5.50841 8.28673 5.55903 8.28914C7.31844 8.36886 9.09345 8.8468 9.09345 9.7354C9.09345 10.0445 8.86789 10.4848 7.79295 10.8256C7.04323 11.0647 6.05128 11.1957 5.00046 11.1957ZM4.29932 8.78833C2.45515 8.89875 1.43944 9.411 1.43944 9.73573C1.43944 10.131 2.82682 10.705 5.00046 10.705C7.17409 10.705 8.56148 10.131 8.56148 9.73573C8.56148 9.40904 7.54506 8.89809 5.7016 8.78833L5.23559 9.60211C5.21307 9.64159 5.17925 9.67465 5.13781 9.69771C5.09637 9.72077 5.04888 9.73296 5.00046 9.73296C4.95204 9.73296 4.90455 9.72077 4.86311 9.69771C4.82166 9.67465 4.78785 9.64159 4.76533 9.60211L4.29932 8.78833Z" fill="#857C7C"/>
<path d="M5.00054 9.73278C4.95214 9.73279 4.90466 9.72063 4.86322 9.6976C4.82178 9.67457 4.78796 9.64155 4.76541 9.6021L4.22031 8.64915L4.21748 8.64424L1.98603 4.74748L1.97965 4.73507C1.68652 4.25024 1.53598 3.70327 1.54296 3.14835C1.54993 2.59343 1.71418 2.04982 2.01942 1.57137C2.32466 1.09292 2.76031 0.696234 3.2832 0.420613C3.8061 0.144992 4.39809 0 5.00054 0C5.60299 0 6.19498 0.144992 6.71788 0.420613C7.24077 0.696234 7.67642 1.09292 7.98166 1.57137C8.2869 2.04982 8.45115 2.59343 8.45812 3.14835C8.4651 3.70327 8.31456 4.25024 8.02143 4.73507L8.01504 4.74748L5.78396 8.64424L5.78112 8.64915L5.23567 9.6021C5.21312 9.64155 5.1793 9.67457 5.13786 9.6976C5.09642 9.72063 5.04894 9.73279 5.00054 9.73278ZM4.69164 8.42275L5.00054 8.96179L5.30979 8.42144C5.31077 8.41987 5.3116 8.41823 5.31228 8.41654L7.53379 4.53514C7.53778 4.52653 7.54228 4.51813 7.54726 4.50998C7.79902 4.09994 7.92972 3.63628 7.92632 3.16521C7.92292 2.69414 7.78554 2.23212 7.52788 1.8252C7.27023 1.41828 6.90129 1.08068 6.45784 0.846042C6.0144 0.611407 5.51193 0.487935 5.00054 0.487935C4.48915 0.487935 3.98668 0.611407 3.54324 0.846042C3.09979 1.08068 2.73085 1.41828 2.47319 1.8252C2.21554 2.23212 2.07816 2.69414 2.07476 3.16521C2.07136 3.63628 2.20205 4.09994 2.45381 4.50998C2.45899 4.5182 2.46361 4.52671 2.46765 4.53546L4.6888 8.41654C4.68948 8.41823 4.69031 8.41987 4.69129 8.42144L4.69164 8.42275ZM5.00054 4.43713C4.71546 4.43719 4.43677 4.35938 4.19971 4.21353C3.96264 4.06769 3.77785 3.86036 3.66871 3.61776C3.55957 3.37517 3.53098 3.10821 3.58655 2.85064C3.64212 2.59308 3.77936 2.35648 3.98092 2.17077C4.18247 1.98506 4.43928 1.85858 4.71887 1.80732C4.99847 1.75607 5.28828 1.78234 5.55166 1.88282C5.81504 1.9833 6.04016 2.15347 6.19855 2.37181C6.35693 2.59015 6.44147 2.84686 6.44147 3.10946C6.44129 3.46153 6.28945 3.79914 6.01929 4.04819C5.74913 4.29723 5.38274 4.43735 5.00054 4.43778V4.43713ZM5.00054 2.27215C4.82066 2.27209 4.64481 2.32117 4.49522 2.41318C4.34563 2.5052 4.22902 2.63602 4.16015 2.78909C4.09129 2.94216 4.07325 3.1106 4.10832 3.27312C4.1434 3.43564 4.23001 3.58492 4.3572 3.70208C4.48439 3.81925 4.64645 3.89903 4.82287 3.93134C4.9993 3.96365 5.18216 3.94703 5.34833 3.8836C5.5145 3.82016 5.65651 3.71274 5.7564 3.57495C5.85629 3.43715 5.90957 3.27516 5.9095 3.10946C5.90903 2.88758 5.81309 2.67493 5.64271 2.5181C5.47233 2.36127 5.2414 2.27306 5.00054 2.27281V2.27215Z" fill="#857C7C"/>
<path d="M5.00048 4.43781C4.71541 4.43787 4.43671 4.36006 4.19965 4.21422C3.96258 4.06837 3.77779 3.86104 3.66865 3.61844C3.55951 3.37585 3.53092 3.10889 3.58649 2.85132C3.64206 2.59376 3.7793 2.35716 3.98086 2.17145C4.18241 1.98574 4.43922 1.85926 4.71881 1.80801C4.99841 1.75675 5.28822 1.78302 5.5516 1.8835C5.81498 1.98398 6.0401 2.15415 6.19849 2.37249C6.35688 2.59083 6.44141 2.84754 6.44141 3.11014C6.44104 3.4621 6.28912 3.79954 6.01898 4.04845C5.74885 4.29735 5.38256 4.43738 5.00048 4.43781ZM5.00048 2.27283C4.82061 2.27277 4.64475 2.32185 4.49516 2.41386C4.34557 2.50588 4.22896 2.6367 4.1601 2.78977C4.09123 2.94284 4.07319 3.11129 4.10826 3.2738C4.14334 3.43632 4.22995 3.5856 4.35714 3.70276C4.48433 3.81993 4.64639 3.89971 4.82281 3.93202C4.99924 3.96433 5.1821 3.94772 5.34827 3.88428C5.51444 3.82084 5.65645 3.71343 5.75634 3.57563C5.85623 3.43783 5.90951 3.27584 5.90944 3.11014C5.90916 2.88815 5.81331 2.67533 5.6429 2.51836C5.4725 2.36139 5.24147 2.27309 5.00048 2.27283Z" fill="#857C7C"/>
<path d="M5.00048 4.43781C4.71541 4.43787 4.43671 4.36006 4.19965 4.21422C3.96258 4.06837 3.77779 3.86104 3.66865 3.61844C3.55951 3.37585 3.53092 3.10889 3.58649 2.85132C3.64206 2.59376 3.7793 2.35716 3.98086 2.17145C4.18241 1.98574 4.43922 1.85926 4.71881 1.80801C4.99841 1.75675 5.28822 1.78302 5.5516 1.8835C5.81498 1.98398 6.0401 2.15415 6.19849 2.37249C6.35688 2.59083 6.44141 2.84754 6.44141 3.11014C6.44104 3.4621 6.28912 3.79954 6.01898 4.04845C5.74885 4.29735 5.38256 4.43738 5.00048 4.43781ZM5.00048 2.27283C4.82061 2.27277 4.64475 2.32185 4.49516 2.41386C4.34557 2.50588 4.22896 2.6367 4.1601 2.78977C4.09123 2.94284 4.07319 3.11129 4.10826 3.2738C4.14334 3.43632 4.22995 3.5856 4.35714 3.70276C4.48433 3.81993 4.64639 3.89971 4.82281 3.93202C4.99924 3.96433 5.1821 3.94772 5.34827 3.88428C5.51444 3.82084 5.65645 3.71343 5.75634 3.57563C5.85623 3.43783 5.90951 3.27584 5.90944 3.11014C5.90916 2.88815 5.81331 2.67533 5.6429 2.51836C5.4725 2.36139 5.24147 2.27309 5.00048 2.27283Z" fill="#857C7C"/>
<path d="M5.00053 11.9999C3.705 11.9999 2.48253 11.8264 1.56045 11.5099C0.554314 11.1665 0 10.6788 0 10.1378C0 9.78039 0.238323 9.26389 1.37426 8.83103C2.17647 8.52557 3.26595 8.33217 4.44196 8.28611C4.49311 8.28411 4.54379 8.29582 4.58786 8.31983C4.63192 8.34384 4.66748 8.3791 4.69022 8.42136L5.00053 8.9617L5.30978 8.42136C5.33259 8.37916 5.36817 8.34394 5.41221 8.31994C5.45626 8.29594 5.50691 8.28419 5.55804 8.28611C6.73405 8.33217 7.82353 8.52557 8.62574 8.83103C9.76061 9.26324 10 9.77843 10 10.1378C10 10.6798 9.44604 11.1675 8.43955 11.5099C7.51853 11.8264 6.29606 11.9999 5.00053 11.9999ZM4.29691 8.78398C2.03745 8.90127 0.531972 9.56869 0.531972 10.1378C0.531972 10.4504 0.985566 10.7912 1.74522 11.0525C2.61056 11.3465 3.76671 11.5099 5.00053 11.5099C6.23435 11.5099 7.3905 11.3465 8.25584 11.0525C9.0155 10.7912 9.46909 10.4504 9.46909 10.1378C9.46909 9.56869 7.96361 8.90127 5.70415 8.78398L5.23566 9.60071C5.21314 9.64019 5.17933 9.67324 5.13789 9.69631C5.09644 9.71937 5.04895 9.73156 5.00053 9.73156C4.95212 9.73156 4.90462 9.71937 4.86318 9.69631C4.82174 9.67324 4.78793 9.64019 4.7654 9.60071L4.29691 8.78398Z" fill="#857C7C"/>
</svg>
