<svg width="39" height="39" viewBox="0 0 39 39" fill="none" xmlns="http://www.w3.org/2000/svg">
<path d="M14.6533 30.6912C13.9725 30.3472 13.5978 29.941 13.5978 29.5474C13.5978 28.8909 14.6445 28.2243 16.2642 27.8492C16.3797 27.8223 16.4515 27.7073 16.425 27.5917C16.3982 27.4767 16.2839 27.4048 16.1676 27.4309C14.29 27.866 13.1689 28.6574 13.1689 29.5474C13.1689 30.1191 13.6154 30.6467 14.4597 31.0738C14.4908 31.0898 14.524 31.0969 14.5563 31.0969C14.6349 31.0969 14.7105 31.0537 14.7483 30.9793C14.8012 30.8735 14.7592 30.7445 14.6533 30.6912Z" fill="white" stroke="white" stroke-width="0.5"/>
<path d="M15.7414 31.1088C15.5369 31.0487 15.3428 30.9836 15.1614 30.9143C15.0521 30.8723 14.927 30.9269 14.8846 31.0378C14.8417 31.1482 14.8976 31.2726 15.008 31.3146C15.1996 31.3881 15.4041 31.4566 15.6205 31.5204C15.6406 31.5263 15.6608 31.5292 15.6809 31.5292C15.7738 31.5292 15.8595 31.4687 15.8868 31.3751C15.9204 31.2612 15.8553 31.1424 15.7414 31.1088Z" fill="white" stroke="white" stroke-width="0.5"/>
<path d="M22.0519 27.3392C21.9331 27.3186 21.8239 27.3972 21.8033 27.5135C21.7831 27.6303 21.8608 27.7412 21.9776 27.7618C23.8787 28.0944 25.0594 28.7787 25.0594 29.5473C25.0594 30.5243 22.7568 31.5706 19.3284 31.5706C18.3006 31.5706 17.29 31.469 16.4058 31.2766C16.2882 31.251 16.1757 31.3249 16.1505 31.4408C16.1253 31.5568 16.1988 31.6706 16.3147 31.6962C17.2287 31.8949 18.2708 31.9999 19.3289 31.9999C22.7832 31.9999 25.4891 30.9229 25.4891 29.5478C25.4887 28.5262 24.2357 27.7214 22.0519 27.3392Z" fill="white" stroke="white" stroke-width="0.5"/>
<circle cx="19.5" cy="19.5" r="19.5" fill="#E17ED1"/>
<path d="M24.6991 16.6548C24.6991 13.6226 22.2326 11.1558 19.2012 11.1558C16.169 11.1558 13.7021 13.6226 13.7021 16.6548C13.7021 19.6871 16.169 22.1539 19.2012 22.1539C22.2326 22.1544 24.6991 19.6871 24.6991 16.6548ZM14.131 16.6548C14.131 13.8591 16.4055 11.5846 19.2012 11.5846C21.9961 11.5846 24.2702 13.8591 24.2702 16.6548C24.2702 19.4506 21.9961 21.7251 19.2012 21.7251C16.4055 21.7251 14.131 19.4506 14.131 16.6548Z" fill="white" stroke="white" stroke-width="0.5"/>
<path d="M19.055 31.4764C19.1205 31.4764 19.1823 31.4466 19.223 31.3954C19.5452 30.9896 27.11 21.4107 27.11 17.0554C27.11 12.6136 23.4964 9 19.055 9C14.6136 9 11 12.6136 11 17.0554C11 21.4107 18.5652 30.9896 18.887 31.3954C18.9277 31.4466 18.9895 31.4764 19.055 31.4764ZM19.055 9.42885C23.26 9.42885 26.6811 12.85 26.6811 17.0554C26.6811 20.9134 20.1908 29.4494 19.055 30.9136C17.9192 29.4494 11.4289 20.913 11.4289 17.0554C11.4289 12.85 14.85 9.42885 19.055 9.42885Z" fill="white" stroke="white" stroke-width="0.5"/>
</svg>
