<svg width="9" height="10" viewBox="0 0 9 10" fill="none" xmlns="http://www.w3.org/2000/svg">
<path d="M0.681868 2.27288e-05C0.308073 2.27288e-05 5.26259e-05 0.308043 5.26259e-05 0.681838C-0.000373292 0.711954 0.00519062 0.741855 0.016421 0.769802C0.0276513 0.797749 0.0443241 0.823185 0.0654705 0.844633C0.0866169 0.866081 0.111815 0.883111 0.139601 0.894736C0.167386 0.90636 0.197205 0.912347 0.227324 0.912347C0.257444 0.912347 0.287262 0.90636 0.315048 0.894736C0.342834 0.883111 0.368032 0.866081 0.389178 0.844633C0.410325 0.823185 0.426997 0.797749 0.438228 0.769802C0.449458 0.741855 0.455022 0.711954 0.454596 0.681838C0.454596 0.551998 0.552028 0.454566 0.681868 0.454566H4.31821C4.34833 0.454992 4.37823 0.449428 4.40618 0.438198C4.43413 0.426967 4.45956 0.410295 4.48101 0.389148C4.50246 0.368002 4.51949 0.342804 4.53111 0.315018C4.54274 0.287232 4.54872 0.257414 4.54872 0.227294C4.54872 0.197175 4.54274 0.167356 4.53111 0.139571C4.51949 0.111785 4.50246 0.086587 4.48101 0.0654406C4.45956 0.0442942 4.43413 0.0276214 4.40618 0.0163911C4.37823 0.00516072 4.34833 -0.000403189 4.31821 2.27288e-05H0.681868ZM0.202466 1.3601C0.14598 1.36631 0.0938679 1.39345 0.056401 1.43618C0.018934 1.4789 -0.00116955 1.53411 5.26259e-05 1.59092V9.31816C5.26259e-05 9.69196 0.308073 9.99998 0.681868 9.99998H4.31821C4.34833 10.0004 4.37823 9.99484 4.40618 9.98361C4.43413 9.97238 4.45956 9.95571 4.48101 9.93456C4.50246 9.91341 4.51949 9.88822 4.53111 9.86043C4.54274 9.83264 4.54872 9.80282 4.54872 9.77271C4.54872 9.74259 4.54274 9.71277 4.53111 9.68498C4.51949 9.6572 4.50246 9.632 4.48101 9.61085C4.45956 9.58971 4.43413 9.57303 4.40618 9.5618C4.37823 9.55057 4.34833 9.54501 4.31821 9.54543H0.681868C0.552028 9.54543 0.454596 9.448 0.454596 9.31816V1.59092C0.455072 1.56048 0.449427 1.53025 0.437996 1.50203C0.426565 1.47381 0.40958 1.44818 0.388051 1.42665C0.366521 1.40512 0.340886 1.38813 0.312666 1.3767C0.284446 1.36527 0.254217 1.35963 0.223773 1.3601C0.216675 1.35977 0.209565 1.35977 0.202466 1.3601ZM5.42972 2.26919C5.38639 2.2734 5.3452 2.28997 5.31101 2.31692C5.27683 2.34386 5.25111 2.38006 5.2369 2.4212C5.22268 2.46234 5.22058 2.50669 5.23084 2.54899C5.2411 2.59129 5.26329 2.62976 5.29477 2.65981L7.40769 4.77273H2.27277C2.26567 4.7724 2.25856 4.7724 2.25146 4.77273C2.22161 4.77412 2.19233 4.78138 2.16529 4.79409C2.13824 4.8068 2.11397 4.82472 2.09385 4.84681C2.07373 4.86891 2.05816 4.89475 2.04803 4.92286C2.03789 4.95097 2.0334 4.98081 2.0348 5.01066C2.0362 5.0405 2.04346 5.06979 2.05618 5.09683C2.0689 5.12387 2.08682 5.14814 2.10892 5.16826C2.13101 5.18837 2.15686 5.20394 2.18497 5.21406C2.21309 5.22419 2.24292 5.22868 2.27277 5.22727H7.40769L5.29477 7.34019C5.26994 7.3602 5.24959 7.38522 5.23506 7.41362C5.22052 7.44201 5.21213 7.47315 5.21042 7.505C5.20872 7.53686 5.21373 7.56871 5.22515 7.5985C5.23656 7.62829 5.25412 7.65534 5.27667 7.67789C5.29923 7.70045 5.32628 7.718 5.35606 7.72942C5.38585 7.74083 5.41771 7.74585 5.44956 7.74414C5.48141 7.74243 5.51255 7.73404 5.54094 7.71951C5.56934 7.70497 5.59436 7.68463 5.61437 7.65979L8.11436 5.1598C8.15643 5.11725 8.18002 5.05983 8.18002 5C8.18002 4.94017 8.15643 4.88275 8.11436 4.8402L5.61437 2.34021C5.59333 2.31798 5.56802 2.30024 5.53995 2.28803C5.51188 2.27583 5.48163 2.26942 5.45102 2.26919C5.44392 2.26886 5.43681 2.26886 5.42972 2.26919Z" fill="#857C7C"/>
</svg>
