<svg width="10" height="12" viewBox="0 0 10 12" fill="none" xmlns="http://www.w3.org/2000/svg">
<path d="M9.98813 11.5945L9.18118 3.76971C9.16535 3.60451 9.02295 3.48436 8.8489 3.48436H7.32993V2.20776C7.32993 0.991239 6.28563 0 5.00399 0C3.72236 0 2.67806 0.991239 2.67806 2.20776V3.48436H1.15909C0.985038 3.48436 0.842633 3.60451 0.826811 3.76971L0.00403215 11.6395C-0.0117905 11.7297 0.0198548 11.8198 0.0831455 11.8949C0.146436 11.97 0.241372 12 0.336308 12H9.65586C9.84573 12 9.98813 11.8498 9.98813 11.6846C10.004 11.6395 10.004 11.6095 9.98813 11.5945ZM3.35844 2.19274C3.35844 1.33667 4.08628 0.630788 5.00399 0.630788C5.90589 0.630788 6.64955 1.32165 6.64955 2.19274V3.46934H3.35844V2.19274ZM1.47554 4.11514H2.69389V4.76095C2.69389 4.94118 2.85211 5.07635 3.02616 5.07635C3.21603 5.07635 3.35844 4.92616 3.35844 4.76095V4.11514H6.63373V4.76095C6.63373 4.94118 6.79196 5.07635 6.966 5.07635C7.15588 5.07635 7.29828 4.92616 7.29828 4.76095V4.11514H8.51663L9.13371 10.0626H0.858456L1.47554 4.11514ZM0.716052 11.3392L0.779343 10.7084H9.21282L9.27611 11.3392H0.716052Z" fill="#857C7C"/>
</svg>
