<svg width="50" height="50" viewBox="0 0 50 50" fill="none" xmlns="http://www.w3.org/2000/svg">
<circle cx="25" cy="25" r="25" fill="#2A11C0" fill-opacity="0.1"/>
<path d="M38.481 32.4477C38.4882 31.6423 39.3213 30.826 39.3213 30.826C39.4643 30.6863 39.5307 30.4162 39.4697 30.2264L38.8436 28.6787C38.7547 28.5001 38.5184 28.3531 38.3187 28.352C38.3187 28.352 37.1511 28.3444 36.5877 27.7709C36.0212 27.1974 36.0324 26.0301 36.0324 26.0301C36.0346 25.8305 35.8908 25.592 35.7137 25.4998L34.1769 24.8505C34.1265 24.8334 34.0706 24.8258 34.0129 24.8258C33.8531 24.8258 33.6793 24.8868 33.5751 24.9898C33.5751 24.9898 32.7534 25.8022 31.9505 25.8022H31.9403C31.1342 25.7964 30.3186 24.9637 30.3186 24.9637C30.214 24.857 30.0365 24.7927 29.8739 24.7927C29.8195 24.7927 29.7665 24.8 29.7186 24.8156L28.8195 25.1786C27.9469 24.7285 27.0159 24.3775 26.0424 24.1343C28.5727 22.9536 30.3302 20.3939 30.3302 17.4169C30.3305 13.3212 27.0105 10.0007 22.914 10C18.8183 10.0007 15.4982 13.3212 15.4979 17.4172C15.4982 20.3907 17.2517 22.9478 19.7776 24.1303C14.1618 25.5325 10.0004 30.6089 10 36.66C10 36.8033 10.0581 36.9435 10.1593 37.0451C10.2606 37.1467 10.4007 37.2044 10.5445 37.2044H27.3361C27.7509 37.8106 27.7426 38.7616 27.7426 38.7616C27.7408 38.9612 27.8841 39.1993 28.0613 39.2915L29.5992 39.9401C29.6496 39.9572 29.7059 39.9648 29.7636 39.9648C29.9233 39.9648 30.0972 39.9042 30.2013 39.8015C30.2013 39.8015 31.0264 38.9884 31.8289 38.9884H31.8365C32.6416 38.996 33.4579 39.8287 33.4579 39.8287C33.5624 39.9358 33.7399 40 33.9025 40C33.957 40 34.0099 39.9924 34.0579 39.9771L35.6056 39.3503C35.7841 39.261 35.9311 39.0247 35.9326 38.8251C35.9326 38.8251 35.9409 37.6603 36.5144 37.0941C37.0632 36.5536 38.155 36.542 38.2483 36.542H38.2549H38.2599C38.4585 36.542 38.6937 36.3994 38.7848 36.224L39.4345 34.6869C39.4984 34.4978 39.436 34.2266 39.2958 34.0847C39.2958 34.0847 38.4755 33.2535 38.481 32.4477ZM18.4401 21.8915C17.2942 20.7446 16.5871 19.1664 16.5868 17.4172C16.5871 15.6681 17.2942 14.0899 18.4401 12.9429C19.5867 11.7967 21.1652 11.09 22.914 11.0896C24.6632 11.09 26.2417 11.7967 27.3883 12.9429C28.5342 14.0896 29.2413 15.6681 29.2416 17.4172C29.2413 19.1664 28.5342 20.7449 27.3883 21.8915C26.2417 23.0374 24.6632 23.7445 22.914 23.7445C21.1652 23.7449 19.5867 23.0374 18.4401 21.8915ZM14.5527 28.2972C16.6942 26.1564 19.6473 24.8341 22.914 24.8338C24.6788 24.8341 26.3499 25.224 27.8526 25.9172C27.8504 25.9336 27.8442 25.9502 27.8442 25.9662C27.8442 25.9662 27.8377 27.1324 27.2635 27.6979C26.7107 28.242 25.6098 28.2518 25.5285 28.2518H25.5234H25.5194C25.3205 28.2518 25.0849 28.3945 24.9935 28.5705L24.3434 30.108C24.2795 30.2971 24.3419 30.5679 24.4824 30.7098C24.4824 30.7098 25.3016 31.5385 25.2965 32.3439C25.2878 33.1486 24.457 33.9657 24.457 33.9657C24.3147 34.1058 24.2483 34.3755 24.3089 34.5656L24.935 36.1133C24.9354 36.1141 24.9361 36.1144 24.9365 36.1152H11.1027C11.241 33.0651 12.5317 30.3193 14.5527 28.2972ZM38.2908 34.5943L37.9224 35.4658C37.3685 35.5072 36.4023 35.6756 35.7486 36.3195C35.0927 36.9674 34.9112 37.9416 34.8618 38.4766L33.9835 38.8323C33.574 38.4806 32.7639 37.9075 31.8289 37.8991C30.9138 37.8991 30.103 38.4552 29.6914 38.7971L28.8188 38.4291C28.7781 37.8912 28.613 36.9141 27.9665 36.2589C27.3201 35.5997 26.3455 35.4183 25.8076 35.3689L25.4523 34.4909C25.8025 34.0825 26.3746 33.2742 26.3847 32.3508C26.3905 31.4296 25.8305 30.614 25.486 30.1999L25.8548 29.328C26.4083 29.2863 27.3727 29.1175 28.0268 28.4736C28.6848 27.8261 28.8656 26.8511 28.9146 26.3143L29.7923 25.9601C30.201 26.3114 31.0086 26.8842 31.9298 26.8907H31.9501C32.8651 26.8907 33.6735 26.3361 34.0851 25.9934L34.9558 26.3615C34.9965 26.8987 35.1627 27.8776 35.8103 28.5335C36.4564 29.1916 37.432 29.373 37.9692 29.422L38.3242 30.2993C37.9728 30.7084 37.3993 31.5164 37.3914 32.4394C37.3859 33.3628 37.9471 34.1802 38.2908 34.5943Z" fill="#2A11C0"/>
<path d="M31.9118 29.3171H31.8915L31.9017 30.406C32.9989 30.4162 33.8856 31.3156 33.8773 32.41C33.8682 33.4989 32.9757 34.3845 31.8734 34.3845C30.7768 34.3758 29.8916 33.476 29.8995 32.3806C29.9082 31.2917 30.8015 30.406 31.8911 30.406L31.8915 29.3171C30.2033 29.3171 28.8244 30.6794 28.8106 32.3719C28.7979 34.0702 30.1641 35.4593 31.8639 35.4734L31.8875 35.4738C33.576 35.4738 34.9513 34.1112 34.9658 32.4191C34.9789 30.7215 33.6116 29.3327 31.9118 29.3171Z" fill="#2A11C0"/>
</svg>
