<svg width="26" height="30" viewBox="0 0 26 30" fill="none" xmlns="http://www.w3.org/2000/svg">
<path d="M13.4013 15.9404C17.4922 15.5643 20.6897 12.1317 20.6897 7.99373C20.6897 3.57367 17.116 0 12.6959 0C8.27586 0 4.70219 3.57367 4.70219 7.99373C4.70219 12.1787 7.89969 15.5643 11.9906 15.9404C5.21944 16.3166 0 21.9592 0 29.0596C0 29.5768 0.423197 30 0.940439 30C1.45768 30 1.88088 29.5768 1.88088 29.0596C1.88088 22.6176 6.53605 17.7743 12.6959 17.7743C18.8558 17.7743 23.511 22.6176 23.511 29.0596C23.511 29.5768 23.9342 30 24.4514 30C24.9687 30 25.3918 29.5768 25.3918 29.0596C25.3918 21.9592 20.1724 16.3166 13.4013 15.9404ZM6.58307 7.99373C6.58307 4.60815 9.31034 1.88088 12.6959 1.88088C16.0815 1.88088 18.8088 4.60815 18.8088 7.99373C18.8088 11.3793 16.0815 14.1066 12.6959 14.1066C9.31034 14.1066 6.58307 11.3323 6.58307 7.99373Z" fill="#2A11C0"/>
</svg>
