<svg width="18" height="15" viewBox="0 0 18 15" fill="none" xmlns="http://www.w3.org/2000/svg">
<path d="M1.33333 2.66667H16.6667C17.403 2.66667 18 2.06933 18 1.33333C18 0.596333 17.4037 0 16.6673 0H1.33333C0.597333 0 0 0.596333 0 1.33333C0 2.06933 0.597333 2.66667 1.33333 2.66667ZM16.6667 5.99967H1.33333C0.597 5.99967 0 6.59667 0 7.33333C0 8.06967 0.597333 8.66667 1.33333 8.66667H16.6667C17.403 8.66667 18 8.06967 18 7.33333C18 6.59667 17.403 5.99967 16.6667 5.99967ZM16.6667 11.9997H1.33333C0.597 11.9997 0 12.5967 0 13.3337C0 14.07 0.597333 14.667 1.33333 14.667H16.6667C17.403 14.667 18 14.07 18 13.3337C18 12.5967 17.403 11.9997 16.6667 11.9997Z" fill="#2E2727"/>
</svg>
