<svg width="39" height="39" viewBox="0 0 39 39" fill="none" xmlns="http://www.w3.org/2000/svg">
<circle cx="19.5" cy="19.5" r="19.5" fill="#E7FBE6"/>
<path d="M30 25.7037V25.2963C29.9997 24.9723 29.8837 24.6616 29.6775 24.4325C29.4712 24.2033 29.1916 24.0744 28.9 24.0741H28.0991C28.1426 23.9436 28.1654 23.8058 28.1667 23.6667V15.9259C28.1663 15.6019 28.0504 15.2912 27.8441 15.0621C27.6379 14.8329 27.3583 14.7041 27.0667 14.7037H17.9C17.6084 14.7041 17.3288 14.8329 17.1225 15.0621C16.9163 15.2912 16.8003 15.6019 16.8 15.9259V23.6667C16.8012 23.8058 16.8241 23.9436 16.8676 24.0741C16.5896 24.0993 14.824 24.0051 14.6 24.1492V12.2593C14.5997 11.9352 14.4837 11.6245 14.2775 11.3954C14.0712 11.1663 13.7916 11.0374 13.5 11.037H12.7667V10.4259C12.7663 10.0479 12.6309 9.68546 12.3903 9.41815C12.1498 9.15084 11.8236 9.00046 11.4833 9H9.28333C8.94297 9 8.61655 9.15023 8.37588 9.41764C8.13521 9.68506 8 10.0477 8 10.4259C8 10.8041 8.13521 11.1668 8.37588 11.4342C8.61655 11.7016 8.94297 11.8519 9.28333 11.8519H13.5C13.5972 11.852 13.6904 11.8949 13.7592 11.9713C13.8279 12.0477 13.8666 12.1512 13.8667 12.2593V25.7037C13.8671 25.9399 13.9291 26.1709 14.0451 26.3688C14.1612 26.5667 14.3264 26.723 14.5207 26.8188C14.2145 27.1547 14.0037 27.5831 13.9145 28.0509C13.8253 28.5187 13.8616 29.0053 14.019 29.4504C14.1764 29.8955 14.4478 30.2794 14.7997 30.5547C15.1516 30.8299 15.5685 30.9844 15.9987 30.9989C16.4288 31.0134 16.8533 30.8873 17.2196 30.6362C17.5859 30.3851 17.8778 30.0202 18.0591 29.5865C18.2405 29.1528 18.3033 28.6696 18.2397 28.1966C18.1762 27.7237 17.9892 27.2819 17.7018 26.9259H26.1649C25.8775 27.2819 25.6904 27.7237 25.6269 28.1966C25.5634 28.6696 25.6262 29.1528 25.8075 29.5865C25.9889 30.0202 26.2808 30.3851 26.647 30.6362C27.0133 30.8873 27.4378 31.0134 27.868 30.9989C28.2982 30.9844 28.715 30.8299 29.0669 30.5547C29.4189 30.2794 29.6903 29.8955 29.8477 29.4504C30.005 29.0053 30.0414 28.5187 29.9522 28.0509C29.863 27.5831 29.6522 27.1547 29.3459 26.8188C29.5403 26.723 29.7055 26.5667 29.8215 26.3688C29.9376 26.1709 29.9996 25.9399 30 25.7037ZM8.73333 10.4259C8.73349 10.2639 8.79149 10.1086 8.8946 9.994C8.99771 9.87943 9.13751 9.81499 9.28333 9.81482H11.4833C11.6292 9.81499 11.769 9.87943 11.8721 9.994C11.9752 10.1086 12.0332 10.2639 12.0333 10.4259V11.037H9.28333C9.13751 11.0369 8.99771 10.9724 8.8946 10.8579C8.79149 10.7433 8.73349 10.5879 8.73333 10.4259ZM23.4 15.5185L23.4004 17.5556H21.5667V15.5185H23.4ZM17.5333 23.6667V15.9259C17.5334 15.8179 17.5721 15.7144 17.6408 15.638C17.7096 15.5616 17.8028 15.5186 17.9 15.5185H20.8333V17.5556C20.8336 17.7716 20.9109 17.9787 21.0484 18.1315C21.1858 18.2842 21.3722 18.3701 21.5667 18.3704H23.4C23.5944 18.3701 23.7808 18.2842 23.9183 18.1315C24.0558 17.9787 24.1331 17.7716 24.1333 17.5556V15.5185H27.0667C27.1639 15.5186 27.2571 15.5616 27.3258 15.638C27.3946 15.7144 27.4332 15.8179 27.4333 15.9259V23.6667C27.4332 23.7747 27.3946 23.8783 27.3258 23.9546C27.2571 24.031 27.1639 24.074 27.0667 24.0741H17.9C17.8028 24.074 17.7096 24.031 17.6408 23.9546C17.5721 23.8783 17.5334 23.7747 17.5333 23.6667ZM17.5333 28.5556C17.5299 28.9853 17.3738 29.396 17.0991 29.6985C16.8245 30.001 16.4534 30.1707 16.0667 30.1707C15.6799 30.1707 15.3088 30.001 15.0342 29.6985C14.7595 29.396 14.6035 28.9852 14.6 28.5555C14.6035 28.1259 14.7595 27.7151 15.0342 27.4126C15.3089 27.1101 15.68 26.9404 16.0667 26.9404C16.4534 26.9404 16.8245 27.1101 17.0992 27.4126C17.3738 27.7151 17.5299 28.1259 17.5333 28.5556ZM27.8 30.1852C27.4133 30.1814 27.0436 30.008 26.7714 29.7028C26.4991 29.3976 26.3464 28.9853 26.3464 28.5556C26.3464 28.1259 26.4992 27.7135 26.7714 27.4084C27.0436 27.1032 27.4133 26.9298 27.8 26.9259C28.1867 26.9298 28.5564 27.1032 28.8287 27.4084C29.1009 27.7136 29.2536 28.1259 29.2536 28.5556C29.2536 28.9853 29.1009 29.3976 28.8286 29.7028C28.5564 30.008 28.1867 30.1814 27.8 30.1852ZM14.9667 26.1111C14.8695 26.111 14.7762 26.0681 14.7075 25.9917C14.6388 25.9153 14.6001 25.8117 14.6 25.7037V25.2963C14.6001 25.1883 14.6388 25.0847 14.7075 25.0083C14.7762 24.932 14.8695 24.889 14.9667 24.8889H28.9C28.9972 24.889 29.0904 24.932 29.1592 25.0083C29.2279 25.0847 29.2666 25.1883 29.2667 25.2963V25.7037C29.2666 25.8117 29.2279 25.9153 29.1592 25.9917C29.0904 26.0681 28.9972 26.111 28.9 26.1111H14.9667Z" fill="#68E365"/>
</svg>
