<svg width="39" height="39" viewBox="0 0 39 39" fill="none" xmlns="http://www.w3.org/2000/svg">
<circle cx="19.5" cy="19.5" r="19.5" fill="#FFE9D5"/>
<path d="M25.4799 31H14.5195C12.0272 31 10 28.6966 10 25.8653V12.135C10 9.30371 12.0275 7 14.5195 7H22.5646C22.7403 7 22.9084 7.07572 23.0326 7.20987L29.8055 14.5407C29.9294 14.6749 29.9994 14.8571 29.9994 15.0473V25.865C29.9997 28.6963 27.9722 31 25.4799 31ZM14.5195 8.43277C12.7574 8.43277 11.3235 10.0934 11.3235 12.135V25.865C11.3235 27.9066 12.7571 29.5669 14.5195 29.5669H25.4799C27.2419 29.5669 28.6759 27.9066 28.6759 25.865V15.3439L22.2906 8.43277H14.5195Z" fill="#FFA755"/>
<path d="M29.3378 16.6733H26.5213C24.029 16.6733 22.0015 14.37 22.0015 11.5383V7.82327C22.0015 7.53354 22.1628 7.27215 22.41 7.16151C22.6589 7.05088 22.9422 7.11242 23.1313 7.31675L29.8061 14.5411C29.93 14.6753 30 14.8575 30 15.0476V15.957C29.9997 16.3525 29.7032 16.6733 29.3378 16.6733ZM23.3249 9.55235V11.5383C23.3249 13.58 24.7586 15.2406 26.5213 15.2406H28.5804L23.3249 9.55235Z" fill="#FFA755"/>
<path d="M24.0277 15.262H14.3831C14.0908 15.262 13.8538 15.0055 13.8538 14.6891C13.8538 14.3728 14.0908 14.1162 14.3831 14.1162H24.0277C24.32 14.1162 24.557 14.3728 24.557 14.6891C24.557 15.0055 24.32 15.262 24.0277 15.262Z" fill="#FFA755"/>
<path d="M25.616 19.9683H14.3831C14.0908 19.9683 13.8538 19.7121 13.8538 19.3954C13.8538 19.0787 14.0908 18.8225 14.3831 18.8225H25.6163C25.9086 18.8225 26.1456 19.0787 26.1456 19.3954C26.1456 19.7121 25.9086 19.9683 25.616 19.9683Z" fill="#FFA755"/>
<path d="M25.616 24.6749H14.3831C14.0908 24.6749 13.8538 24.4187 13.8538 24.102C13.8538 23.7853 14.0908 23.5291 14.3831 23.5291H25.6163C25.9086 23.5291 26.1456 23.7853 26.1456 24.102C26.1456 24.4187 25.9086 24.6749 25.616 24.6749Z" fill="#FFA755"/>
</svg>
