<svg width="12" height="15" viewBox="0 0 12 15" fill="none" xmlns="http://www.w3.org/2000/svg">
<mask id="path-1-inside-1_601_448" fill="white">
<path d="M0 12.3737C0 12.9092 0.420774 13.345 0.9379 13.345H4.1268C4.27208 14.2816 5.05554 15 6 15C6.94446 15 7.72792 14.2816 7.8732 13.345H11.0621C11.5792 13.345 12 12.9092 12 12.3737C12 11.9209 11.6979 11.5425 11.2924 11.4355C10.6023 9.81527 10.2494 8.09654 10.2494 6.32233V5.96497C10.2494 3.85733 8.81083 2.09274 6.89766 1.6646C6.99674 1.49801 7.0568 1.30392 7.0568 1.09436C7.0568 0.491028 6.58269 0 6 0C5.41731 0 4.9432 0.491028 4.9432 1.09436C4.9432 1.30392 5.00326 1.49801 5.10234 1.6646C3.18917 2.09274 1.75057 3.85733 1.75057 5.96497V6.32233C1.75057 8.09654 1.3977 9.81527 0.707551 11.4355C0.302081 11.5425 0 11.9209 0 12.3737ZM6 14.375C5.38963 14.375 4.8798 13.9344 4.743 13.345H7.257C7.1202 13.9344 6.61037 14.375 6 14.375ZM5.54667 1.09436C5.54667 0.835571 5.74998 0.625 6 0.625C6.25002 0.625 6.45333 0.835571 6.45333 1.09436C6.45333 1.35315 6.25002 1.56372 6 1.56372C5.74998 1.56372 5.54667 1.35315 5.54667 1.09436ZM2.35403 6.32233V5.96497C2.35403 3.88275 3.98954 2.18872 6 2.18872C8.01046 2.18872 9.64597 3.88275 9.64597 5.96497V6.32233C9.64597 7.55182 9.80799 8.75576 10.1252 9.92157H5.37694C5.21031 9.92157 5.07521 10.0613 5.07521 10.2341C5.07521 10.4068 5.21031 10.5466 5.37694 10.5466H10.3103C10.4039 10.8348 10.5103 11.1195 10.6235 11.4023H1.37654C2.02285 9.78626 2.35403 8.08048 2.35403 6.32233ZM0.9379 12.0273H11.0621C11.2466 12.0273 11.3965 12.1826 11.3965 12.3737C11.3965 12.5647 11.2466 12.72 11.0621 12.72H0.9379C0.753444 12.72 0.603462 12.5647 0.603462 12.3737C0.603462 12.1826 0.753444 12.0273 0.9379 12.0273Z"/>
</mask>
<path d="M0 12.3737C0 12.9092 0.420774 13.345 0.9379 13.345H4.1268C4.27208 14.2816 5.05554 15 6 15C6.94446 15 7.72792 14.2816 7.8732 13.345H11.0621C11.5792 13.345 12 12.9092 12 12.3737C12 11.9209 11.6979 11.5425 11.2924 11.4355C10.6023 9.81527 10.2494 8.09654 10.2494 6.32233V5.96497C10.2494 3.85733 8.81083 2.09274 6.89766 1.6646C6.99674 1.49801 7.0568 1.30392 7.0568 1.09436C7.0568 0.491028 6.58269 0 6 0C5.41731 0 4.9432 0.491028 4.9432 1.09436C4.9432 1.30392 5.00326 1.49801 5.10234 1.6646C3.18917 2.09274 1.75057 3.85733 1.75057 5.96497V6.32233C1.75057 8.09654 1.3977 9.81527 0.707551 11.4355C0.302081 11.5425 0 11.9209 0 12.3737ZM6 14.375C5.38963 14.375 4.8798 13.9344 4.743 13.345H7.257C7.1202 13.9344 6.61037 14.375 6 14.375ZM5.54667 1.09436C5.54667 0.835571 5.74998 0.625 6 0.625C6.25002 0.625 6.45333 0.835571 6.45333 1.09436C6.45333 1.35315 6.25002 1.56372 6 1.56372C5.74998 1.56372 5.54667 1.35315 5.54667 1.09436ZM2.35403 6.32233V5.96497C2.35403 3.88275 3.98954 2.18872 6 2.18872C8.01046 2.18872 9.64597 3.88275 9.64597 5.96497V6.32233C9.64597 7.55182 9.80799 8.75576 10.1252 9.92157H5.37694C5.21031 9.92157 5.07521 10.0613 5.07521 10.2341C5.07521 10.4068 5.21031 10.5466 5.37694 10.5466H10.3103C10.4039 10.8348 10.5103 11.1195 10.6235 11.4023H1.37654C2.02285 9.78626 2.35403 8.08048 2.35403 6.32233ZM0.9379 12.0273H11.0621C11.2466 12.0273 11.3965 12.1826 11.3965 12.3737C11.3965 12.5647 11.2466 12.72 11.0621 12.72H0.9379C0.753444 12.72 0.603462 12.5647 0.603462 12.3737C0.603462 12.1826 0.753444 12.0273 0.9379 12.0273Z" fill="#2E2727"/>
<path d="M4.1268 13.345L5.11498 13.1917L4.98363 12.345H4.1268V13.345ZM7.8732 13.345V12.345H7.01637L6.88502 13.1917L7.8732 13.345ZM11.2924 11.4355L10.3724 11.8273L10.5641 12.2774L11.0371 12.4023L11.2924 11.4355ZM6.89766 1.6646L6.03819 1.15342L5.33295 2.33917L6.67928 2.64046L6.89766 1.6646ZM7.0568 1.09436H6.0568H7.0568ZM5.10234 1.6646L5.32072 2.64046L6.66705 2.33917L5.96181 1.15342L5.10234 1.6646ZM0.707551 11.4355L0.962925 12.4023L1.43586 12.2774L1.62756 11.8273L0.707551 11.4355ZM4.743 13.345V12.345H3.48431L3.7689 13.5711L4.743 13.345ZM7.257 13.345L8.2311 13.5711L8.51569 12.345H7.257V13.345ZM10.1252 9.92157V10.9216H11.4337L11.0902 9.65899L10.1252 9.92157ZM10.3103 10.5466L11.2615 10.2379L11.0372 9.54657H10.3103V10.5466ZM10.6235 11.4023V12.4023H12.1004L11.552 11.0309L10.6235 11.4023ZM1.37654 11.4023L0.448043 11.0309L-0.100418 12.4023H1.37654V11.4023ZM-1 12.3737C-1 13.4282 -0.164276 14.345 0.9379 14.345V12.345C0.950513 12.345 0.963827 12.3479 0.975038 12.3529C0.985447 12.3574 0.991465 12.3625 0.994421 12.3656C1.00017 12.3715 1 12.376 1 12.3737H-1ZM0.9379 14.345H4.1268V12.345H0.9379V14.345ZM3.13861 13.4983C3.35385 14.8858 4.52655 16 6 16V14C5.58453 14 5.19031 13.6774 5.11498 13.1917L3.13861 13.4983ZM6 16C7.47345 16 8.64615 14.8858 8.86138 13.4983L6.88502 13.1917C6.80969 13.6774 6.41547 14 6 14V16ZM7.8732 14.345H11.0621V12.345H7.8732V14.345ZM11.0621 14.345C12.1643 14.345 13 13.4282 13 12.3737H11C11 12.376 10.9998 12.3715 11.0056 12.3656C11.0085 12.3625 11.0146 12.3574 11.025 12.3529C11.0362 12.3479 11.0495 12.345 11.0621 12.345V14.345ZM13 12.3737C13 11.4704 12.3955 10.6925 11.5478 10.4686L11.0371 12.4023C11.0172 12.397 11.0078 12.3875 11.0048 12.3835C11.0028 12.381 11.0016 12.3785 11.0008 12.3762C10.9999 12.3735 11 12.3723 11 12.3737H13ZM12.2125 11.0436C11.575 9.54704 11.2494 7.96158 11.2494 6.32233H9.24943C9.24943 8.2315 9.62962 10.0835 10.3724 11.8273L12.2125 11.0436ZM11.2494 6.32233V5.96497H9.24943V6.32233H11.2494ZM11.2494 5.96497C11.2494 3.40085 9.49734 1.22164 7.11605 0.688738L6.67928 2.64046C8.12431 2.96384 9.24943 4.3138 9.24943 5.96497H11.2494ZM7.75714 2.17578C7.94026 1.86788 8.0568 1.49876 8.0568 1.09436H6.0568C6.0568 1.10908 6.05322 1.12815 6.03819 1.15342L7.75714 2.17578ZM8.0568 1.09436C8.0568 -0.0280053 7.16765 -1 6 -1V1C6.00283 1 6.0123 0.999784 6.02755 1.01557C6.04334 1.03192 6.0568 1.0582 6.0568 1.09436H8.0568ZM6 -1C4.83235 -1 3.9432 -0.0280052 3.9432 1.09436H5.9432C5.9432 1.0582 5.95666 1.03192 5.97245 1.01557C5.9877 0.999784 5.99717 1 6 1V-1ZM3.9432 1.09436C3.9432 1.49876 4.05974 1.86788 4.24286 2.17578L5.96181 1.15342C5.94678 1.12815 5.9432 1.10908 5.9432 1.09436H3.9432ZM4.88395 0.688738C2.50266 1.22164 0.750571 3.40085 0.750571 5.96497H2.75057C2.75057 4.3138 3.87569 2.96384 5.32072 2.64046L4.88395 0.688738ZM0.750571 5.96497V6.32233H2.75057V5.96497H0.750571ZM0.750571 6.32233C0.750571 7.96158 0.425013 9.54704 -0.212459 11.0436L1.62756 11.8273C2.37038 10.0835 2.75057 8.2315 2.75057 6.32233H0.750571ZM0.452176 10.4686C-0.395506 10.6925 -1 11.4704 -1 12.3737H1C1 12.3723 1.00014 12.3735 0.999221 12.3762C0.998425 12.3785 0.997151 12.381 0.995241 12.3835C0.992162 12.3875 0.982838 12.397 0.962925 12.4023L0.452176 10.4686ZM6 13.375C5.89304 13.375 5.75762 13.2935 5.71711 13.1189L3.7689 13.5711C4.00197 14.5753 4.88623 15.375 6 15.375V13.375ZM4.743 14.345H7.257V12.345H4.743V14.345ZM6.28289 13.1189C6.24238 13.2935 6.10696 13.375 6 13.375V15.375C7.11377 15.375 7.99803 14.5753 8.2311 13.5711L6.28289 13.1189ZM6.54667 1.09436C6.54667 1.35473 6.33482 1.625 6 1.625V-0.375C5.16514 -0.375 4.54667 0.316415 4.54667 1.09436H6.54667ZM6 1.625C5.66518 1.625 5.45333 1.35473 5.45333 1.09436H7.45333C7.45333 0.316415 6.83486 -0.375 6 -0.375V1.625ZM5.45333 1.09436C5.45333 0.833993 5.66518 0.563721 6 0.563721V2.56372C6.83486 2.56372 7.45333 1.87231 7.45333 1.09436H5.45333ZM6 0.563721C6.33482 0.563721 6.54667 0.833993 6.54667 1.09436H4.54667C4.54667 1.87231 5.16514 2.56372 6 2.56372V0.563721ZM3.35403 6.32233V5.96497H1.35403V6.32233H3.35403ZM3.35403 5.96497C3.35403 4.40164 4.57464 3.18872 6 3.18872V1.18872C3.40444 1.18872 1.35403 3.36386 1.35403 5.96497H3.35403ZM6 3.18872C7.42536 3.18872 8.64597 4.40164 8.64597 5.96497H10.646C10.646 3.36386 8.59556 1.18872 6 1.18872V3.18872ZM8.64597 5.96497V6.32233H10.646V5.96497H8.64597ZM8.64597 6.32233C8.64597 7.64036 8.81975 8.93261 9.16034 10.1842L11.0902 9.65899C10.7962 8.57891 10.646 7.46328 10.646 6.32233H8.64597ZM10.1252 8.92157H5.37694V10.9216H10.1252V8.92157ZM5.37694 8.92157C4.62558 8.92157 4.07521 9.54208 4.07521 10.2341H6.07521C6.07521 10.5806 5.79505 10.9216 5.37694 10.9216V8.92157ZM4.07521 10.2341C4.07521 10.9261 4.62558 11.5466 5.37694 11.5466V9.54657C5.79505 9.54657 6.07521 9.88754 6.07521 10.2341H4.07521ZM5.37694 11.5466H10.3103V9.54657H5.37694V11.5466ZM9.35918 10.8552C9.46161 11.1709 9.57651 11.4775 9.69497 11.7736L11.552 11.0309C11.4442 10.7615 11.3461 10.4986 11.2615 10.2379L9.35918 10.8552ZM10.6235 10.4023H1.37654V12.4023H10.6235V10.4023ZM2.30503 11.7736C2.99844 10.0399 3.35403 8.20808 3.35403 6.32233H1.35403C1.35403 7.95289 1.04727 9.53266 0.448043 11.0309L2.30503 11.7736ZM0.9379 13.0273H11.0621V11.0273H0.9379V13.0273ZM11.0621 13.0273C10.6615 13.0273 10.3965 12.7016 10.3965 12.3737H12.3965C12.3965 11.6637 11.8316 11.0273 11.0621 11.0273V13.0273ZM10.3965 12.3737C10.3965 12.0458 10.6615 11.72 11.0621 11.72V13.72C11.8316 13.72 12.3965 13.0836 12.3965 12.3737H10.3965ZM11.0621 11.72H0.9379V13.72H11.0621V11.72ZM0.9379 11.72C1.33849 11.72 1.60346 12.0458 1.60346 12.3737H-0.396538C-0.396538 13.0836 0.168395 13.72 0.9379 13.72V11.72ZM1.60346 12.3737C1.60346 12.7016 1.33849 13.0273 0.9379 13.0273V11.0273C0.168395 11.0273 -0.396538 11.6637 -0.396538 12.3737H1.60346Z" fill="#2E2727" mask="url(#path-1-inside-1_601_448)"/>
<mask id="path-3-inside-2_601_448" fill="white">
<path d="M3.79905 10.5466H4.34859C4.51522 10.5466 4.65032 10.4069 4.65032 10.2341C4.65032 10.0614 4.51522 9.92163 4.34859 9.92163H3.79905C3.63242 9.92163 3.49731 10.0614 3.49731 10.2341C3.49731 10.4069 3.63242 10.5466 3.79905 10.5466Z"/>
</mask>
<path d="M3.79905 10.5466H4.34859C4.51522 10.5466 4.65032 10.4069 4.65032 10.2341C4.65032 10.0614 4.51522 9.92163 4.34859 9.92163H3.79905C3.63242 9.92163 3.49731 10.0614 3.49731 10.2341C3.49731 10.4069 3.63242 10.5466 3.79905 10.5466Z" fill="#2E2727"/>
<path d="M3.79905 11.5466H4.34859V9.54663H3.79905V11.5466ZM4.34859 11.5466C5.09995 11.5466 5.65032 10.9261 5.65032 10.2341H3.65032C3.65032 9.8876 3.93048 9.54663 4.34859 9.54663V11.5466ZM5.65032 10.2341C5.65032 9.54214 5.09995 8.92163 4.34859 8.92163V10.9216C3.93048 10.9216 3.65032 10.5807 3.65032 10.2341H5.65032ZM4.34859 8.92163H3.79905V10.9216H4.34859V8.92163ZM3.79905 8.92163C3.04768 8.92163 2.49731 9.54214 2.49731 10.2341H4.49731C4.49731 10.5807 4.21715 10.9216 3.79905 10.9216V8.92163ZM2.49731 10.2341C2.49731 10.9261 3.04768 11.5466 3.79905 11.5466V9.54663C4.21715 9.54663 4.49731 9.8876 4.49731 10.2341H2.49731Z" fill="#2E2727" mask="url(#path-3-inside-2_601_448)"/>
<circle cx="2" cy="2" r="2" transform="matrix(1 0 0 -1 8 8)" fill="#086D30"/>
</svg>
