<svg width="50" height="50" viewBox="0 0 50 50" fill="none" xmlns="http://www.w3.org/2000/svg">
<circle cx="25" cy="25" r="25" fill="#2A11C0" fill-opacity="0.1"/>
<path d="M39.8641 14.4172L39.3953 13.9484C39.3515 13.905 39.2996 13.8706 39.2425 13.8473C39.1853 13.824 39.1242 13.8121 39.0625 13.8125H37.1875V11.4687C37.1875 11.3444 37.1381 11.2252 37.0502 11.1373C36.9623 11.0494 36.8431 11 36.7187 11H22.6563C22.5319 11 22.4127 11.0494 22.3248 11.1373C22.2369 11.2252 22.1875 11.3444 22.1875 11.4687V13.8125H21.25V14.75H22.1875V16.625H21.25V17.5625H38.125V16.625H37.1875V14.75H38.8703L39.0625 14.9422V30.6875H10.9375V14.9422L11.1297 14.75H11.875V13.8125H10.9375C10.8758 13.8121 10.8147 13.824 10.7576 13.8473C10.7004 13.8706 10.6485 13.905 10.6047 13.9484L10.1359 14.4172C10.0925 14.461 10.0581 14.5129 10.0348 14.57C10.0115 14.6272 9.99965 14.6883 10 14.75V38.6562C10 38.7806 10.0494 38.8998 10.1373 38.9877C10.2252 39.0756 10.3444 39.125 10.4688 39.125H39.5312C39.6556 39.125 39.7748 39.0756 39.8627 38.9877C39.9506 38.8998 40 38.7806 40 38.6562V14.75C40.0004 14.6883 39.9885 14.6272 39.9652 14.57C39.9419 14.5129 39.9075 14.461 39.8641 14.4172ZM34.375 16.625H25V13.8125H34.375V16.625ZM36.25 16.625H35.3125V13.3437C35.3125 13.2194 35.2631 13.1002 35.1752 13.0123C35.0873 12.9244 34.9681 12.875 34.8437 12.875H24.5313C24.4069 12.875 24.2877 12.9244 24.1998 13.0123C24.1119 13.1002 24.0625 13.2194 24.0625 13.3437V16.625H23.125V11.9375H36.25V16.625ZM39.0625 32.5625H29.2187V33.5H39.0625V38.1875H10.9375V33.5H20.7813V32.5625H10.9375V31.625H39.0625V32.5625Z" fill="#2A11C0"/>
<path d="M24.5312 21.7812H26.4062C26.5306 21.7812 26.6498 21.7319 26.7377 21.644C26.8256 21.556 26.875 21.4368 26.875 21.3125V19.4375C26.875 19.3132 26.8256 19.194 26.7377 19.106C26.6498 19.0181 26.5306 18.9688 26.4062 18.9688H24.5312C24.4069 18.9688 24.2877 19.0181 24.1998 19.106C24.1119 19.194 24.0625 19.3132 24.0625 19.4375V21.3125C24.0625 21.4368 24.1119 21.556 24.1998 21.644C24.2877 21.7319 24.4069 21.7812 24.5312 21.7812ZM25 19.9062H25.9375V20.8437H25V19.9062Z" fill="#2A11C0"/>
<path d="M32.9687 21.7812H34.8437C34.9681 21.7812 35.0873 21.7319 35.1752 21.644C35.2631 21.556 35.3125 21.4368 35.3125 21.3125V19.4375C35.3125 19.3132 35.2631 19.194 35.1752 19.106C35.0873 19.0181 34.9681 18.9688 34.8437 18.9688H32.9687C32.8444 18.9688 32.7252 19.0181 32.6373 19.106C32.5494 19.194 32.5 19.3132 32.5 19.4375V21.3125C32.5 21.4368 32.5494 21.556 32.6373 21.644C32.7252 21.7319 32.8444 21.7812 32.9687 21.7812ZM33.4375 19.9062H34.375V20.8437H33.4375V19.9062Z" fill="#2A11C0"/>
<path d="M28.75 21.7812H30.625C30.7493 21.7812 30.8685 21.7319 30.9565 21.644C31.0444 21.556 31.0937 21.4368 31.0937 21.3125V19.4375C31.0937 19.3132 31.0444 19.194 30.9565 19.106C30.8685 19.0181 30.7493 18.9688 30.625 18.9688H28.75C28.6257 18.9688 28.5065 19.0181 28.4185 19.106C28.3306 19.194 28.2812 19.3132 28.2812 19.4375V21.3125C28.2812 21.4368 28.3306 21.556 28.4185 21.644C28.5065 21.7319 28.6257 21.7812 28.75 21.7812ZM29.2187 19.9062H30.1562V20.8437H29.2187V19.9062Z" fill="#2A11C0"/>
<path d="M28.2812 25.0625C28.2812 25.1868 28.3306 25.306 28.4185 25.394C28.5065 25.4819 28.6257 25.5312 28.75 25.5312H30.625C30.7493 25.5312 30.8685 25.4819 30.9565 25.394C31.0444 25.306 31.0937 25.1868 31.0937 25.0625V23.1875C31.0937 23.0632 31.0444 22.944 30.9565 22.856C30.8685 22.7681 30.7493 22.7188 30.625 22.7188H28.75C28.6257 22.7188 28.5065 22.7681 28.4185 22.856C28.3306 22.944 28.2812 23.0632 28.2812 23.1875V25.0625ZM29.2187 23.6562H30.1562V24.5937H29.2187V23.6562Z" fill="#2A11C0"/>
<path d="M32.5 25.0625C32.5 25.1868 32.5494 25.306 32.6373 25.394C32.7252 25.4819 32.8444 25.5312 32.9687 25.5312H34.8437C34.9681 25.5312 35.0873 25.4819 35.1752 25.394C35.2631 25.306 35.3125 25.1868 35.3125 25.0625V23.1875C35.3125 23.0632 35.2631 22.944 35.1752 22.856C35.0873 22.7681 34.9681 22.7188 34.8437 22.7188H32.9687C32.8444 22.7188 32.7252 22.7681 32.6373 22.856C32.5494 22.944 32.5 23.0632 32.5 23.1875V25.0625ZM33.4375 23.6562H34.375V24.5937H33.4375V23.6562Z" fill="#2A11C0"/>
<path d="M24.0625 25.0625C24.0625 25.1868 24.1119 25.306 24.1998 25.394C24.2877 25.4819 24.4069 25.5312 24.5312 25.5312H26.4062C26.5306 25.5312 26.6498 25.4819 26.7377 25.394C26.8256 25.306 26.875 25.1868 26.875 25.0625V23.1875C26.875 23.0632 26.8256 22.944 26.7377 22.856C26.6498 22.7681 26.5306 22.7188 26.4062 22.7188H24.5312C24.4069 22.7188 24.2877 22.7681 24.1998 22.856C24.1119 22.944 24.0625 23.0632 24.0625 23.1875V25.0625ZM25 23.6562H25.9375V24.5937H25V23.6562Z" fill="#2A11C0"/>
<path d="M28.2812 28.8125C28.2812 28.9368 28.3306 29.056 28.4185 29.144C28.5065 29.2319 28.6257 29.2812 28.75 29.2812H30.625C30.7493 29.2812 30.8685 29.2319 30.9565 29.144C31.0444 29.056 31.0937 28.9368 31.0937 28.8125V26.9375C31.0937 26.8132 31.0444 26.694 30.9565 26.606C30.8685 26.5181 30.7493 26.4688 30.625 26.4688H28.75C28.6257 26.4688 28.5065 26.5181 28.4185 26.606C28.3306 26.694 28.2812 26.8132 28.2812 26.9375V28.8125ZM29.2187 27.4062H30.1562V28.3437H29.2187V27.4062Z" fill="#2A11C0"/>
<path d="M32.5 28.8125C32.5 28.9368 32.5494 29.056 32.6373 29.144C32.7252 29.2319 32.8444 29.2812 32.9687 29.2812H34.8437C34.9681 29.2812 35.0873 29.2319 35.1752 29.144C35.2631 29.056 35.3125 28.9368 35.3125 28.8125V26.9375C35.3125 26.8132 35.2631 26.694 35.1752 26.606C35.0873 26.5181 34.9681 26.4688 34.8437 26.4688H32.9687C32.8444 26.4688 32.7252 26.5181 32.6373 26.606C32.5494 26.694 32.5 26.8132 32.5 26.9375V28.8125ZM33.4375 27.4062H34.375V28.3437H33.4375V27.4062Z" fill="#2A11C0"/>
<path d="M24.0625 28.8125C24.0625 28.9368 24.1119 29.056 24.1998 29.144C24.2877 29.2319 24.4069 29.2812 24.5312 29.2812H26.4062C26.5306 29.2812 26.6498 29.2319 26.7377 29.144C26.8256 29.056 26.875 28.9368 26.875 28.8125V26.9375C26.875 26.8132 26.8256 26.694 26.7377 26.606C26.6498 26.5181 26.5306 26.4688 26.4062 26.4688H24.5312C24.4069 26.4688 24.2877 26.5181 24.1998 26.606C24.1119 26.694 24.0625 26.8132 24.0625 26.9375V28.8125ZM25 27.4062H25.9375V28.3437H25V27.4062Z" fill="#2A11C0"/>
<path d="M22.6562 36.7812C22.6562 36.9056 22.7056 37.0248 22.7935 37.1127C22.8815 37.2006 23.0007 37.25 23.125 37.25H26.875C26.9993 37.25 27.1185 37.2006 27.2065 37.1127C27.2944 37.0248 27.3437 36.9056 27.3437 36.7812V35.8437H28.2812V34.9062H21.7188V35.8437H22.6562V36.7812ZM23.5937 35.8437H26.4062V36.3125H23.5937V35.8437Z" fill="#2A11C0"/>
<path d="M11.875 21.3125C11.875 21.5612 11.9738 21.7996 12.1496 21.9754C12.3254 22.1513 12.5639 22.25 12.8125 22.25H20.3125C20.5611 22.25 20.7996 22.1513 20.9754 21.9754C21.1512 21.7996 21.25 21.5612 21.25 21.3125V20.375C21.25 20.2507 21.2006 20.1315 21.1127 20.0436C21.0248 19.9557 20.9056 19.9063 20.7812 19.9063H20.3125V12.4063C20.3125 12.3167 20.2868 12.2289 20.2385 12.1535C20.1902 12.078 20.1212 12.018 20.0399 11.9805C19.9585 11.943 19.868 11.9296 19.7793 11.942C19.6905 11.9543 19.6072 11.9918 19.5391 12.05L18.7469 12.725L17.9687 12.05C17.8838 11.9774 17.7758 11.9375 17.6641 11.9375C17.5523 11.9375 17.4443 11.9774 17.3594 12.05L16.5625 12.725L15.7703 12.05C15.6854 11.9774 15.5774 11.9375 15.4656 11.9375C15.3539 11.9375 15.2458 11.9774 15.1609 12.05L14.3734 12.725L13.5859 12.05C13.5178 11.9918 13.4345 11.9543 13.3457 11.942C13.257 11.9296 13.1665 11.943 13.0851 11.9805C13.0038 12.018 12.9348 12.078 12.8865 12.1535C12.8382 12.2289 12.8125 12.3167 12.8125 12.4063V19.9063H12.3437C12.2194 19.9063 12.1002 19.9557 12.0123 20.0436C11.9244 20.1315 11.875 20.2507 11.875 20.375V21.3125ZM13.75 13.4282L14.0687 13.7C14.1537 13.7727 14.2617 13.8126 14.3734 13.8126C14.4852 13.8126 14.5932 13.7727 14.6781 13.7L15.4656 13.025L16.2531 13.7C16.338 13.7727 16.4461 13.8126 16.5578 13.8126C16.6695 13.8126 16.7776 13.7727 16.8625 13.7L17.65 13.025L18.4375 13.7C18.5224 13.7727 18.6305 13.8126 18.7422 13.8126C18.8539 13.8126 18.962 13.7727 19.0469 13.7L19.375 13.4235V19.9063H13.75V13.4282ZM12.8125 20.8438H20.3125V21.3125H12.8125V20.8438Z" fill="#2A11C0"/>
<path d="M18.4375 15.2188H14.6875V16.1562H18.4375V15.2188Z" fill="#2A11C0"/>
<path d="M16.5625 17.0938H14.6875V18.0312H16.5625V17.0938Z" fill="#2A11C0"/>
<path d="M18.4375 17.0938H17.5V18.0312H18.4375V17.0938Z" fill="#2A11C0"/>
<path d="M12.8125 23.6562C12.6882 23.6562 12.569 23.7056 12.481 23.7935C12.3931 23.8815 12.3438 24.0007 12.3438 24.125V28.8125C12.3438 28.9368 12.3931 29.056 12.481 29.144C12.569 29.2319 12.6882 29.2812 12.8125 29.2812H20.3125C20.4368 29.2812 20.556 29.2319 20.644 29.144C20.7319 29.056 20.7812 28.9368 20.7812 28.8125V24.125C20.7812 24.0007 20.7319 23.8815 20.644 23.7935C20.556 23.7056 20.4368 23.6562 20.3125 23.6562H12.8125ZM19.8437 28.3437H13.2812V26.4687H19.8437V28.3437ZM19.8437 25.5312H13.2812V24.5937H19.8437V25.5312Z" fill="#2A11C0"/>
<path d="M27.8125 32.5625H22.1875V33.5H27.8125V32.5625Z" fill="#2A11C0"/>
</svg>
