<svg width="16" height="11" viewBox="0 0 16 11" fill="none" xmlns="http://www.w3.org/2000/svg">
<path d="M8.05534 5.13211C9.42544 5.13211 10.5464 3.97324 10.5464 2.55686C10.5464 1.14047 9.42544 0 8.05534 0C6.68523 0 5.58203 1.14047 5.58203 2.55686C5.58203 3.97324 6.68523 5.13211 8.05534 5.13211ZM8.05534 0.570234C9.10516 0.570234 9.97704 1.45318 9.97704 2.55686C9.97704 3.66054 9.12295 4.54348 8.05534 4.54348C7.00552 4.54348 6.13363 3.66054 6.13363 2.55686C6.13363 1.45318 7.00552 0.570234 8.05534 0.570234Z" fill="#857C7C"/>
<path d="M10.6359 6.43813C9.88854 5.8311 8.99886 5.5 8.07359 5.5C7.14833 5.5 6.25865 5.8311 5.51132 6.43813C4.78178 7.02676 4.23018 7.85451 3.9099 8.82943C3.73196 9.36288 3.82093 9.9515 4.12342 10.393C4.39032 10.7793 4.79958 11 5.22662 11H10.9384C11.3654 11 11.7747 10.7793 12.0416 10.393C12.344 9.9515 12.433 9.36288 12.2551 8.82943C11.917 7.85451 11.3654 7.02676 10.6359 6.43813ZM11.5611 10.0619C11.401 10.301 11.1697 10.4298 10.9206 10.4298H5.20883C4.95972 10.4298 4.7284 10.301 4.56826 10.0619C4.37253 9.76756 4.31915 9.38127 4.42591 9.03177C4.71061 8.16722 5.20883 7.43144 5.8494 6.91639C6.50776 6.38294 7.27288 6.10702 8.07359 6.10702C8.8743 6.10702 9.63943 6.38294 10.2978 6.91639C10.9384 7.44983 11.4366 8.18562 11.7213 9.03177C11.828 9.36288 11.7747 9.76756 11.5611 10.0619Z" fill="#857C7C"/>
<path d="M2.93068 5.24254C3.87374 5.24254 4.62107 4.45157 4.62107 3.49505C4.62107 2.52013 3.85595 1.74756 2.93068 1.74756C1.98762 1.74756 1.24029 2.53853 1.24029 3.49505C1.2225 4.45157 1.98762 5.24254 2.93068 5.24254ZM2.93068 2.13385C3.66022 2.13385 4.24741 2.74087 4.24741 3.49505C4.24741 4.24923 3.66022 4.85625 2.93068 4.85625C2.20115 4.85625 1.61396 4.24923 1.61396 3.49505C1.61396 2.74087 2.20115 2.13385 2.93068 2.13385Z" fill="#857C7C"/>
<path d="M13.0377 4.85608C13.9986 4.85608 14.7815 4.04672 14.7815 3.05341C14.7815 2.0601 13.9986 1.25073 13.0377 1.25073C12.0769 1.25073 11.2939 2.0601 11.2939 3.05341C11.2939 4.04672 12.0769 4.85608 13.0377 4.85608ZM13.0377 1.67381C13.785 1.67381 14.39 2.29923 14.39 3.0718C14.39 3.84438 13.785 4.4698 13.0377 4.4698C12.2904 4.4698 11.6854 3.84438 11.6854 3.0718C11.6854 2.29923 12.2904 1.67381 13.0377 1.67381Z" fill="#857C7C"/>
<path d="M15.938 7.45013C15.7067 6.76953 15.3152 6.1993 14.817 5.77622C14.2832 5.35314 13.6604 5.11401 13.0198 5.11401C12.3793 5.11401 11.7565 5.33475 11.2227 5.77622C11.0626 5.90498 10.9202 6.05214 10.7957 6.1993C10.849 6.23609 10.9202 6.29127 10.9736 6.32806C11.027 6.36485 11.0626 6.40164 11.1159 6.43843C11.2227 6.30967 11.3473 6.1809 11.4718 6.08893C11.9344 5.72104 12.4682 5.5187 13.0198 5.5187C13.5715 5.5187 14.1231 5.72104 14.5679 6.08893C15.0127 6.45682 15.3686 6.97187 15.5643 7.5789C15.6533 7.83642 15.6177 8.09395 15.4754 8.31468C15.3686 8.48023 15.1907 8.57221 15.0127 8.57221H12.5038C12.5216 8.62739 12.5394 8.68257 12.5572 8.71936C12.5928 8.81134 12.6106 8.88492 12.6284 8.97689H15.0127C15.3152 8.97689 15.5999 8.81134 15.7956 8.55381C15.9914 8.2411 16.0625 7.83642 15.938 7.45013Z" fill="#857C7C"/>
<path d="M0.528808 8.6087C0.386459 8.40635 0.350872 8.14883 0.43984 7.8913C0.635569 7.30268 0.973647 6.80602 1.41849 6.43813C1.86332 6.07023 2.39713 5.88629 2.93094 5.88629C3.48254 5.88629 3.99855 6.07023 4.44339 6.43813C4.55015 6.51171 4.63912 6.60368 4.72809 6.69565C4.81706 6.60368 4.90602 6.51171 5.01279 6.41973C4.90602 6.30936 4.79926 6.199 4.6925 6.10702C4.15869 5.72074 3.55371 5.5 2.93094 5.5C2.30816 5.5 1.68539 5.72074 1.16938 6.14381C0.671156 6.54849 0.297491 7.11873 0.066175 7.78094C-0.0583799 8.14883 -0.00499929 8.53512 0.208523 8.84783C0.386459 9.10535 0.671156 9.2709 0.955853 9.2709H3.39357C3.39357 9.14214 3.41137 9.01338 3.44695 8.86622H0.955853C0.795711 8.86622 0.635569 8.77425 0.528808 8.6087Z" fill="#857C7C"/>
</svg>
