<svg width="15" height="12" viewBox="0 0 15 12" fill="none" xmlns="http://www.w3.org/2000/svg">
<path d="M1.90046 11.7239V10.5665C1.90046 10.4147 1.79245 10.2905 1.66043 10.2905C1.52842 10.2905 1.42041 10.4147 1.42041 10.5665V11.7239C1.42041 11.8757 1.52842 11.9999 1.66043 11.9999C1.79245 11.9999 1.90046 11.8757 1.90046 11.7239Z" fill="#857C7C"/>
<path d="M4.49738 11.7239V10.5665C4.49738 10.4147 4.38937 10.2905 4.25736 10.2905C4.12534 10.2905 4.01733 10.4147 4.01733 10.5665V11.7239C4.01733 11.8757 4.12534 11.9999 4.25736 11.9999C4.38937 11.9999 4.49738 11.8757 4.49738 11.7239Z" fill="#857C7C"/>
<path d="M2.95985 7.52048C3.75793 7.52048 4.409 6.77361 4.409 5.85425C4.409 5.29194 4.16447 4.7969 3.79244 4.49504C3.86894 4.43122 3.94845 4.37258 4.02946 4.32083C4.76153 3.85339 5.69913 3.85339 6.4312 4.32083C6.51371 4.3743 6.59322 4.43295 6.66972 4.49677C6.29769 4.79862 6.05316 5.29366 6.05316 5.85597C6.05316 6.77361 6.70273 7.52221 7.50231 7.52221C8.30039 7.52221 8.95145 6.77534 8.95145 5.85597C8.95145 5.29366 8.70693 4.79862 8.33489 4.49677C8.4114 4.43295 8.49091 4.3743 8.57191 4.32083C9.30399 3.85339 10.2401 3.85166 10.9737 4.32083C11.0562 4.37258 11.1342 4.43295 11.2107 4.49504C10.8386 4.7969 10.5941 5.29194 10.5941 5.85425C10.5941 6.77189 11.2437 7.52048 12.0433 7.52048C12.8413 7.52048 13.4924 6.77361 13.4924 5.85425C13.4924 4.93661 12.8428 4.18801 12.0433 4.18801C11.9247 4.18801 11.8107 4.20871 11.7012 4.23976C11.5467 4.08625 11.3832 3.94826 11.2077 3.83614C10.3316 3.27728 9.21398 3.27728 8.33939 3.83614C8.16237 3.94826 8.00036 4.08797 7.84584 4.23976C7.73483 4.20871 7.62232 4.18801 7.50231 4.18801C7.3838 4.18801 7.26978 4.20871 7.15877 4.23976C7.00576 4.08797 6.84224 3.94826 6.66522 3.83614C5.78914 3.27728 4.67002 3.27728 3.79694 3.83614C3.61992 3.94826 3.4564 4.08797 3.30339 4.23976C3.19388 4.20871 3.07987 4.18801 2.96135 4.18801C2.16327 4.18801 1.51221 4.93489 1.51221 5.85425C1.51071 6.77361 2.16027 7.52048 2.95985 7.52048ZM13.0109 5.85425C13.0109 6.46831 12.5758 6.9668 12.0433 6.9668C11.5092 6.9668 11.0757 6.46831 11.0757 5.85425C11.0757 5.24019 11.5092 4.7417 12.0433 4.7417C12.5758 4.7417 13.0109 5.24019 13.0109 5.85425ZM8.4684 5.85425C8.4684 6.46831 8.03336 6.9668 7.50081 6.9668C6.96675 6.9668 6.53321 6.46831 6.53321 5.85425C6.53321 5.24019 6.96675 4.7417 7.50081 4.7417C8.03486 4.7417 8.4684 5.24019 8.4684 5.85425ZM2.95985 4.7417C3.49391 4.7417 3.92745 5.24192 3.92745 5.85425C3.92745 6.46831 3.49241 6.9668 2.95985 6.9668C2.4258 6.9668 1.99226 6.46831 1.99226 5.85425C1.99226 5.24019 2.4258 4.7417 2.95985 4.7417Z" fill="#857C7C"/>
<path d="M6.44294 11.7239V10.5665C6.44294 10.4147 6.33493 10.2905 6.20291 10.2905C6.0709 10.2905 5.96289 10.4147 5.96289 10.5665V11.7239C5.96289 11.8757 6.0709 11.9999 6.20291 11.9999C6.33493 11.9999 6.44294 11.8757 6.44294 11.7239Z" fill="#857C7C"/>
<path d="M9.0384 11.7239V10.5665C9.0384 10.4147 8.93039 10.2905 8.79837 10.2905C8.66636 10.2905 8.55835 10.4147 8.55835 10.5665V11.7239C8.55835 11.8757 8.66636 11.9999 8.79837 11.9999C8.93039 11.9999 9.0384 11.8757 9.0384 11.7239Z" fill="#857C7C"/>
<path d="M5.22942 3.33247C6.0275 3.33247 6.67856 2.5856 6.67856 1.66624C6.67856 0.748599 6.029 0 5.22942 0C4.43134 0 3.78027 0.746874 3.78027 1.66624C3.78177 2.5856 4.43134 3.33247 5.22942 3.33247ZM5.22942 0.553687C5.76347 0.553687 6.19701 1.05218 6.19701 1.66624C6.19701 2.28029 5.76197 2.77878 5.22942 2.77878C4.69536 2.77878 4.26182 2.28029 4.26182 1.66624C4.26182 1.0539 4.69686 0.553687 5.22942 0.553687Z" fill="#857C7C"/>
<path d="M9.7719 3.33247C10.57 3.33247 11.221 2.5856 11.221 1.66624C11.221 0.748599 10.5715 0 9.7719 0C8.97382 0 8.32275 0.746874 8.32275 1.66624C8.32275 2.5856 8.97232 3.33247 9.7719 3.33247ZM9.7719 0.553687C10.306 0.553687 10.7395 1.05218 10.7395 1.66624C10.7395 2.28029 10.3045 2.77878 9.7719 2.77878C9.23785 2.77878 8.8043 2.28029 8.8043 1.66624C8.8028 1.0539 9.23785 0.553687 9.7719 0.553687Z" fill="#857C7C"/>
<path d="M13.4758 8.02413C12.5998 7.46527 11.4806 7.46527 10.6076 8.02413C10.282 8.23111 10.003 8.50709 9.77348 8.82447C9.53945 8.50192 9.25592 8.22939 8.93489 8.02413C8.0588 7.46527 6.94119 7.46527 6.06661 8.02413C5.74857 8.22766 5.46355 8.50019 5.22952 8.82275C4.9955 8.50019 4.71197 8.22766 4.39244 8.02413C3.51635 7.46527 2.39874 7.46527 1.52415 8.02413C0.585058 8.62611 0 9.76626 0 11.0013V11.724C0 11.8758 0.108011 12 0.240024 12C0.372037 12 0.480048 11.8758 0.480048 11.724V11.0013C0.480048 9.96634 0.969097 9.01076 1.75818 8.50709C2.49025 8.03965 3.42634 8.03965 4.15991 8.50709C4.46745 8.70373 4.73297 8.97799 4.94449 9.30399C4.68497 9.81973 4.54095 10.3993 4.54095 11.0013V11.724C4.54095 11.8758 4.64896 12 4.78098 12C4.91299 12 5.021 11.8758 5.021 11.724V11.0013C5.021 10.4424 5.16201 9.9008 5.42904 9.4368C5.42904 9.4368 5.42904 9.43681 5.42904 9.43508C5.64956 9.05043 5.94959 8.73133 6.29913 8.50882C7.0312 8.04138 7.96729 8.04138 8.70087 8.50882C9.0069 8.70373 9.27243 8.97799 9.48095 9.29881C9.22442 9.80765 9.08191 10.3924 9.08191 11.0013V11.724C9.08191 11.8758 9.18992 12 9.32193 12C9.45394 12 9.56195 11.8758 9.56195 11.724V11.0013C9.56195 9.96634 10.051 9.01076 10.8401 8.50709C11.5722 8.03965 12.5097 8.03793 13.2418 8.50709C14.0294 9.01076 14.5199 9.96634 14.5199 11.0013V11.724C14.5199 11.8758 14.628 12 14.76 12C14.892 12 15 11.8758 15 11.724V11.0013C15.0015 9.76626 14.4164 8.62611 13.4758 8.02413Z" fill="#857C7C"/>
<path d="M10.7439 10.2905C10.6119 10.2905 10.5039 10.4147 10.5039 10.5665V11.7239C10.5039 11.8757 10.6119 11.9999 10.7439 11.9999C10.8759 11.9999 10.984 11.8757 10.984 11.7239V10.5665C10.984 10.413 10.8759 10.2905 10.7439 10.2905Z" fill="#857C7C"/>
<path d="M13.3409 10.2905C13.2088 10.2905 13.1008 10.4147 13.1008 10.5665V11.7239C13.1008 11.8757 13.2088 11.9999 13.3409 11.9999C13.4729 11.9999 13.5809 11.8757 13.5809 11.7239V10.5665C13.5809 10.413 13.4729 10.2905 13.3409 10.2905Z" fill="#857C7C"/>
</svg>
