<svg width="26" height="26" viewBox="0 0 26 26" fill="none" xmlns="http://www.w3.org/2000/svg">
<g opacity="0.7">
<path d="M17.875 1.625H8.125C7.47853 1.625 6.85855 1.88181 6.40143 2.33893C5.94431 2.79605 5.6875 3.41603 5.6875 4.0625V21.9375C5.6875 22.584 5.94431 23.204 6.40143 23.6611C6.85855 24.1182 7.47853 24.375 8.125 24.375H17.875C18.5215 24.375 19.1415 24.1182 19.5986 23.6611C20.0557 23.204 20.3125 22.584 20.3125 21.9375V4.0625C20.3125 3.41603 20.0557 2.79605 19.5986 2.33893C19.1415 1.88181 18.5215 1.625 17.875 1.625ZM18.6875 21.9375C18.6875 22.153 18.6019 22.3597 18.4495 22.512C18.2972 22.6644 18.0905 22.75 17.875 22.75H8.125C7.90951 22.75 7.70285 22.6644 7.55048 22.512C7.3981 22.3597 7.3125 22.153 7.3125 21.9375V4.0625C7.3125 3.84701 7.3981 3.64035 7.55048 3.48798C7.70285 3.3356 7.90951 3.25 8.125 3.25H17.875C18.0905 3.25 18.2972 3.3356 18.4495 3.48798C18.6019 3.64035 18.6875 3.84701 18.6875 4.0625V21.9375ZM14.2188 6.09375C14.2188 6.3348 14.1473 6.57043 14.0134 6.77085C13.8794 6.97127 13.6891 7.12748 13.4664 7.21973C13.2437 7.31197 12.9986 7.33611 12.7622 7.28908C12.5258 7.24206 12.3087 7.12598 12.1382 6.95554C11.9678 6.78509 11.8517 6.56793 11.8047 6.33152C11.7576 6.0951 11.7818 5.85005 11.874 5.62735C11.9663 5.40466 12.1225 5.21431 12.3229 5.0804C12.5233 4.94648 12.759 4.875 13 4.875C13.3232 4.875 13.6332 5.0034 13.8618 5.23196C14.0903 5.46052 14.2188 5.77052 14.2188 6.09375Z" fill="#195842"/>
</g>
</svg>
