<svg width="9" height="10" viewBox="0 0 9 10" fill="none" xmlns="http://www.w3.org/2000/svg">
<path fill-rule="evenodd" clip-rule="evenodd" d="M3.69284 0.285312C4.09467 0.285941 4.45011 0.549132 4.57706 0.943918C4.59541 1.00349 4.65122 1.04334 4.71331 1.04334H5.42696C5.53304 1.04334 5.6121 1.12189 5.6121 1.22408V1.97167C5.6121 2.07385 5.53304 2.15367 5.42696 2.15367H1.95872C1.85264 2.15367 1.77409 2.07385 1.77409 1.97167V1.22408C1.77409 1.12202 1.85264 1.04334 1.95872 1.04334H2.67213C2.73447 1.04334 2.79003 1.00349 2.80838 0.943918C2.93532 0.549257 3.29152 0.285312 3.69284 0.285312ZM3.69284 0C3.20832 0.000628441 2.80046 0.31422 2.60728 0.757271H0.742314C0.34162 0.757271 0 1.05641 0 1.44026V9.31714C0 9.70137 0.341746 10 0.742314 10H6.64375C7.04507 10 7.38606 9.70149 7.38606 9.31714V8.67173C7.39511 8.47327 7.09271 8.47327 7.10125 8.67173V9.31714C7.10125 9.53131 6.90757 9.71519 6.64362 9.71519H0.742314C0.479123 9.71519 0.284684 9.53131 0.284684 9.31714V1.44026C0.284684 1.22609 0.479123 1.04334 0.742314 1.04334H1.52585C1.50222 1.09902 1.48928 1.15998 1.48928 1.22408V1.97167C1.48928 2.22908 1.70144 2.4386 1.9586 2.4386H5.42684C5.68412 2.4386 5.89741 2.22908 5.89741 1.97167V1.22408C5.89741 1.1601 5.88434 1.09902 5.86008 1.04334H6.64362C6.90757 1.04334 7.10125 1.22609 7.10125 1.44026V2.61846C7.09271 2.81743 7.39511 2.81743 7.38606 2.61846V1.44026C7.38606 1.05641 7.04507 0.757271 6.64375 0.757271H4.77816C4.58498 0.31422 4.17712 0.000628441 3.69284 0Z" fill="#857C7C"/>
<path fill-rule="evenodd" clip-rule="evenodd" d="M3.69292 0.968159C3.83821 0.968159 3.95736 1.08794 3.95736 1.24442C3.95736 1.40078 3.83834 1.51993 3.69292 1.51993C3.54749 1.51993 3.42972 1.40078 3.42972 1.24442C3.42972 1.08794 3.54762 0.968159 3.69292 0.968159ZM3.69292 0.68335C3.389 0.68335 3.14429 0.938497 3.14429 1.24442C3.14429 1.55072 3.389 1.80461 3.69292 1.80461C3.99658 1.80461 4.24205 1.55072 4.24205 1.24442C4.24205 0.938622 3.99658 0.68335 3.69292 0.68335Z" fill="#857C7C"/>
<path fill-rule="evenodd" clip-rule="evenodd" d="M5.92611 4.72365C6.18729 4.72365 6.40209 4.94436 6.40284 5.22778C6.40284 5.39671 6.32228 5.55445 6.19119 5.6467C6.14405 5.68001 6.12193 5.73896 6.13425 5.79527L6.31637 6.57038H5.53522L5.71734 5.79527C5.73041 5.73896 5.70754 5.68001 5.66041 5.6467C5.52931 5.55432 5.4495 5.39658 5.44875 5.22778C5.44963 4.94436 5.66443 4.72365 5.92611 4.72365ZM5.92611 4.43896C5.50342 4.43896 5.16406 4.79705 5.16406 5.22841C5.16406 5.43856 5.29126 5.60937 5.43316 5.75668L5.25242 6.53104C5.21383 6.69607 5.33173 6.85582 5.50455 6.85582H6.34704C6.52061 6.85582 6.63776 6.69607 6.59967 6.53104L6.41856 5.75668C6.56046 5.60937 6.68765 5.43856 6.68765 5.22841C6.68765 4.79705 6.34842 4.43896 5.92611 4.43896Z" fill="#857C7C"/>
<path d="M5.92617 3.17186L8.29728 3.996V4.84289C8.29728 6.69629 7.36178 7.78801 5.92617 8.56778C4.49069 7.78801 3.55532 6.69553 3.55532 4.84289V3.996L5.92617 3.17186ZM5.87979 2.8863L3.36603 3.76021C3.30909 3.77982 3.27051 3.83424 3.27051 3.89445V4.84289C3.27051 6.8265 4.32755 8.05271 5.86019 8.86365C5.90141 8.8859 5.95131 8.8859 5.99304 8.86365C7.52493 8.05271 8.58222 6.8265 8.58222 4.84289V3.89445C8.58222 3.83424 8.54413 3.77982 8.48669 3.76021L5.97343 2.8863C5.93874 2.87386 5.90732 2.8765 5.87979 2.8863Z" fill="#857C7C"/>
<path d="M1.12396 3.75146C0.926128 3.75146 0.926128 4.03627 1.12396 4.03627H2.63938C2.83696 4.03627 2.83696 3.75146 2.63938 3.75146H1.12396Z" fill="#857C7C"/>
<path d="M1.10942 4.60995C0.919635 4.61247 0.933461 4.89464 1.12388 4.89464H2.6393C2.83688 4.89464 2.83688 4.60794 2.6393 4.60995C2.12989 4.61511 1.61808 4.60342 1.10942 4.60995Z" fill="#857C7C"/>
<path d="M1.12396 5.4668C0.926128 5.4668 0.926128 5.75223 1.12396 5.75223H2.63938C2.83696 5.75223 2.83696 5.4668 2.63938 5.4668H1.12396Z" fill="#857C7C"/>
<path d="M1.10942 6.32558C0.919635 6.32772 0.933461 6.61039 1.12388 6.61039C1.62914 6.61039 2.13378 6.61039 2.6393 6.61039C2.83688 6.61039 2.83688 6.32294 2.6393 6.32558C2.12989 6.33086 1.61808 6.31829 1.10942 6.32558Z" fill="#857C7C"/>
<path d="M1.12411 7.18237C0.933565 7.18237 0.933565 7.46844 1.12411 7.46844C1.83701 7.46844 2.54991 7.46844 3.26332 7.46844C3.45386 7.46844 3.45386 7.18237 3.26332 7.18237C2.54991 7.18237 1.83701 7.18237 1.12411 7.18237Z" fill="#857C7C"/>
<path d="M1.12396 8.04053C0.926128 8.04053 0.926128 8.32534 1.12396 8.32534C1.97751 8.32534 2.83106 8.32534 3.68536 8.32534C3.88319 8.32534 3.88319 8.04053 3.68536 8.04053C2.83106 8.04053 1.97751 8.04053 1.12396 8.04053Z" fill="#857C7C"/>
</svg>
