<svg width="9" height="10" viewBox="0 0 9 10" fill="none" xmlns="http://www.w3.org/2000/svg">
<path d="M4.15934 4.73225C2.85174 4.73225 1.79321 3.67372 1.79321 2.36613C1.79321 1.05853 2.85174 0 4.15934 0C5.46694 0 6.52547 1.05853 6.52547 2.36613C6.52547 3.67372 5.46694 4.73225 4.15934 4.73225ZM4.15934 0.510585C3.12572 0.510585 2.29134 1.34496 2.29134 2.37858C2.29134 3.4122 3.12572 4.24658 4.15934 4.24658C5.19296 4.24658 6.02734 3.4122 6.02734 2.37858C6.02734 1.34496 5.19296 0.510585 4.15934 0.510585Z" fill="#857C7C"/>
<path d="M8.31881 10.0001H7.82067V9.37739C7.82067 7.45958 6.25156 5.89047 4.33375 5.89047H3.98506C2.06725 5.89047 0.498132 7.45958 0.498132 9.37739V10.0001H0V9.37739C0 7.18561 1.79328 5.39233 3.98506 5.39233H4.33375C6.52553 5.39233 8.31881 7.18561 8.31881 9.37739V10.0001Z" fill="#857C7C"/>
</svg>
