<svg width="22" height="22" viewBox="0 0 22 22" fill="none" xmlns="http://www.w3.org/2000/svg">
<path d="M21.1768 20.4777L21.3535 20.301L21.1768 20.1243L15.282 14.2246C16.5942 12.6486 17.2715 10.636 17.1751 8.5819C17.0751 6.44942 16.149 4.43959 14.593 2.97796C13.037 1.51632 10.9732 0.717637 8.83865 0.751005C6.70407 0.784373 4.66628 1.64717 3.15673 3.15673C1.64717 4.66628 0.784373 6.70407 0.751005 8.83865C0.717637 10.9732 1.51632 13.037 2.97796 14.593C4.43959 16.149 6.44942 17.0751 8.5819 17.1751C10.636 17.2715 12.6486 16.5942 14.2246 15.282L20.1243 21.1768L20.301 21.3535L20.4777 21.1768L21.1768 20.4777ZM9.00228 15.6931C7.67896 15.6931 6.38536 15.3007 5.28506 14.5655C4.18476 13.8303 3.32718 12.7853 2.82076 11.5628C2.31435 10.3402 2.18185 8.99486 2.44002 7.69697C2.69818 6.39907 3.33542 5.20688 4.27115 4.27115C5.20688 3.33542 6.39907 2.69818 7.69697 2.44002C8.99486 2.18185 10.3402 2.31435 11.5628 2.82076C12.7853 3.32718 13.8303 4.18476 14.5655 5.28506C15.3007 6.38536 15.6931 7.67896 15.6931 9.00228C15.6931 10.7768 14.9882 12.4786 13.7334 13.7334C12.4786 14.9882 10.7768 15.6931 9.00228 15.6931Z" fill="#857C7C" stroke="#857C7C" stroke-width="0.5"/>
</svg>
