<svg width="50" height="50" viewBox="0 0 50 50" fill="none" xmlns="http://www.w3.org/2000/svg">
<circle cx="25" cy="25" r="25" fill="#2A11C0" fill-opacity="0.1"/>
<path d="M38.4556 21.6667H35.6489C35.1978 21.6667 34.8261 21.4183 34.6533 21.0017C34.4806 20.585 34.5683 20.1461 34.8867 19.8272L36.8711 17.8433C37.1628 17.5517 37.3233 17.1633 37.3233 16.7511C37.3233 16.3383 37.1628 15.9506 36.8711 15.6583L34.3417 13.1289C33.7583 12.5456 32.7411 12.5444 32.1567 13.1289L30.1728 15.1128C29.8539 15.4311 29.4139 15.52 28.9983 15.3467C28.5817 15.1739 28.3333 14.8022 28.3333 14.3511V11.5444C28.3333 10.6928 27.6406 10 26.7889 10H23.2111C22.3594 10 21.6667 10.6928 21.6667 11.5444V14.3511C21.6667 14.8022 21.4183 15.1739 21.0017 15.3467C20.5861 15.5206 20.1461 15.4311 19.8272 15.1128L17.8433 13.1289C17.2589 12.5444 16.2417 12.5456 15.6583 13.1289L13.1289 15.6583C12.8372 15.95 12.6767 16.3383 12.6767 16.7511C12.6767 17.1633 12.8372 17.5511 13.1289 17.8433L15.1133 19.8272C15.4317 20.1461 15.5189 20.585 15.3467 21.0017C15.1744 21.4183 14.8022 21.6667 14.3511 21.6667H11.5444C10.6928 21.6667 10 22.3594 10 23.2111V26.7883C10 27.6406 10.6928 28.3333 11.5444 28.3333H14.3511C14.8022 28.3333 15.1739 28.5817 15.3467 28.9983C15.5194 29.415 15.4317 29.8539 15.1133 30.1728L13.1289 32.1567C12.8372 32.4483 12.6767 32.8367 12.6767 33.2489C12.6767 33.6617 12.8372 34.0494 13.1289 34.3417L15.6583 36.8711C16.2422 37.455 17.2589 37.4561 17.8433 36.8711L19.8272 34.8867C20.1461 34.5683 20.5844 34.4806 21.0017 34.6533C21.4183 34.8261 21.6667 35.1978 21.6667 35.6489V38.4556C21.6667 39.3072 22.3594 40 23.2111 40H26.7883C27.64 40 28.3328 39.3072 28.3328 38.4556V35.6489C28.3328 35.1978 28.5811 34.8261 28.9978 34.6533C29.415 34.48 29.8533 34.5683 30.1722 34.8867L32.1561 36.8711C32.7406 37.4556 33.7578 37.4544 34.3411 36.8711L36.8706 34.3417C37.1622 34.05 37.3228 33.6617 37.3228 33.2489C37.3228 32.8367 37.1622 32.4489 36.8706 32.1567L34.8861 30.1728C34.5678 29.8539 34.4806 29.415 34.6528 28.9983C34.825 28.5817 35.1978 28.3333 35.6489 28.3333H38.4556C39.3072 28.3333 40 27.6406 40 26.7889V23.2111C40 22.3594 39.3072 21.6667 38.4556 21.6667ZM38.8889 26.7889C38.8889 27.0278 38.6944 27.2222 38.4556 27.2222H35.6489C34.7467 27.2222 33.9717 27.74 33.6267 28.5733C33.2811 29.4067 33.4628 30.3211 34.1011 30.9589L36.0856 32.9428C36.255 33.1122 36.255 33.3872 36.0856 33.5561L33.5561 36.0856C33.3872 36.2544 33.1122 36.2556 32.9428 36.0856L30.9589 34.1011C30.3206 33.4628 29.4067 33.2822 28.5733 33.6267C27.74 33.9717 27.2222 34.7467 27.2222 35.6489V38.4556C27.2222 38.6944 27.0278 38.8889 26.7889 38.8889H23.2111C22.9722 38.8889 22.7778 38.6944 22.7778 38.4556V35.6489C22.7778 34.7467 22.26 33.9717 21.4267 33.6267C21.1472 33.5106 20.8594 33.4539 20.575 33.4539C20.0117 33.4539 19.4656 33.6761 19.0411 34.1006L17.0572 36.085C16.8872 36.255 16.6122 36.2539 16.4439 36.085L13.9144 33.5556C13.745 33.3861 13.745 33.1111 13.9144 32.9422L15.8989 30.9583C16.5367 30.3206 16.7189 29.4061 16.3733 28.5728C16.0283 27.74 15.2533 27.2222 14.3511 27.2222H11.5444C11.3056 27.2222 11.1111 27.0278 11.1111 26.7889V23.2111C11.1111 22.9722 11.3056 22.7778 11.5444 22.7778H14.3511C15.2533 22.7778 16.0283 22.26 16.3733 21.4267C16.7189 20.5933 16.5372 19.6789 15.8989 19.0411L13.9144 17.0572C13.745 16.8878 13.745 16.6128 13.9144 16.4439L16.4439 13.9144C16.6128 13.745 16.8878 13.745 17.0572 13.9144L19.0411 15.8983C19.6783 16.5356 20.5922 16.7183 21.4267 16.3728C22.26 16.0283 22.7778 15.2533 22.7778 14.3511V11.5444C22.7778 11.3056 22.9722 11.1111 23.2111 11.1111H26.7883C27.0278 11.1111 27.2222 11.3056 27.2222 11.5444V14.3511C27.2222 15.2533 27.74 16.0283 28.5733 16.3733C29.4078 16.7189 30.3211 16.5367 30.9589 15.8989L32.9428 13.915C33.1128 13.7456 33.3878 13.7456 33.5561 13.915L36.0856 16.4444C36.255 16.6139 36.255 16.8889 36.0856 17.0578L34.1011 19.0417C33.4633 19.6794 33.2811 20.5939 33.6267 21.4272C33.9717 22.2606 34.7467 22.7783 35.6489 22.7783H38.4556C38.6944 22.7778 38.8889 22.9722 38.8889 23.2111V26.7889Z" fill="#2A11C0"/>
<path d="M25 20C22.2428 20 20 22.2428 20 25C20 27.7572 22.2428 30 25 30C27.7572 30 30 27.7572 30 25C30 22.2428 27.7572 20 25 20ZM25 28.8889C22.8561 28.8889 21.1111 27.1439 21.1111 25C21.1111 22.8561 22.8561 21.1111 25 21.1111C27.1439 21.1111 28.8889 22.8561 28.8889 25C28.8889 27.1439 27.1439 28.8889 25 28.8889Z" fill="#2A11C0"/>
</svg>
