<svg width="12" height="12" viewBox="0 0 12 12" fill="none" xmlns="http://www.w3.org/2000/svg">
<path d="M11.0933 4.56622H10.5472C10.4641 4.30223 10.3575 4.04644 10.2294 3.80001L10.6157 3.4131C10.7872 3.2416 10.8814 3.0139 10.8814 2.77157C10.8814 2.52924 10.7872 2.30155 10.6157 2.13004L9.87054 1.38491C9.52812 1.04249 8.93108 1.0419 8.58748 1.38491L8.20058 1.77123C7.95473 1.64304 7.69894 1.53651 7.43437 1.45339V0.907273C7.43437 0.407395 7.02756 0 6.5271 0H5.47349C4.97303 0 4.56622 0.406809 4.56622 0.907273V1.45339C4.30223 1.53651 4.04644 1.64304 3.80001 1.77123L3.4131 1.38491C3.07009 1.0419 2.47305 1.04249 2.13004 1.38491L1.38491 2.13004C1.2134 2.30155 1.11916 2.52924 1.11916 2.77157C1.11916 3.0139 1.2134 3.2416 1.38491 3.4131L1.77123 3.80001C1.64304 4.04585 1.53651 4.30164 1.45339 4.56622H0.907273C0.407395 4.56622 0 4.97303 0 5.47349V6.5271C0 7.02756 0.406809 7.43437 0.907273 7.43437H1.45339C1.53651 7.69836 1.64304 7.95473 1.77123 8.20058L1.05361 8.9182C0.882103 9.0897 0.882103 9.36774 1.05361 9.53924L2.12946 10.6151C2.47246 10.9575 3.06951 10.9581 3.41252 10.6151L3.79942 10.2288C4.04527 10.357 4.30164 10.4635 4.56563 10.5466V11.0927C4.56563 11.5926 4.97244 12 5.4729 12H6.52651C7.02697 12 7.43378 11.5932 7.43378 11.0927V10.5466C7.69777 10.4635 7.95356 10.357 8.19999 10.2288L8.5869 10.6151C8.9299 10.9581 9.52695 10.9575 9.86996 10.6151L10.6151 9.86996C10.7866 9.69845 10.8808 9.47076 10.8808 9.22843C10.8808 8.9861 10.7866 8.7584 10.6151 8.5869L10.2288 8.19999C10.357 7.95415 10.4635 7.69836 10.5466 7.43378H11.0927C11.5926 7.43378 12 7.02698 12 6.52651V5.4729C12 4.97244 11.5932 4.56563 11.0927 4.56563L11.0933 4.56622ZM11.1226 6.5271L11.0933 6.55636H10.213C10.0093 6.55636 9.8325 6.69626 9.78567 6.89469C9.68967 7.30033 9.52929 7.68724 9.3092 8.04371C9.20209 8.21697 9.22784 8.44115 9.37184 8.58514L9.99463 9.2495L9.20794 9.99463L8.58514 9.37184C8.44115 9.22784 8.21638 9.20092 8.0437 9.30921C7.68723 9.52988 7.30033 9.69026 6.89527 9.78567C6.69684 9.8325 6.55695 10.0093 6.55695 10.213L6.52768 11.1226L5.44481 11.0933V10.213C5.44481 10.0093 5.30491 9.8325 5.10648 9.78567C4.70084 9.69026 4.31452 9.52988 3.95805 9.30921C3.88664 9.26472 3.80703 9.24365 3.72743 9.24365C3.61387 9.24365 3.50149 9.28755 3.41661 9.37242L2.75226 9.99522L1.98663 9.2296L2.63051 8.58573C2.7745 8.44174 2.80084 8.21755 2.69314 8.04429C2.47246 7.68782 2.31208 7.30091 2.21667 6.89527C2.16985 6.69743 1.99307 6.55695 1.78938 6.55695L0.879762 6.52768L0.909029 5.44481H1.78938C1.99307 5.44481 2.16985 5.30491 2.21667 5.10648C2.31267 4.70084 2.47305 4.31394 2.69314 3.95747C2.80025 3.78421 2.7745 3.56002 2.63051 3.41603L2.00771 2.75167L2.7944 2.00654L3.4172 2.62934C3.56119 2.77333 3.78538 2.79967 3.95864 2.69197C4.31511 2.47129 4.70201 2.31091 5.10765 2.2155C5.3055 2.16867 5.44598 1.9919 5.44598 1.78821L5.47524 0.878591L6.55812 0.907858V1.78821C6.55812 1.9919 6.69801 2.16867 6.89644 2.2155C7.30208 2.3115 7.68899 2.47188 8.04546 2.69197C8.21813 2.80025 8.4429 2.77333 8.5869 2.62934L9.25126 2.00654L9.99639 2.79323L9.37359 3.41603C9.2296 3.56002 9.20326 3.78421 9.31096 3.95747C9.53163 4.31394 9.69201 4.70084 9.78743 5.10648C9.83425 5.30433 10.011 5.44481 10.2147 5.44481L11.1243 5.47407V6.52768L11.1226 6.5271Z" fill="#857C7C"/>
<path d="M6.00077 3.65308C4.70659 3.65308 3.65356 4.7061 3.65356 6.00028C3.65356 7.29446 4.70659 8.34748 6.00077 8.34748C7.29495 8.34748 8.34797 7.29446 8.34797 6.00028C8.34797 4.7061 7.29495 3.65308 6.00077 3.65308ZM6.00077 7.46948C5.19066 7.46948 4.53157 6.81039 4.53157 6.00028C4.53157 5.19017 5.19066 4.53108 6.00077 4.53108C6.81087 4.53108 7.46996 5.19017 7.46996 6.00028C7.46996 6.81039 6.81087 7.46948 6.00077 7.46948Z" fill="#857C7C"/>
</svg>
