<svg width="9" height="10" viewBox="0 0 9 10" fill="none" xmlns="http://www.w3.org/2000/svg">
<path d="M1.15659 3.90838H5.247C5.34735 3.90838 5.4288 3.82705 5.4288 3.72658C5.4288 3.62623 5.34735 3.54478 5.247 3.54478H1.15659C1.05611 3.54478 0.974791 3.62623 0.974791 3.72658C0.974791 3.82705 1.05624 3.90838 1.15659 3.90838ZM1.15659 2.88523H5.247C5.34735 2.88523 5.4288 2.8039 5.4288 2.70343C5.4288 2.60308 5.34735 2.52163 5.247 2.52163H1.15659C1.05611 2.52163 0.974791 2.60308 0.974791 2.70343C0.974791 2.8039 1.05624 2.88523 1.15659 2.88523ZM1.15659 4.8256H4.51982C4.62017 4.8256 4.70161 4.74427 4.70161 4.6438C4.70161 4.54345 4.62017 4.46201 4.51982 4.46201H1.15659C1.05611 4.46201 0.974791 4.54345 0.974791 4.6438C0.974791 4.74427 1.05624 4.8256 1.15659 4.8256ZM3.30784 5.37923H1.15659C1.05611 5.37923 0.974791 5.46067 0.974791 5.56102C0.974791 5.66138 1.05611 5.74282 1.15659 5.74282H3.30784C3.40831 5.74282 3.48964 5.66138 3.48964 5.56102C3.48964 5.46067 3.40831 5.37923 3.30784 5.37923ZM2.70755 6.29621H1.15659C1.05611 6.29621 0.974791 6.37765 0.974791 6.478C0.974791 6.57835 1.05611 6.6598 1.15659 6.6598H2.70755C2.80802 6.6598 2.88935 6.57835 2.88935 6.478C2.88935 6.37765 2.80802 6.29621 2.70755 6.29621ZM6.773 6.53557L5.51364 8.01963L4.70901 7.37947C4.63071 7.31693 4.51606 7.3299 4.45364 7.40856C4.3911 7.48697 4.40419 7.6015 4.48273 7.66392L5.42504 8.41389C5.45837 8.44055 5.49836 8.4534 5.53824 8.4534C5.58987 8.4534 5.64101 8.43146 5.67701 8.38929L7.05018 6.77082C7.11502 6.69422 7.10581 6.57957 7.02909 6.51461C6.95237 6.44952 6.83784 6.45897 6.773 6.53557ZM6.40371 5.01248V1.90389C6.40371 1.8559 6.3848 1.80996 6.35087 1.77578L4.64392 0.0538117C4.60987 0.0193916 4.56345 0 4.51497 0H0.181796C0.0813236 0 0 0.0814447 0 0.181796V8.51497C0 8.61532 0.0813236 8.69676 0.181796 8.69676H3.5386C3.97297 9.47316 4.80257 10 5.75385 10C7.15307 10 8.29124 8.86171 8.29124 7.46249C8.29124 6.28821 7.48855 5.30057 6.40371 5.01248ZM4.69676 0.623561L5.7856 1.72209H4.69676V0.623561ZM3.37341 8.33317H0.363592V0.363592H4.33305V1.90389C4.33305 2.00424 4.4145 2.08569 4.51485 2.08569H6.04V4.94219C5.94583 4.93152 5.85056 4.92486 5.75385 4.92486C4.35462 4.92486 3.21622 6.06327 3.21622 7.46249C3.21634 7.76876 3.27354 8.0612 3.37341 8.33317ZM5.75397 9.63641C4.55521 9.63641 3.57993 8.66125 3.57993 7.46249C3.57993 6.26373 4.55521 5.28845 5.75397 5.28845C6.95273 5.28845 7.92777 6.26373 7.92777 7.46249C7.92777 8.66125 6.95261 9.63641 5.75397 9.63641Z" fill="#857C7C"/>
</svg>
