<svg width="50" height="50" viewBox="0 0 50 50" fill="none" xmlns="http://www.w3.org/2000/svg">
<circle cx="25" cy="25" r="25" fill="#2A11C0" fill-opacity="0.1"/>
<path fill-rule="evenodd" clip-rule="evenodd" d="M38.7346 32.8672H37.6377C37.393 32.8672 37.1989 32.6731 37.1989 32.4284C37.1989 32.3778 37.1989 32.3314 37.1989 32.2808C37.1989 32.2555 37.1989 32.2555 37.1989 32.2344C37.1989 31.9897 37.393 31.8167 37.6377 31.8167C37.7811 31.8167 37.9288 31.8926 38.0005 32.0361H38.7092C38.9286 32.0361 39.0974 31.8673 39.0974 31.6479V26.8469L36.6125 22.1936H31.128C30.9086 22.1936 30.7399 22.3876 30.7399 22.5817V31.9897H31.9338C32.0055 31.8673 32.1532 31.7703 32.3009 31.7703C32.5413 31.7703 32.7396 31.9644 32.7396 32.209C32.7396 32.2555 32.7396 32.3061 32.7396 32.3061C32.7607 32.4284 32.7396 32.5719 32.6637 32.6731C32.592 32.7701 32.4696 32.8419 32.322 32.8419H30.3265C30.0818 32.8419 29.8877 32.6478 29.8877 32.4031V22.5817C29.8877 21.8983 30.4699 21.3372 31.128 21.3372H36.8825C37.0259 21.3372 37.1736 21.4342 37.2453 21.5565L39.9032 26.5305C39.9285 26.6022 39.9538 26.6529 39.9538 26.7246V31.5973C39.9749 32.3061 39.4138 32.8672 38.7346 32.8672Z" fill="#2A11C0"/>
<path fill-rule="evenodd" clip-rule="evenodd" d="M30.3009 32.8416H25.9134C25.791 32.8416 25.6687 32.791 25.5716 32.6729C25.4999 32.5716 25.4746 32.4282 25.4999 32.3059C25.4999 32.2805 25.4999 32.2805 25.4999 32.2088C25.4999 31.9641 25.694 31.7701 25.9387 31.7701C26.0863 31.7701 26.2298 31.8418 26.3057 31.9641H29.9128V29.918C29.9128 29.6733 30.1069 29.4792 30.3515 29.4792C30.592 29.4792 30.7397 29.6986 30.7397 29.918V32.4029C30.7397 32.6476 30.5456 32.8416 30.3009 32.8416ZM20.5766 32.8416H19.0409C18.7962 32.8416 18.6021 32.6476 18.6021 32.4029C18.6021 32.1582 18.7962 31.9641 19.0409 31.9641H20.5766C20.8212 31.9641 21.0153 32.1582 21.0153 32.4029C21.0153 32.6476 20.8212 32.8416 20.5766 32.8416ZM13.7041 32.8416H12.9489C12.0208 32.8416 11.2656 32.0865 11.2656 31.1583C11.2656 30.2344 12.0208 29.4792 12.9489 29.4792C13.1936 29.4792 13.3877 29.6733 13.3877 29.918C13.3877 30.1627 13.1936 30.3568 12.9489 30.3568C12.4849 30.3568 12.122 30.7196 12.122 31.1836C12.122 31.6477 12.4849 32.0148 12.9489 32.0148H13.6788C13.9235 32.0148 14.1175 32.2088 14.1175 32.4535C14.1175 32.694 13.9235 32.8416 13.7041 32.8416Z" fill="#2A11C0"/>
<path fill-rule="evenodd" clip-rule="evenodd" d="M34.979 35.3265C33.2746 35.3265 31.8613 33.9386 31.8613 32.2088C31.8613 30.4791 33.2493 29.0869 34.979 29.0869C36.7087 29.0869 38.101 30.4791 38.101 32.2088C38.101 33.9386 36.6834 35.3265 34.979 35.3265ZM34.979 29.9644C33.7134 29.9644 32.7135 30.9643 32.7135 32.2342C32.7135 33.4745 33.7345 34.4997 34.979 34.4997C36.2236 34.4997 37.2445 33.4745 37.2445 32.2342C37.2445 30.9896 36.2236 29.9644 34.979 29.9644Z" fill="#2A11C0"/>
<path fill-rule="evenodd" clip-rule="evenodd" d="M34.9803 33.8668C34.0774 33.8668 33.3223 33.1328 33.3223 32.2342C33.3223 31.3313 34.0563 30.5762 34.9803 30.5762C35.8831 30.5762 36.6129 31.306 36.6129 32.2342C36.6129 33.1328 35.8831 33.8668 34.9803 33.8668ZM34.9803 31.4284C34.5415 31.4284 34.1745 31.7954 34.1745 32.2342C34.1745 32.6729 34.5415 33.0104 34.9803 33.0104C35.419 33.0104 35.7607 32.6729 35.7607 32.2342C35.7607 31.7954 35.3937 31.4284 34.9803 31.4284Z" fill="#2A11C0"/>
<path fill-rule="evenodd" clip-rule="evenodd" d="M23.2342 35.3265C21.5256 35.3265 20.1123 33.9386 20.1123 32.2088C20.1123 30.4791 21.5045 29.0869 23.2342 29.0869C24.9639 29.0869 26.3519 30.5002 26.3519 32.2342C26.3519 33.9639 24.9639 35.3265 23.2342 35.3265ZM23.2342 29.9644C21.9897 29.9644 20.9687 30.9896 20.9687 32.2342C20.9687 33.4745 21.9897 34.4997 23.2342 34.4997C24.4746 34.4997 25.4997 33.4745 25.4997 32.2342C25.4997 30.9896 24.4746 29.9644 23.2342 29.9644Z" fill="#2A11C0"/>
<path fill-rule="evenodd" clip-rule="evenodd" d="M23.2352 33.8668C22.3324 33.8668 21.6025 33.1328 21.6025 32.2342C21.6025 31.3313 22.3324 30.5762 23.2352 30.5762C24.1338 30.5762 24.8679 31.306 24.8679 32.2342C24.8679 33.1328 24.1338 33.8668 23.2352 33.8668ZM23.2352 31.4284C22.8218 31.4284 22.4547 31.7954 22.4547 32.2342C22.4547 32.6729 22.7965 33.0104 23.2352 33.0104C23.674 33.0104 24.0157 32.6729 24.0157 32.2342C24.0157 31.7954 23.674 31.4284 23.2352 31.4284Z" fill="#2A11C0"/>
<path fill-rule="evenodd" clip-rule="evenodd" d="M16.3622 35.3266C14.6535 35.3266 13.2402 33.9386 13.2402 32.2089C13.2402 30.4792 14.6535 29.1123 16.3622 29.1123C18.0666 29.1123 19.4799 30.5003 19.4799 32.2342C19.4799 33.9639 18.0919 35.3266 16.3622 35.3266ZM16.3622 29.9645C15.1176 29.9645 14.0924 30.9897 14.0924 32.2342C14.0924 33.4746 15.1176 34.4997 16.3622 34.4997C17.6025 34.4997 18.6277 33.4746 18.6277 32.2342C18.6277 30.9644 17.6278 29.9645 16.3622 29.9645Z" fill="#2A11C0"/>
<path fill-rule="evenodd" clip-rule="evenodd" d="M16.3622 33.8668C15.4593 33.8668 14.7295 33.1328 14.7295 32.2342C14.7295 31.3313 15.4593 30.5762 16.3622 30.5762C17.2608 30.5762 18.0202 31.3313 18.0202 32.2342C18.0202 33.1328 17.2861 33.8668 16.3622 33.8668ZM16.3622 31.4284C15.9487 31.4284 15.5817 31.7954 15.5817 32.2342C15.5817 32.6729 15.9234 33.0104 16.3622 33.0104C16.8009 33.0104 17.1637 32.6476 17.1637 32.2342C17.1637 31.7954 16.8009 31.4284 16.3622 31.4284Z" fill="#2A11C0"/>
<path fill-rule="evenodd" clip-rule="evenodd" d="M39.5142 27.1128H35.27C34.0761 27.1128 33.1016 26.1382 33.1016 24.9443V21.776C33.1016 21.5355 33.2998 21.3625 33.5403 21.3625H36.9027C37.1474 21.3625 37.3415 21.5566 37.3415 21.776C37.3415 21.9954 37.1474 22.2147 36.9027 22.2147H33.9538V24.9696C33.9538 25.6995 34.5402 26.2859 35.27 26.2859H39.5142C39.7546 26.2859 39.9529 26.48 39.9529 26.7247C39.9529 26.9694 39.7546 27.1128 39.5142 27.1128Z" fill="#2A11C0"/>
<path fill-rule="evenodd" clip-rule="evenodd" d="M39.5618 30.0405H38.4396C37.7603 30.0405 37.1992 29.4794 37.1992 28.7959C37.1992 28.0872 37.7603 27.5303 38.4396 27.5303H39.5618C39.8064 27.5303 40.0005 27.7243 40.0005 27.969C40.0005 28.2095 39.8064 28.4078 39.5618 28.4078H38.4396C38.2202 28.4078 38.0514 28.6019 38.0514 28.8212C38.0514 29.0406 38.2202 29.2094 38.4396 29.2094H39.5618C39.8064 29.2094 40.0005 29.4034 40.0005 29.6481C40.0005 29.8928 39.7811 30.0405 39.5618 30.0405Z" fill="#2A11C0"/>
<path fill-rule="evenodd" clip-rule="evenodd" d="M33.3227 28.6737H31.8841C31.6436 28.6737 31.4453 28.4796 31.4453 28.2349C31.4453 27.9902 31.6436 27.7961 31.8841 27.7961H33.3227C33.5674 27.7961 33.7614 27.9902 33.7614 28.2349C33.7614 28.4796 33.5674 28.6737 33.3227 28.6737Z" fill="#2A11C0"/>
<path fill-rule="evenodd" clip-rule="evenodd" d="M30.3009 30.3569H24.6224C24.3777 30.3569 24.1837 30.1628 24.1837 29.9182C24.1837 29.6735 24.3777 29.4794 24.6224 29.4794H30.3009C30.5456 29.4794 30.7397 29.6735 30.7397 29.9182C30.7397 30.1628 30.5456 30.3569 30.3009 30.3569ZM21.8422 30.3569H17.75C17.5053 30.3569 17.3112 30.1628 17.3112 29.9182C17.3112 29.6735 17.5053 29.4794 17.75 29.4794H21.8422C22.0869 29.4794 22.281 29.6735 22.281 29.9182C22.281 30.1628 22.0869 30.3569 21.8422 30.3569ZM14.9698 30.3569H10.4388C10.1941 30.3569 10 30.1628 10 29.9182V18.4388C10 18.1941 10.1941 18 10.4388 18H30.3263C30.5709 18 30.765 18.1941 30.765 18.4388V22.6069C30.765 22.8516 30.5709 23.0457 30.3263 23.0457C30.0816 23.0457 29.8875 22.8516 29.8875 22.6069V18.8522H10.8522V29.5047H14.9698C15.2145 29.5047 15.4085 29.6988 15.4085 29.9435C15.4085 30.1839 15.2145 30.3569 14.9698 30.3569Z" fill="#2A11C0"/>
</svg>
