<svg width="50" height="50" viewBox="0 0 50 50" fill="none" xmlns="http://www.w3.org/2000/svg">
<circle cx="25" cy="25" r="25" fill="#2A11C0" fill-opacity="0.1"/>
<path d="M13.1607 30.9948C13.1607 31.612 13.4103 32.1704 13.8129 32.5727C14.2167 32.9768 14.7755 33.2264 15.3923 33.2264C16.0095 33.2264 16.5679 32.9768 16.9702 32.5742C17.3743 32.1704 17.6239 31.612 17.6239 30.9948C17.6239 30.3991 17.3893 29.8346 16.9709 29.4162C16.5679 29.0128 16.0095 28.7632 15.3923 28.7632C14.7755 28.7632 14.2167 29.0128 13.8145 29.4154C13.3976 29.8323 13.1607 30.3968 13.1607 30.9948ZM10.6514 18.3012H27.5625V16.6514H10.6514V18.3012ZM27.5625 18.9527H10.6514V19.8002H27.5625V18.9527ZM27.5625 20.4517H10.6514V29.0582C11.5206 29.0582 12.3893 29.0582 13.2584 29.0582C13.2892 29.0239 13.3211 28.9905 13.3538 28.9578C13.8783 28.434 14.5986 28.1118 15.3923 28.1118C16.1868 28.1118 16.9071 28.4344 17.4293 28.9562C17.4624 28.9893 17.4947 29.0235 17.5262 29.0582H27.5625V20.4517ZM32.9133 29.0539C33.4494 29.0539 33.9347 29.2716 34.2854 29.6223C34.6361 29.973 34.8538 30.4587 34.8538 30.9948C34.8538 31.5309 34.6361 32.0162 34.2854 32.3669C33.9347 32.7176 33.4494 32.9353 32.9133 32.9353C32.3772 32.9353 31.8915 32.7176 31.5408 32.3669C31.1901 32.0162 30.9724 31.5309 30.9724 30.9948C30.9724 30.4587 31.1901 29.973 31.5408 29.6223C31.8915 29.2716 32.3772 29.0539 32.9133 29.0539ZM33.8247 30.083C33.5917 29.85 33.269 29.7054 32.9133 29.7054C32.5572 29.7054 32.2346 29.85 32.0015 30.083C31.7685 30.3161 31.6239 30.6387 31.6239 30.9948C31.6239 31.3505 31.7685 31.6732 32.0015 31.9062C32.2346 32.1393 32.5572 32.2839 32.9133 32.2839C33.269 32.2839 33.5917 32.1393 33.8247 31.9062C34.0578 31.6732 34.2024 31.3505 34.2024 30.9948C34.2024 30.6387 34.0578 30.3161 33.8247 30.083ZM15.3923 29.0539C15.9284 29.0539 16.4137 29.2716 16.7644 29.6223C17.1152 29.973 17.3328 30.4587 17.3328 30.9948C17.3328 31.5309 17.1152 32.0162 16.7644 32.3669C16.4137 32.7176 15.9284 32.9353 15.3923 32.9353C14.8562 32.9353 14.3705 32.7176 14.0198 32.3669C13.6691 32.0162 13.4514 31.5309 13.4514 30.9948C13.4514 30.4587 13.6691 29.973 14.0198 29.6223C14.3705 29.2716 14.8562 29.0539 15.3923 29.0539ZM16.3037 30.083C16.0707 29.85 15.748 29.7054 15.3923 29.7054C15.0362 29.7054 14.7136 29.85 14.4805 30.083C14.2475 30.3161 14.1029 30.6387 14.1029 30.9948C14.1029 31.3505 14.2475 31.6732 14.4805 31.9062C14.7136 32.1393 15.0362 32.2839 15.3923 32.2839C15.748 32.2839 16.0707 32.1393 16.3037 31.9062C16.5368 31.6732 16.6814 31.3505 16.6814 30.9948C16.6814 30.6387 16.5368 30.3161 16.3037 30.083ZM11.4302 29.7096V29.9765H12.695C12.7296 29.8853 12.7685 29.7961 12.8119 29.7096H11.4302ZM12.5327 30.6279H11.1045C10.9249 30.6279 10.7787 30.4818 10.7787 30.3022V29.7096H10.3257C10.1461 29.7096 10 29.5635 10 29.3839C10 25.031 10 20.6786 10 16.3257C10 16.1461 10.1461 16 10.3257 16H27.8882C28.0678 16 28.214 16.1461 28.214 16.3257C28.214 20.6786 28.214 25.031 28.214 29.3839C28.214 29.5635 28.0678 29.7096 27.8882 29.7096H17.9723C18.0043 29.7734 18.0339 29.8388 18.0612 29.9057H28.6358C28.6358 26.4528 28.6358 22.9994 28.6358 19.5464C28.6358 19.3668 28.782 19.2207 28.9616 19.2207H34.6784C34.7684 19.2207 34.8496 19.2572 34.9088 19.3161C36.2113 20.6186 37.513 21.9211 38.8156 23.2228C38.879 23.2863 38.9109 23.3697 38.9109 23.4532C38.9109 24.9107 38.9109 26.3685 38.9109 27.826H39.0232C39.2924 27.826 39.537 27.936 39.7135 28.1125C39.89 28.289 40 28.5336 40 28.8028V29.5804C40 29.8492 39.8896 30.0938 39.7131 30.2703C39.5366 30.4468 39.292 30.5572 39.0232 30.5572C37.9364 30.5572 36.8501 30.5572 35.7633 30.5572C35.7852 30.6998 35.7964 30.846 35.7964 30.9948C35.7964 31.7893 35.4737 32.5096 34.9519 33.0318C34.4273 33.5556 33.7074 33.8779 32.9133 33.8779C32.1192 33.8779 31.3985 33.5552 30.8763 33.0334C30.3525 32.5088 30.0303 31.7889 30.0303 30.9948C30.0303 30.846 30.0414 30.6998 30.0633 30.5572C26.1231 30.5572 22.1825 30.5572 18.2423 30.5572C18.2642 30.6998 18.2754 30.846 18.2754 30.9948C18.2754 31.7893 17.9527 32.5096 17.4309 33.0318C16.9063 33.5556 16.1864 33.8779 15.3923 33.8779C14.5982 33.8779 13.8775 33.5552 13.3553 33.0334C12.8315 32.5088 12.5093 31.7889 12.5093 30.9948C12.5093 30.8706 12.5177 30.7479 12.5327 30.6279ZM28.6358 17.5882C28.6358 17.4086 28.782 17.2625 28.9616 17.2625C29.1411 17.2625 29.2873 17.4086 29.2873 17.5882V18.3012H34.6784C34.858 18.3012 35.0042 18.4473 35.0042 18.6269C35.0042 18.8065 34.858 18.9527 34.6784 18.9527H28.9616C28.782 18.9527 28.6358 18.8065 28.6358 18.6269V17.5882ZM32.9133 28.1118C33.7078 28.1118 34.4281 28.4344 34.9503 28.9562C35.2203 29.2262 35.4364 29.5485 35.5829 29.9057C36.7297 29.9057 37.8765 29.9057 39.0232 29.9057C39.1117 29.9057 39.1936 29.8684 39.2524 29.8096C39.3113 29.7508 39.3486 29.6688 39.3486 29.5804V28.8028C39.3486 28.7136 39.3116 28.6321 39.2528 28.5732C39.194 28.5144 39.1124 28.4775 39.0232 28.4775C37.6515 28.4775 36.2798 28.4775 34.908 28.4775C34.8246 28.4775 34.7411 28.4456 34.6777 28.3821L32.9175 26.622H29.2873V29.9057H30.2437C30.3902 29.5485 30.6059 29.2266 30.8747 28.9578C31.3993 28.434 32.1196 28.1118 32.9133 28.1118ZM34.4919 29.4162C34.0889 29.0128 33.5305 28.7632 32.9133 28.7632C32.2965 28.7632 31.7377 29.0128 31.3355 29.4154C30.9313 29.8192 30.6817 30.378 30.6817 30.9948C30.6817 31.612 30.9313 32.1704 31.3339 32.5727C31.7377 32.9768 32.2965 33.2264 32.9133 33.2264C33.5305 33.2264 34.0889 32.9768 34.4912 32.5742C34.8953 32.1704 35.1449 31.612 35.1449 30.9948C35.1449 30.378 34.8953 29.8192 34.4919 29.4162ZM30.5183 24.1604C30.3387 24.1604 30.1925 24.0143 30.1925 23.8347C30.1925 23.6551 30.3387 23.5089 30.5183 23.5089H32.2903C32.4699 23.5089 32.616 23.6551 32.616 23.8347C32.616 24.0143 32.4699 24.1604 32.2903 24.1604H30.5183ZM30.5183 23.1805C30.3387 23.1805 30.1925 23.0344 30.1925 22.8548C30.1925 22.6752 30.3387 22.5291 30.5183 22.5291H37.2004L34.5435 19.8721H29.2873V25.9705H33.0525C33.1425 25.9705 33.2236 26.0071 33.2829 26.0659L35.043 27.826H38.2595V26.622H36.807C36.6274 26.622 36.4813 26.4758 36.4813 26.2962V24.465C36.4813 24.2854 36.6274 24.1392 36.807 24.1392H38.2595V23.5882L37.8518 23.1805H30.5183ZM38.2595 24.7907H37.1327V25.9705H38.2595V24.7907Z" fill="#2A11C0"/>
</svg>
