<svg width="50" height="50" viewBox="0 0 50 50" fill="none" xmlns="http://www.w3.org/2000/svg">
<circle cx="25" cy="25" r="25" fill="#2A11C0" fill-opacity="0.1"/>
<path d="M36.5819 11H36.5318C36.3687 11 36.2182 11.0627 36.0928 11.1756C34.6129 12.6179 32.6564 13.408 30.5995 13.408C28.5426 13.408 26.5861 12.6179 25.1062 11.1756C24.9933 11.0627 24.8303 11 24.6672 11H24.5418C24.3788 11 24.2283 11.0627 24.1028 11.1756C22.6229 12.6179 20.6664 13.408 18.6095 13.408C16.5527 13.408 14.5962 12.6179 13.1162 11.1756C13.0033 11.0627 12.8403 11 12.6773 11H12.6271C12.2759 11 12 11.2759 12 11.6271V28.3955C12 35.3436 23.852 40.7241 24.3537 40.9498C24.4289 40.9875 24.5167 41 24.6045 41C24.6923 41 24.7801 40.9875 24.8554 40.9498C25.357 40.7241 37.209 35.3436 37.209 28.3955V11.6271C37.209 11.2759 36.9331 11 36.5819 11ZM35.9548 28.3955C35.9548 31.5435 32.8445 34.4532 30.2358 36.347C27.8278 38.0903 25.3821 39.3069 24.592 39.6831C23.8144 39.3069 21.3687 38.0903 18.9482 36.347C14.2199 32.9231 13.2291 30.1388 13.2291 28.3955V12.9189C14.7843 14.0477 16.6405 14.6497 18.5844 14.6497C20.8043 14.6497 22.9114 13.8595 24.5794 12.4172C26.2475 13.8595 28.3545 14.6497 30.5744 14.6497C32.5184 14.6497 34.3746 14.0477 35.9298 12.9189V28.3955H35.9548Z" fill="#2A11C0"/>
<path d="M27.1384 24.0685L24.5924 26.6145L23.4888 25.5108C23.2379 25.26 22.8491 25.26 22.5983 25.5108C22.3474 25.7616 22.3474 26.1504 22.5983 26.4013L24.1409 27.9439C24.2663 28.0693 24.4294 28.132 24.5799 28.132C24.7304 28.132 24.906 28.0693 25.0189 27.9439L28.0038 24.959C28.2546 24.7081 28.2546 24.3193 28.0038 24.0685C27.778 23.8177 27.3893 23.8177 27.1384 24.0685Z" fill="#2A11C0"/>
<path d="M24.6045 19.2148C20.8545 19.2148 17.8193 22.2625 17.8193 26C17.8193 29.7374 20.867 32.7851 24.6045 32.7851C28.3419 32.7851 31.3896 29.7374 31.3896 26C31.3896 22.2625 28.3545 19.2148 24.6045 19.2148ZM24.6045 31.5309C21.5568 31.5309 19.0735 29.0476 19.0735 26C19.0735 22.9523 21.5568 20.469 24.6045 20.469C27.6521 20.469 30.1354 22.9523 30.1354 26C30.1354 29.0476 27.6521 31.5309 24.6045 31.5309Z" fill="#2A11C0"/>
</svg>
