<svg width="44" height="44" viewBox="0 0 44 44" fill="none" xmlns="http://www.w3.org/2000/svg">
<rect width="44" height="44" rx="22" fill="#FFE9F3"/>
<path d="M31.5434 17.104C31.5578 17.3152 31.5578 17.5274 31.5578 17.7405C31.5578 24.2473 26.6042 31.7507 17.5475 31.7507V31.7469C14.8719 31.7505 12.2518 30.9839 10 29.5389C10.389 29.5854 10.7804 29.6092 11.1722 29.61C13.3898 29.6122 15.5437 28.8683 17.2874 27.498C15.1807 27.4584 13.3321 26.0843 12.6871 24.0784C13.4249 24.2206 14.1855 24.1916 14.9104 23.994C12.6129 23.5299 10.9607 21.511 10.96 19.1671C10.96 19.146 10.96 19.1249 10.96 19.1047C11.6448 19.4864 12.4113 19.6978 13.195 19.721C11.031 18.276 10.3635 15.3977 11.6704 13.1478C14.1707 16.224 17.8594 18.094 21.8185 18.2925C21.4217 16.5825 21.9642 14.7904 23.243 13.5878C25.2259 11.723 28.3451 11.8187 30.2099 13.8017C31.3126 13.5842 32.37 13.18 33.3366 12.6064C32.969 13.7467 32.1997 14.7146 31.1718 15.33C32.148 15.2146 33.1013 14.9535 34 14.5553C33.3389 15.5439 32.507 16.407 31.5434 17.104Z" fill="#1D9BF0"/>
</svg>
