<svg width="39" height="39" viewBox="0 0 39 39" fill="none" xmlns="http://www.w3.org/2000/svg">
<circle cx="19.5" cy="19.5" r="19.5" fill="#F0DF82"/>
<path d="M26.4837 17.7206C27.4389 17.0515 28.0655 15.9458 28.0655 14.6958C28.0655 12.6579 26.4017 11 24.3566 11C22.3115 11 20.6477 12.6579 20.6477 14.6958C20.6477 15.944 21.2725 17.0491 22.2265 17.7182C20.671 18.2174 19.3477 19.2575 18.5314 20.6787C18.3913 20.6322 18.2501 20.5886 18.1076 20.5487C19.5021 19.7191 20.4388 18.2007 20.4388 16.4676C20.4388 13.8483 18.3003 11.718 15.6717 11.718C13.0431 11.718 10.9052 13.8489 10.9052 16.4676C10.9052 18.2007 11.8419 19.7191 13.2364 20.5487C9.63641 21.556 7 24.7359 7 28.4931C7 28.7728 7.22803 29 7.50873 29H23.8347C24.1154 29 24.3434 28.7728 24.3434 28.4931C24.3434 26.9389 23.8922 25.4843 23.1087 24.2403H30.4913C30.772 24.2403 31 24.0131 31 23.7334C31 20.9441 29.1069 18.5699 26.4837 17.7206ZM21.6651 14.6958C21.6651 13.2168 22.8723 12.0138 24.3566 12.0138C25.8409 12.0138 27.0481 13.2168 27.0481 14.6958C27.0481 16.1748 25.8409 17.3777 24.3566 17.3777C22.8723 17.3777 21.6651 16.1748 21.6651 14.6958ZM11.9227 16.4676C11.9227 14.4077 13.6045 12.7319 15.6717 12.7319C17.739 12.7319 19.4213 14.4077 19.4213 16.4676C19.4213 18.5275 17.7396 20.2034 15.6717 20.2034C13.6045 20.204 11.9227 18.5275 11.9227 16.4676ZM8.03601 27.9862C8.31132 24.217 11.6306 21.2297 15.6717 21.2297C19.7128 21.2297 23.0327 24.2164 23.3074 27.9862H8.03601ZM22.36 23.2264C22.3588 23.2264 22.3582 23.2264 22.357 23.2264C21.5754 22.3241 20.5974 21.5828 19.4866 21.061C20.4927 19.412 22.3271 18.4005 24.356 18.4005C27.2779 18.4005 29.6869 20.5224 29.9568 23.2264H22.36Z" fill="white"/>
</svg>
